<?xml version="1.0" encoding="utf-8"?>
<!-- Generator: Adobe Illustrator 23.1.1, SVG Export Plug-In . SVG Version: 6.00 Build 0)  -->
<svg version="1.1" id="Слой_1" xmlns="http://www.w3.org/2000/svg" xmlns:xlink="http://www.w3.org/1999/xlink" x="0px" y="0px"
	 viewBox="0 0 120 35" style="enable-background:new 0 0 120 35;" xml:space="preserve">
<style type="text/css">
	.st0{fill:#CBCBCB;}
	.st1{fill:#2D3547;}
	.st2{fill:#AEBCCA;}
</style>
<path class="st0" d="M-625,161c0.4-0.3,0.7-0.6,1.1-0.9c-0.1,0.3-0.1,0.6-0.1,0.9C-624.2,161-624.7,161-625,161z"/>
<g>
	<path class="st1" d="M117.6,31.1l0.1-0.1L117.6,31.1C117.6,31.1,117.6,31.1,117.6,31.1z"/>
	<path class="st1" d="M28.1,12.8c-3.4,2.3-3.1,7,0.6,8.8c0,0.1,0,0.2-0.1,0.3c-0.6,1.7-1.5,3.1-2.7,4.5c-0.7,0.8-1.6,1.2-2.7,1.1
		c-0.4-0.1-0.9-0.2-1.3-0.4c-0.6-0.2-1.2-0.5-1.9-0.4c-0.5,0-1.1,0.2-1.6,0.3c-0.3,0.1-0.7,0.3-1,0.4c-1.1,0.4-2.2,0.3-3-0.6
		c-0.6-0.6-1.1-1.2-1.6-1.9c-1.6-2.4-2.5-5.1-2.4-8c0-1.2,0.3-2.3,0.9-3.3c1-1.8,2.6-2.8,4.7-2.9c0.5,0,1.1,0.2,1.6,0.3
		c0.4,0.1,0.9,0.3,1.3,0.5c0.5,0.2,1,0.2,1.6,0s1.1-0.4,1.7-0.6C24.4,10.1,26.8,10.9,28.1,12.8z"/>
	<path class="st1" d="M59.5,26.3c0,1.5,0,2.9,0,4.3c0,0,0,0.1-0.1,0.1c-0.6,0-1.2,0-1.8,0c0-3.9,0-7.9,0-11.8c0.5,0,1,0,1.6,0
		c0,0.4,0.1,0.8,0.1,1.2c0.3-0.3,0.6-0.6,0.9-0.9c1-0.7,3-0.9,4.2,0.4c0.4,0.4,0.7,0.9,0.9,1.5c0.4,1.3,0.4,2.7-0.1,3.9
		c-0.7,1.7-2.2,2.6-4,2.3C60.5,27.3,60,27,59.5,26.3z M59.5,23.1c0,0.5,0,0.8,0.1,1.2c0.2,1,0.8,1.6,1.7,1.7c1,0.1,1.8-0.3,2.2-1.2
		c0.5-1.1,0.5-2.2,0-3.2c-0.4-0.9-1.1-1.4-2.1-1.3c-0.9,0.1-1.6,0.7-1.8,1.7C59.5,22.3,59.5,22.8,59.5,23.1z"/>
	<path class="st1" d="M49.8,26.5c0,1.4,0,2.8,0,4.3c-0.6,0-1.2,0-1.8,0c0-3.9,0-7.9,0-11.8c0.5,0,1,0,1.6,0c0,0.4,0.1,0.8,0.1,1.2
		c0.1-0.1,0.1-0.1,0.2-0.1c1.6-2,4.6-1.7,5.7,0.7c0.8,1.6,0.7,3.3,0,4.8c-0.7,1.5-2.3,2.2-3.9,1.9C50.8,27.3,50.3,27,49.8,26.5z
		 M49.8,23.2L49.8,23.2c0,0.3,0,0.5,0,0.8c0.1,1,0.7,1.8,1.6,2c1.1,0.2,1.9-0.3,2.4-1.3c0.4-1,0.4-2.1,0-3.1c-0.4-0.9-1.1-1.3-2-1.3
		c-0.9,0.1-1.6,0.7-1.8,1.6C49.8,22.3,49.8,22.8,49.8,23.2z"/>
	<path class="st1" d="M40.2,15.7c0.8,0,1.5,0,2.3,0c1.3,3.9,2.5,7.7,3.8,11.6c-0.7,0-1.3,0-2,0c-0.4-1.1-0.7-2.3-1.1-3.4
		c-1.3,0-2.5,0-3.8,0c-0.3,1.1-0.7,2.3-1.1,3.4c-0.6,0-1.2,0-1.9,0C37.7,23.4,39,19.6,40.2,15.7z M41.3,17.4c-0.5,1.7-1,3.4-1.5,5.1
		c1,0,2,0,3.1,0C42.4,20.7,41.9,19,41.3,17.4z"/>
	<path class="st1" d="M76,16c-0.2,0.5-0.3,1-0.4,1.5c-0.2-0.1-0.3-0.1-0.5-0.2c-0.7-0.3-1.5-0.4-2.3-0.3c-1,0.1-1.5,0.8-1.5,1.6
		c0,0.5,0.2,0.8,0.6,1.1c0.5,0.3,0.9,0.5,1.4,0.8c0.6,0.3,1.2,0.5,1.7,0.9c2.1,1.3,1.9,4.6-0.5,5.6c-1.8,0.8-3.6,0.6-5.3-0.2
		c0.1-0.5,0.3-1,0.4-1.6c0.2,0.1,0.3,0.1,0.4,0.2c1,0.4,2,0.6,3,0.4c0.8-0.2,1.3-0.7,1.5-1.3c0.1-0.8-0.2-1.4-0.8-1.8
		c-0.4-0.2-0.8-0.4-1.2-0.6c-0.6-0.3-1.2-0.6-1.8-1c-1.9-1.4-1.6-4.3,0.6-5.2C72.9,15.2,74.4,15.4,76,16z"/>
	<path class="st1" d="M92,23.1c-0.1,0.5-0.1,1-0.2,1.4c-0.5,1.8-1.9,2.9-3.8,2.9c-2.4,0.1-4.2-1.5-4.3-4c0-0.7,0-1.3,0.2-2
		c0.6-1.9,2.2-2.9,4.2-2.8c2.5,0.1,3.7,2,3.8,3.9C91.9,22.8,91.9,22.9,92,23.1C91.9,23.1,92,23.1,92,23.1z M90,23.1
		c0-0.9-0.2-1.6-0.7-2.2c-0.8-1-2.3-1-3.1,0c-0.9,1.2-0.9,3.2,0,4.4c0.8,1.1,2.4,1.1,3.1,0C89.8,24.6,90,23.9,90,23.1z"/>
	<path class="st1" d="M106.2,23.6c-1.8,0-3.6,0-5.5,0c-0.1,1.3,0.7,2.2,1.9,2.4c0.9,0.1,1.7,0,2.5-0.2c0.1,0,0.3-0.1,0.5-0.1
		c0.1,0.4,0.2,0.8,0.3,1.2c-0.5,0.3-1,0.4-1.5,0.5c-0.8,0.1-1.7,0.2-2.5,0c-1.3-0.3-2.3-1.2-2.7-2.5c-0.4-1.3-0.4-2.6,0.2-3.8
		c0.9-1.9,2.6-2.7,4.5-2.2c0.4,0.1,0.8,0.3,1.1,0.5C106.1,20.2,106.7,22.2,106.2,23.6z M104.6,22.2c-0.1-0.4-0.1-0.7-0.2-1
		c-0.3-0.9-1.1-1.3-2.1-1.2c-0.9,0.2-1.6,1.1-1.6,2.2C102,22.2,103.2,22.2,104.6,22.2z"/>
	<path class="st1" d="M82.6,18.9c0,0.5,0,0.9,0,1.4c-0.7,0-1.3,0-2,0c0,0.2,0,0.4,0,0.6c0,1.1,0,2.2,0,3.3c0,0.1,0,0.2,0,0.2
		c0,1.3,0.4,1.6,1.7,1.5h0.1c0,0,0,0.1,0,0.2c0,0.4,0,0.8,0,1.2c-0.7,0.2-1.5,0.3-2.2,0.1c-0.7-0.2-1.2-0.7-1.4-1.4
		c-0.1-0.4-0.2-0.9-0.2-1.3c0-1.2,0-2.5,0-3.7c0-0.2,0-0.4,0-0.7c-0.4,0-0.8,0-1.2,0c0-0.5,0-0.9,0-1.4c0.4,0,0.7,0,1.2,0
		c0-0.5,0-1,0-1.5c0.6-0.2,1.2-0.4,1.9-0.6c0,0.7,0,1.4,0,2.1C81.3,18.9,81.9,18.9,82.6,18.9z"/>
	<path class="st1" d="M95.4,27.3c-0.6,0-1.2,0-1.8,0c0-2.8,0-5.6,0-8.4c0.5,0,1,0,1.5,0c0,0.4,0.1,0.9,0.1,1.5
		c0.6-1.2,1.4-1.8,2.7-1.6c0,0.6,0,1.1,0,1.7c-0.1,0-0.3,0-0.4,0c-1-0.1-1.8,0.5-2,1.6c-0.1,0.3-0.1,0.7-0.1,1c0,1.3,0,2.6,0,3.8
		C95.4,27.1,95.4,27.2,95.4,27.3z"/>
	<path class="st1" d="M19.6,10.3c-0.2-2.5,2-5.1,4.4-5.1C24.5,7.3,22.3,10.5,19.6,10.3z"/>
</g>
<path class="st1" d="M41.3,6.6c-0.8-0.8-1.7-1-2.8-0.8c-1.2,0.3-1.9,1.1-2.1,2.3c-0.2,1.2,0.2,2.2,1.3,2.9c1,0.6,2.1,0.6,3.2,0
	c0.9-0.6,1.3-1.7,1-2.7c-0.9,0-1.8,0-2.7,0c0,0.3,0,0.5,0,0.8c0.6,0,1.2,0,1.8,0c-0.1,0.8-0.6,1.3-1.4,1.4c-1,0.2-1.8-0.3-2.2-1.1
	c-0.4-0.9-0.2-1.9,0.5-2.5c0.8-0.6,1.8-0.6,2.8,0.2C41,7.1,41.1,6.9,41.3,6.6z"/>
<path class="st1" d="M67.1,11.4c0.3,0,0.5,0,0.9,0c0-1.3,0-2.6,0-3.9h0.1c0.8,1.3,1.7,2.6,2.5,3.9c0.3,0,0.6,0,0.8,0
	c0-1.8,0-3.6,0-5.4c-0.3,0-0.5,0-0.9,0c0,1.3,0,2.5,0,3.8c-0.7-1.1-1.3-2.1-2-3.1C68,6,68,6,67.2,6c0,0-0.1,0-0.1,0.1
	C67.1,7.8,67.1,9.5,67.1,11.4z"/>
<path class="st1" d="M42.9,5.9c0,1.9,0,3.6,0,5.4c1.1,0,2.2,0,3.3,0c0-0.3,0-0.5,0-0.8c-0.8,0-1.6,0-2.4,0c0-0.5,0-1,0-1.5
	c0.7,0,1.4,0,2.1,0c0-0.3,0-0.5,0-0.8c-0.7,0-1.4,0-2.1,0c0-0.5,0-1,0-1.5c0.8,0,1.6,0,2.4,0c0-0.3,0-0.5,0-0.8
	C45,5.9,44,5.9,42.9,5.9z"/>
<path class="st1" d="M49.1,11.4c0-0.8,0-1.6,0-2.3c0-0.8,0-1.5,0-2.3c0.5,0,1,0,1.5,0c0-0.3,0-0.5,0-0.8c-1.3,0-2.6,0-3.9,0
	c0,0.3,0,0.5,0,0.8c0.5,0,1,0,1.5,0c0,1.6,0,3.1,0,4.6C48.5,11.4,48.8,11.4,49.1,11.4z"/>
<path class="st1" d="M56.1,11.4c0.3,0,0.6,0,0.9,0c0-1.5,0-3.1,0-4.6c0.5,0,1,0,1.5,0c0-0.3,0-0.6,0-0.8c-0.7,0-1.3,0-2,0
	s-1.3,0-1.9,0c0,0.3,0,0.5,0,0.8c0.5,0,1,0,1.5,0C56.1,8.3,56.1,9.8,56.1,11.4z"/>
<path class="st1" d="M53.1,5.9c0,1.8,0,3.6,0,5.4c0.3,0,0.5,0,0.8,0c0-1.8,0-3.6,0-5.4C53.6,5.9,53.4,5.9,53.1,5.9z"/>
<path class="st1" d="M41.3,6.6c-0.2,0.2-0.4,0.4-0.5,0.6c-1.1-0.8-2-0.8-2.8-0.2c-0.7,0.6-0.9,1.6-0.5,2.5c0.4,0.8,1.3,1.3,2.2,1.1
	c0.8-0.1,1.3-0.7,1.4-1.4c-0.6,0-1.2,0-1.8,0c0-0.3,0-0.5,0-0.8c0.9,0,1.8,0,2.7,0c0.3,1-0.1,2.1-1,2.7c-1,0.6-2.1,0.6-3.2,0
	c-1.1-0.7-1.5-1.7-1.3-2.9s0.9-2,2.1-2.3C39.6,5.6,40.5,5.8,41.3,6.6z"/>
<g>
	<path class="st1" d="M60.6,8.7C60.6,8.7,60.6,8.7,60.6,8.7c0,1.5,1.2,2.8,2.8,2.8C61.8,11.5,60.6,10.2,60.6,8.7z"/>
	<path class="st1" d="M66,10c0-0.1,0.1-0.1,0.1-0.2C66.1,9.8,66,9.9,66,10z"/>
	<path class="st1" d="M66.3,8.7C66.3,8.7,66.3,8.7,66.3,8.7c0,0.3-0.1,0.7-0.2,1C66.2,9.4,66.3,9.1,66.3,8.7z"/>
	<path class="st1" d="M66.1,9.7c0.1-0.3,0.2-0.7,0.2-1.1c0,0,0,0,0-0.1c0-1.6-1.2-2.9-2.8-2.9c-1.5,0-2.9,1.2-2.9,2.9c0,0,0,0,0,0.1
		c0,1.6,1.2,2.8,2.8,2.8c1.2,0,2.1-0.6,2.6-1.5C66,9.9,66.1,9.8,66.1,9.7C66.1,9.8,66.1,9.8,66.1,9.7z M61.5,8.6c0-1.2,0.8-2,1.9-2
		c1.2,0,2,0.8,2,2c0,1.2-0.8,2-2,2C62.3,10.6,61.5,9.8,61.5,8.6z"/>
</g>
<path class="st1" d="M67.1,11.4c0-1.8,0-3.6,0-5.4l0.1-0.1c0.9,0,0.9,0,1.3,0.7c0.6,1,1.3,2,2,3.1c0-1.3,0-2.6,0-3.8
	c0.3,0,0.6,0,0.9,0c0,1.8,0,3.6,0,5.4c-0.3,0-0.5,0-0.8,0c-0.8-1.3-1.7-2.6-2.5-3.9H68c0,1.3,0,2.6,0,3.9
	C67.7,11.4,67.4,11.4,67.1,11.4z"/>
<path class="st1" d="M42.9,5.9c1.1,0,2.2,0,3.3,0c0,0.2,0,0.5,0,0.8c-0.8,0-1.6,0-2.4,0c0,0.5,0,1,0,1.5c0.7,0,1.4,0,2.1,0
	c0,0.3,0,0.5,0,0.8c-0.7,0-1.4,0-2.1,0c0,0.5,0,1,0,1.5c0.8,0,1.6,0,2.4,0c0,0.3,0,0.5,0,0.8c-1.1,0-2.1,0-3.3,0
	C42.9,9.6,42.9,7.8,42.9,5.9z"/>
<path class="st1" d="M49.1,11.4c-0.3,0-0.6,0-0.9,0c0-1.5,0-3,0-4.6c-0.5,0-1,0-1.5,0c0-0.3,0-0.6,0-0.8c1.3,0,2.6,0,3.9,0
	c0,0.3,0,0.5,0,0.8c-0.5,0-0.9,0-1.5,0c0,0.8,0,1.6,0,2.3C49.1,9.8,49.1,10.5,49.1,11.4z"/>
<path class="st1" d="M56.1,11.4c0-1.5,0-3,0-4.6c-0.5,0-1,0-1.5,0c0-0.3,0-0.5,0-0.8c0.6-0.1,1.3,0,1.9,0c0.6,0,1.3,0,2,0
	c0,0.3,0,0.5,0,0.8c-0.5,0-0.9,0-1.5,0c0,1.6,0,3.1,0,4.6C56.7,11.4,56.4,11.4,56.1,11.4z"/>
<path class="st1" d="M53.1,5.9c0.3,0,0.5,0,0.8,0c0,1.8,0,3.6,0,5.4c-0.3,0-0.5,0-0.8,0C53.1,9.5,53.1,7.7,53.1,5.9z"/>
<path class="st2" d="M116.2,34.9H3.9C1.8,34.9,0,33.2,0,31V3.9C0,1.8,1.7,0,3.9,0h112.3c2.1,0,3.9,1.7,3.9,3.9v27.2
	C120,33.2,118.3,34.9,116.2,34.9z M3.9,1.1C2.3,1.1,1,2.3,1,3.9v27.2C1,32.7,2.3,34,3.9,34h112.3c1.6,0,2.9-1.3,2.9-2.9V3.9
	c0-1.6-1.3-2.9-2.9-2.9H3.9V1.1z"/>
</svg>
