<svg version="1.1" id="Layer_2" xmlns="http://www.w3.org/2000/svg" x="0" y="0" viewBox="0 0 128 128" xml:space="preserve"><style>.st0{fill:#d6b2f5}</style><switch><g><path d="M61.2 50.2c-1.1 0-2.2-.8-2.4-1.9-1.9-8-7.3-12.3-16.1-12.7-8.7-.4-14.1 3.8-16 12.4-.3 1.3-1.6 2.2-3 1.9-1.3-.3-2.2-1.6-1.9-3 1.4-6.4 6-17 21.1-16.3 14.8.7 19.3 10.6 20.7 16.5.3 1.3-.5 2.7-1.9 3-.1.1-.3.1-.5.1zM108.7 52.9c-1.3 0-2.3-.9-2.5-2.2-.2-1.4-.5-2.8-.9-4.1-2.3-6.9-7.5-10.6-15.6-11-11.4-.5-15.2 7.8-16.3 14.8-.2 1.4-1.5 2.3-2.9 2.1-1.4-.2-2.3-1.5-2.1-2.9 1-6 5-19.8 21.5-19.1 10.1.5 17.3 5.6 20.1 14.4.5 1.6.9 3.4 1.1 5.1.2 1.4-.8 2.6-2.2 2.8 0 .1-.1.1-.2.1zM84.1 103.2H3.3c-1.3 0-2.4-1.1-2.4-2.5s1.1-2.5 2.4-2.5h80.8c1.3 0 2.4 1.1 2.4 2.5s-1.1 2.5-2.4 2.5z"/><path d="M43.2 101.1H43c-1.4-.1-2.4-1.3-2.3-2.6 0-.1.4-8-4.5-13.4-2.9-3.2-7.1-4.9-12.6-5.2-5.1-.2-9.2 1.1-12 3.9-5.4 5.4-5 14.6-5 14.7.1 1.4-1 2.6-2.4 2.6-1.4.1-2.6-1-2.6-2.4 0-.5-.5-11.5 6.5-18.4 3.9-3.9 9.2-5.7 15.8-5.4 6.9.3 12.3 2.6 16.1 6.9 6.3 7 5.8 16.6 5.7 17-.1 1.3-1.2 2.3-2.5 2.3z"/><path d="M83.2 100.5H83c-1.4-.1-2.4-1.3-2.3-2.6 0-.1.4-8-4.5-13.4-2.9-3.2-7.1-4.9-12.6-5.2-5.1-.2-9.2 1.1-12 3.9-5.4 5.4-5 14.6-5 14.7.1 1.4-1 2.6-2.4 2.6-1.4.1-2.6-1-2.6-2.4 0-.5-.5-11.5 6.5-18.4 3.9-3.9 9.2-5.7 15.8-5.4 6.9.3 12.3 2.6 16.1 6.9 6.3 7 5.8 16.6 5.7 17-.1 1.3-1.2 2.3-2.5 2.3z"/><path d="M106.8 117.3c-12.3 0-22.2-10-22.2-22.2s10-22.2 22.2-22.2 22.2 10 22.2 22.2-10 22.2-22.2 22.2zm0-39.5c-9.5 0-17.2 7.7-17.2 17.2s7.7 17.2 17.2 17.2S124 104.5 124 95s-7.7-17.2-17.2-17.2z"/><path d="M104.4 104h-.1c-.7 0-1.4-.4-1.8-.9L94 92.5c-.9-1.1-.7-2.6.4-3.5 1.1-.9 2.7-.7 3.5.4l6.7 8.4 11.9-12.1c1-1 2.6-1 3.5 0 1 1 1 2.6 0 3.5l-13.9 14.1c-.4.4-1 .7-1.7.7z"/><circle class="st0" cx="90" cy="16" r="14.5"/><circle class="st0" cx="108.6" cy="58.5" r="14.5"/><circle class="st0" cx="64" cy="60" r="14.5"/><circle class="st0" cx="22.7" cy="59.5" r="14.5"/><circle class="st0" cx="44.1" cy="16.9" r="14.5"/><g id="Group_1414_9_" transform="translate(30.952 66.249)"><g id="Group_1413_9_"><path d="M12.7-62.7C6.2-62.7.9-57.4.9-50.9v3.9c0 6.5 5.4 11.8 11.9 11.7 6.5 0 11.7-5.3 11.7-11.7v-3.9c.1-6.5-5.2-11.8-11.8-11.8zm0 4.7c3.2 0 6.1 2.1 6.9 5.3L17-54.2c-1-.6-2.2-.3-3 .5a8.14 8.14 0 01-6.2 2.9H5.6c0-4 3.2-7.2 7.1-7.2zm0 18.3c-3.7 0-6.8-2.8-7.2-6.5h2.3c3.1 0 6.1-1.1 8.4-3.1l3.7 2.2v.3c0 3.9-3.2 7.1-7.2 7.1z" id="Path_1235_9_"/></g></g><g id="Group_1414_10_" transform="translate(30.952 66.249)"><g id="Group_1413_10_"><path d="M59.1-63.6c-6.5 0-11.8 5.3-11.8 11.8v4c.1 6.5 5.4 11.8 11.9 11.7 6.5 0 11.7-5.3 11.7-11.7v-4c0-6.5-5.3-11.8-11.8-11.8zm0 4.7c3.2 0 6.1 2.2 6.9 5.3l-2.6-1.5c-1-.6-2.2-.3-2.9.5-1.5 1.9-3.8 2.9-6.2 2.9H52c-.1-4 3.1-7.2 7.1-7.2zm0 18.3c-3.7 0-6.8-2.8-7.2-6.5h2.3c3.1 0 6.1-1.1 8.4-3.1l3.7 2.2v.3c0 3.9-3.2 7.1-7.2 7.1z" id="Path_1235_10_"/></g></g><g id="Group_1414_8_" transform="translate(30.952 66.249)"><g id="Group_1413_8_"><path d="M77.8-20.5h-1.1c-6 .6-10.7 5.7-10.7 11.8v4C66 1.8 71.4 7.1 77.9 7c6.5 0 11.7-5.3 11.7-11.7v-4c0-6.5-5.3-11.8-11.8-11.8zm0 4.7c3.3 0 6.1 2.2 7 5.3L82.2-12c-1-.6-2.2-.4-3 .5A8.14 8.14 0 0173-8.6h-2.3c0-4 3.1-7.2 7.1-7.2zM85-4.7c0 4-3.2 7.2-7.2 7.2-3.7 0-6.8-2.8-7.2-6.5H73c3.1 0 6.1-1.1 8.4-3.1L85-5v.3z" id="Path_1235_8_"/></g></g><g id="Group_1414_7_" transform="translate(30.952 66.249)"><g id="Group_1413_7_"><path d="M40-17.2c-1.8-1.2-4-1.8-6.3-1.9-1.2 0-2.3.2-3.4.5-4.9 1.5-8.4 6-8.4 11.3v4c0 6.5 5.4 11.8 11.9 11.7 6.5-.1 11.7-5.3 11.7-11.7v-4c0-4.1-2.2-7.8-5.5-9.9zm-9.1 3.4c.8-.4 1.8-.6 2.8-.6 3.2 0 6.1 2.2 6.9 5.3L38-10.7c-1-.6-2.2-.4-3 .5a8.14 8.14 0 01-6.2 2.9h-2.3c0-2.9 1.8-5.5 4.4-6.5zm10 10.5c0 4-3.2 7.2-7.2 7.2-3.7 0-6.8-2.8-7.2-6.5h2.3c3.1 0 6.1-1.1 8.4-3.1l3.7 2.1v.3z" id="Path_1235_7_"/></g></g><g id="Group_1414_5_" transform="translate(30.952 66.249)"><g id="Group_1413_5_"><path d="M-6.7-18.8c-.5-.1-1-.1-1.5-.1-6.5 0-11.8 5.3-11.8 11.8v3.9c0 6.5 5.4 11.8 11.9 11.7 6.4 0 11.6-5.2 11.7-11.7v-3.9c0-6-4.5-11-10.3-11.7zm-1.5 4.5c.3 0 .6 0 .9.1 2.8.4 5.2 2.4 6 5.2l-2.6-1.5c-1-.6-2.2-.4-3 .5a8.14 8.14 0 01-6.2 2.9h-2.3c0-4 3.2-7.2 7.2-7.2zM-1-3.2C-1 .8-4.2 4-8.2 4c-3.7 0-6.8-2.8-7.2-6.5h2.3c3.1 0 6.1-1.1 8.4-3.2L-1-3.5v.3z" id="Path_1235_5_"/></g></g></g></switch></svg>