<svg xmlns="http://www.w3.org/2000/svg" viewBox="0 0 100 100"><switch><g><path d="M78.1 99.2H22.3c-11.1 0-20.2-9-20.2-20.2V28.8c0-11.1 9-20.2 20.2-20.2H78c11.1 0 20.2 9 20.2 20.2V79c0 11.1-9 20.2-20.1 20.2zM22.3 13.6c-8.4 0-15.2 6.8-15.2 15.2V79c0 8.4 6.8 15.2 15.2 15.2H78c8.4 0 15.2-6.8 15.2-15.2V28.8c0-8.4-6.8-15.2-15.2-15.2H22.3z"/><path d="M95.7 36.2H5.6c-1.4 0-2.5-1.1-2.5-2.5s1.1-2.5 2.5-2.5h90.1c1.4 0 2.5 1.1 2.5 2.5s-1.1 2.5-2.5 2.5zM26.2 21.4c-1.4 0-2.5-1.1-2.5-2.5V3.7c0-1.4 1.1-2.5 2.5-2.5s2.5 1.1 2.5 2.5V19c0 1.3-1.1 2.4-2.5 2.4zM73.4 21.9c-1.4 0-2.5-1.1-2.5-2.5V4.1c0-1.4 1.1-2.5 2.5-2.5s2.5 1.1 2.5 2.5v15.3c0 1.3-1.1 2.5-2.5 2.5z"/><circle cx="26.2" cy="19.8" r="3.7"/><circle cx="73.4" cy="19.4" r="3.7"/><circle cx="53.3" cy="65.7" r="27" fill="#d6b2f5"/><path d="M60.7 79.4c-.5 0-1-.2-1.5-.5-1.1-.8-1.4-2.4-.5-3.5.1-.1 5.6-7.8 3.7-13.9-.9-2.9-3.4-5-7.6-6.4-1.3-.5-2-1.9-1.5-3.2.5-1.3 1.9-2 3.2-1.5 5.7 2 9.3 5.2 10.7 9.7 2.7 8.5-4.1 18-4.4 18.4-.6.6-1.3.9-2.1.9z"/><path d="M50.7 90.6c-13.9 0-25.2-11.3-25.2-25.2s11.3-25.2 25.2-25.2 25.2 11.3 25.2 25.2-11.3 25.2-25.2 25.2zm0-45.5c-11.2 0-20.2 9.1-20.2 20.2 0 11.2 9.1 20.2 20.2 20.2 11.2 0 20.2-9.1 20.2-20.2s-9.1-20.2-20.2-20.2z"/><path d="M46.4 81c-.2 0-.4 0-.6-.1-5.9-1.4-9.8-4.2-11.7-8.5-3.5-8.2 2.3-18.3 2.5-18.7.7-1.2 2.2-1.6 3.4-.9 1.2.7 1.6 2.2.9 3.4-.1.1-4.8 8.4-2.2 14.2 1.2 2.7 3.9 4.6 8.2 5.6 1.3.3 2.2 1.7 1.9 3-.2 1.2-1.2 2-2.4 2z"/><path d="M47.3 83.4c-.4 0-.8-.1-1.1-.3-.8-.4-1.3-1.2-1.4-2.1l-.5-8.7c-.1-.9.4-1.7 1.1-2.2.7-.5 1.7-.5 2.5-.1l7.8 3.9c.8.4 1.3 1.2 1.4 2.1.1.9-.4 1.7-1.1 2.2L48.7 83c-.5.2-.9.4-1.4.4zm2.2-7.1c.1 0 .1 0 0 0zM54.6 61.5c-.5 0-.9-.1-1.4-.4l-7.3-4.7c-.8-.5-1.2-1.3-1.1-2.2 0-.9.6-1.7 1.4-2.1l7.7-4c.8-.4 1.7-.4 2.5.1s1.2 1.3 1.1 2.2l-.4 8.7c0 .9-.6 1.7-1.4 2.1-.3.2-.7.3-1.1.3zm-2.3-7z"/></g></switch></svg>