<svg xmlns="http://www.w3.org/2000/svg" viewBox="0 0 128 128"><switch><g><ellipse cx="62.6" cy="74" rx="33.3" ry="33.1" fill="#d6b2f5"/><path d="M118.6 122.4H9.4c-1.8 0-3.2-1.4-3.2-3.2V13.6c0-1.8 1.4-3.2 3.2-3.2h109.2c1.8 0 3.2 1.4 3.2 3.2v105.6c0 1.8-1.5 3.2-3.2 3.2zm-106-6.4h102.8V16.8H12.6V116z"/><path d="M98.7 38.7H12.5c-1.8 0-3.2-1.4-3.2-3.2 0-1.8 1.4-3.2 3.2-3.2h86.3c1.8 0 3.2 1.4 3.2 3.2-.1 1.7-1.5 3.2-3.3 3.2zM111 38.7h-3.1c-1.8 0-3.2-1.4-3.2-3.2 0-1.8 1.4-3.2 3.2-3.2h3.1c1.8 0 3.2 1.4 3.2 3.2 0 1.7-1.4 3.2-3.2 3.2zM53.7 97.6c-.7 0-1.3-.2-1.9-.6L36 85c-1.4-1.1-1.7-3.1-.6-4.5s3.1-1.7 4.5-.6l13.5 10.2L85 56c1.2-1.3 3.2-1.4 4.5-.2 1.3 1.2 1.4 3.2.2 4.5L56.1 96.5c-.7.7-1.5 1.1-2.4 1.1zM27.1 26.7c-1.8 0-3.2-1.4-3.2-3.2V3.2c0-1.8 1.4-3.2 3.2-3.2 1.8 0 3.2 1.4 3.2 3.2v20.3c0 1.8-1.4 3.2-3.2 3.2zM97.2 25.2c-1.8 0-3.2-1.4-3.2-3.2V3.2C94 1.4 95.4 0 97.2 0c1.8 0 3.2 1.4 3.2 3.2V22c0 1.7-1.5 3.2-3.2 3.2z"/></g></switch></svg>