<svg xmlns="http://www.w3.org/2000/svg" viewBox="0 0 128 128"><switch><g><path d="M124.7 41.2H28.4c-4.2 0-8.3-1.7-11.2-4.8-2.9-3-4.5-7-4.3-11.2v-.6c-.1-9.8 5.5-15.1 10.7-16.8 1.4-.5 2.9-.7 4.5-.7l96.7-1.4c1.8 0 3.2 1.4 3.2 3.2 0 1.8-1.4 3.2-3.2 3.3l-96.7 1.4c-.9 0-1.8.2-2.6.4-1.9.6-6.4 2.9-6.3 10.7v.8c-.1 2.4.8 4.7 2.5 6.5 1.7 1.8 4.1 2.8 6.6 2.8h96.3c1.8 0 3.2 1.4 3.2 3.2s-1.3 3.2-3.1 3.2z"/><path d="M105.5 27.2H28.3c-1.8 0-3.2-1.4-3.2-3.2s1.4-3.2 3.2-3.2h77.2c1.8 0 3.2 1.4 3.2 3.2s-1.4 3.2-3.2 3.2zM124.7 99.3H94.4c-1.8 0-3.2-1.4-3.2-3.2 0-1.8 1.4-3.2 3.2-3.2h30.2c1.8 0 3.2 1.4 3.2 3.2.1 1.8-1.3 3.2-3.1 3.2zM68.5 99.3H28.4c-4.2 0-8.3-1.7-11.3-4.8-2.9-3-4.5-7-4.3-11.2v-.6c0-9.7 5.5-15 10.8-16.7 1.4-.5 2.9-.7 4.5-.7l96.7-1.4c1.8 0 3.2 1.4 3.3 3.2 0 1.8-1.4 3.2-3.2 3.3l-96.7 1.4c-.9 0-1.8.1-2.6.4-1.9.6-6.4 2.9-6.3 10.7v.7c-.1 2.4.8 4.7 2.5 6.5 1.7 1.8 4.1 2.8 6.6 2.8h40.2c1.8 0 3.2 1.4 3.2 3.2 0 1.8-1.5 3.2-3.3 3.2z"/><path d="M105.5 86.4h-11c-1.8 0-3.2-1.4-3.2-3.2 0-1.8 1.4-3.2 3.2-3.2h11c1.8 0 3.2 1.4 3.2 3.2 0 1.7-1.4 3.2-3.2 3.2zM68.6 86.4H28.3c-1.8 0-3.2-1.4-3.2-3.2 0-1.8 1.4-3.2 3.2-3.2h40.2c1.8 0 3.2 1.4 3.2 3.2.1 1.7-1.3 3.2-3.1 3.2zM99.7 71.2l-96.4.3c-1.8 0-3.2-1.4-3.2-3.2 0-1.8 1.4-3.2 3.2-3.2l96.3-.3c2.5-.1 4.9-1 6.6-2.8 1.7-1.8 2.6-4.1 2.5-6.5v-.4-.4c.1-7.8-4.4-10.1-6.3-10.7-.8-.3-1.7-.4-2.6-.4L3.1 42.5c-1.8 0-3.2-1.5-3.2-3.3 0-1.8 1.5-3.2 3.3-3.2l96.7 1.1c1.6 0 3.1.3 4.5.7 5.3 1.7 10.8 7 10.8 16.8v.6c.2 4.2-1.4 8.2-4.3 11.2s-7 4.7-11.2 4.8z"/><path d="M99.6 56.9l-77.2-.5c-1.8 0-3.2-1.5-3.2-3.2 0-1.8 1.5-3.2 3.2-3.2l77.2.5c1.8 0 3.2 1.5 3.2 3.2 0 1.7-1.4 3.2-3.2 3.2zM116 41.2c-1.8 0-3.2-1.4-3.2-3.2V10.6c0-1.8 1.4-3.2 3.2-3.2s3.2 1.4 3.2 3.2V38c0 1.8-1.4 3.2-3.2 3.2zM11.3 70.3c-1.8 0-3.2-1.5-3.2-3.2l.1-27.4c0-1.8 1.5-3.2 3.2-3.2 1.8 0 3.2 1.5 3.2 3.2l-.1 27.4c0 1.8-1.4 3.2-3.2 3.2zM116 98.8c-1.8 0-3.2-1.4-3.2-3.2V68.3c0-1.8 1.4-3.2 3.2-3.2s3.2 1.4 3.2 3.2v27.4c0 1.7-1.4 3.1-3.2 3.1zM94.4 125.8c-.9 0-1.9-.4-2.5-1.2l-10-12.2L70.7 124c-.9.9-2.3 1.2-3.5.7-1.2-.5-2-1.7-2-3l.2-42.8c0-1.8 1.5-3.2 3.2-3.2 1.8 0 3.2 1.5 3.2 3.2l-.2 34.8 8.2-8.4c.6-.7 1.5-1 2.5-1 .9 0 1.8.5 2.4 1.2l6.6 8V78.9c0-1.8 1.4-3.2 3.2-3.2 1.8 0 3.2 1.4 3.2 3.2v43.6c0 1.4-.9 2.6-2.1 3-.4.2-.8.3-1.2.3z"/><circle cx="81.4" cy="94.1" r="10.2" fill="#d6b2f5"/></g></switch></svg>