<?xml version="1.0" encoding="utf-8"?>
<!-- Generator: Adobe Illustrator 23.1.1, SVG Export Plug-In . SVG Version: 6.00 Build 0)  -->
<svg version="1.1" id="Слой_1" xmlns="http://www.w3.org/2000/svg" xmlns:xlink="http://www.w3.org/1999/xlink" x="0px" y="0px"
	 viewBox="0 0 120 35" style="enable-background:new 0 0 120 35;" xml:space="preserve">
<style type="text/css">
	.st0{fill:#2D3547;}
	.st1{fill:none;stroke:#AEBCCA;stroke-miterlimit:10;}
	.st2{fill:#5D9884;}
	.st3{fill:#E1AA53;}
	.st4{fill:#C4584D;}
</style>
<path class="st0" d="M116.6,35L116.6,35L116.6,35C116.7,35,116.7,35,116.6,35z"/>
<path class="st0" d="M46.3,16.1c-0.5,0.4-0.8,0.8-1.2,1.2c-0.1-0.1-0.2-0.2-0.4-0.3c-1.4-1-3-1.1-4.5-0.3c-1.6,0.8-2.3,2.3-2.2,4.1
	c0.1,1.7,1,3,2.6,3.6s3.1,0.4,4.5-0.7c0.7-0.6,1-1.3,1-2.2c-1.3,0-2.5,0-3.8,0c0-0.5,0-1,0-1.6c1.8,0,3.6,0,5.4,0
	c0,0.1,0.1,0.2,0.1,0.4c0.3,3.5-1.9,5.7-4.8,6c-2.8,0.3-5.5-1.4-6.4-4c-1-3,0.6-6.3,3.7-7.3c2.1-0.7,4.1-0.4,5.8,1.1
	C46.1,16.1,46.2,16.1,46.3,16.1z"/>
<path class="st0" d="M65.4,27.5c0.5-0.2,0.9-0.4,1.4-0.6c0.1,0.1,0.2,0.3,0.3,0.4c0.5,0.8,1.4,1.1,2.3,0.9c0.7-0.2,1.2-0.6,1.4-1.4
	c0.1-0.4,0.1-0.8,0.1-1.3c-0.1,0-0.2,0-0.2,0c-1.1,1-2.3,0.9-3.6,0.3c-1.5-0.7-2.2-2.4-1.9-4c0.3-1.5,1.5-2.8,3.1-3.1
	c0.8-0.1,1.6,0.1,2.5,0.7c0-0.2,0.1-0.3,0.1-0.5c0.5,0,1,0,1.5,0c0,0.2,0,0.3,0,0.5c0,2.1,0,4.1,0,6.2c0,0.5-0.1,1.1-0.2,1.6
	c-0.3,1.2-1.2,2-2.4,2.3C67.6,30.1,66,29,65.4,27.5z M71,22.5c-0.1-0.3-0.1-0.7-0.3-1.1c-0.6-1.4-2.5-1.6-3.4-0.4
	c-0.6,0.8-0.7,1.8-0.2,2.7c0.4,0.7,1.1,1.1,1.9,1.1c0.9,0,1.4-0.5,1.7-1.4C70.8,23.2,70.9,22.9,71,22.5z"/>
<path class="st0" d="M86.8,15c0.1,0,0.2,0,0.4,0c1.2,0,2.4,0,3.5,0c0.7,0,1.4,0.1,2,0.5c1.2,0.7,1.8,1.7,1.7,3c0,1.4-0.7,2.3-1.9,3
	c-0.5,0.3-1.1,0.4-1.7,0.4s-1.2,0-1.9,0c-0.2,0-0.3,0-0.5,0c0,1.4,0,2.8,0,4.2c-0.6,0-1.1,0-1.6,0C86.8,22.4,86.8,18.7,86.8,15z
	 M88.4,20.4c0.9,0,1.7,0,2.5,0c1-0.1,1.8-0.9,1.8-1.8c0-1-0.7-1.8-1.7-1.9c-0.9-0.1-1.8,0-2.7,0C88.4,17.8,88.4,19.1,88.4,20.4z"/>
<path class="st0" d="M104.6,26.1c-0.6,0-1.1,0-1.6,0c0-0.2,0-0.5-0.1-0.8c-0.1,0.1-0.2,0.1-0.2,0.2c-0.9,1.1-2.8,1.1-3.9,0.2
	c-1.2-1-1.2-2.7,0.1-3.6c1.1-0.7,2.2-0.8,3.4-0.5c0.2,0,0.3,0.1,0.5,0.2c0-0.7-0.3-1.1-0.9-1.3c-0.9-0.3-1.6-0.1-2.4,0.6
	c-0.4-0.2-0.9-0.4-1.4-0.6c0.2-0.6,0.7-1,1.2-1.3c1.3-0.6,2.6-0.6,3.8,0.1c0.8,0.4,1.3,1.2,1.3,2.1c0,0.7,0,1.4,0,2
	C104.6,24.3,104.6,25.1,104.6,26.1z M102.9,23.1c-0.2-0.1-0.4-0.2-0.6-0.2c-0.7-0.2-1.4-0.2-2.1,0.2c-0.4,0.2-0.6,0.5-0.5,1
	c0,0.4,0.3,0.6,0.7,0.8C101.5,25.1,102.7,24.4,102.9,23.1z"/>
<path class="st0" d="M64.4,22.6c0,2.1-1.7,3.8-3.9,3.7s-3.8-1.7-3.8-3.8s1.7-3.8,3.9-3.7C62.7,18.8,64.4,20.5,64.4,22.6z M62.7,22.5
	c0-1-0.6-1.9-1.4-2.2c-1.1-0.4-2.3,0.2-2.7,1.4c-0.4,1.2,0.2,2.6,1.3,2.9C61.3,25.2,62.7,24.1,62.7,22.5z"/>
<path class="st0" d="M83.1,21.6c-1.7,0.7-3.4,1.4-5,2.1c0.2,0.7,0.9,1.2,1.7,1.2c0.8,0,1.4-0.4,1.9-1c0.4,0.3,0.8,0.6,1.2,0.8
	c-0.6,1.1-2.1,1.9-3.7,1.7c-2.9-0.4-4-3.5-2.8-5.7s4.5-2.6,6-0.1C82.7,20.8,82.9,21.2,83.1,21.6z M77.7,22.4
	c1.2-0.5,2.2-0.9,3.3-1.4c-0.5-0.7-1.2-1-1.9-0.7C78.3,20.6,77.7,21.3,77.7,22.4z"/>
<path class="st0" d="M52.2,26.3c-2.2,0-3.8-1.7-3.8-3.8s1.7-3.8,3.8-3.8c2.2,0,3.8,1.6,3.8,3.8S54.3,26.3,52.2,26.3z M54.3,22.5
	c0-1.3-1-2.3-2.2-2.3s-2.2,1-2.1,2.3c0,1.3,1,2.2,2.1,2.3C53.4,24.8,54.3,23.8,54.3,22.5z"/>
<path class="st0" d="M107.7,29.4c-0.6,0-1.1,0-1.7,0c0.1-0.2,0.1-0.3,0.2-0.5c0.4-0.9,0.8-1.9,1.3-2.8c0.2-0.3,0.1-0.6,0-0.9
	c-0.8-1.9-1.7-3.8-2.5-5.6c-0.1-0.2-0.1-0.3-0.2-0.6c0.6,0,1.2,0,1.8,0c0.3,0.7,0.6,1.5,1,2.3c0.3,0.8,0.7,1.6,1,2.5
	c0.7-1.7,1.3-3.2,1.9-4.8c0.6,0,1.2,0,1.9,0C110.8,22.5,109.2,26,107.7,29.4z"/>
<path class="st0" d="M75.2,15c0,3.7,0,7.3,0,11c-0.5,0-1.1,0-1.6,0c0-3.6,0-7.3,0-11C74.1,15,74.6,15,75.2,15z"/>
<path class="st0" d="M95.4,15c0.5,0,1.1,0,1.6,0c0,3.7,0,7.3,0,11c-0.5,0-1.1,0-1.6,0C95.4,22.4,95.4,18.7,95.4,15z"/>
<path class="st0" d="M41.3,6.4c-0.2,0.2-0.4,0.4-0.5,0.6c-1.1-0.8-2-0.8-2.8-0.2c-0.7,0.6-0.9,1.6-0.5,2.5c0.4,0.8,1.3,1.3,2.2,1.1
	c0.8-0.1,1.3-0.7,1.4-1.4c-0.6,0-1.2,0-1.8,0c0-0.3,0-0.5,0-0.8c0.9,0,1.8,0,2.7,0c0.3,1-0.1,2.1-1,2.7c-1,0.6-2.1,0.6-3.2,0
	c-1.1-0.7-1.5-1.7-1.3-2.9s0.9-2,2-2.3C39.5,5.4,40.5,5.5,41.3,6.4z"/>
<path class="st0" d="M63.4,11.2c-1.6,0-2.8-1.3-2.8-2.9c0-1.7,1.4-2.9,2.9-2.9c1.6,0,2.8,1.3,2.8,2.9C66.3,10,65.1,11.2,63.4,11.2z
	 M61.5,8.3c0,1.2,0.8,2,1.9,2c1.2,0,2-0.8,2-2s-0.8-2-2-2C62.3,6.3,61.5,7.2,61.5,8.3z"/>
<path class="st0" d="M67.1,11.1c0-1.8,0-3.6,0-5.4l0.1-0.1c0.9,0,0.9,0,1.3,0.7c0.6,1,1.3,2,2,3.1c0-1.4,0-2.6,0-3.8
	c0.3,0,0.6,0,0.9,0c0,1.8,0,3.6,0,5.4c-0.3,0-0.5,0-0.8,0c-0.8-1.3-1.7-2.6-2.5-3.9H68c0,1.3,0,2.6,0,3.9
	C67.7,11.1,67.4,11.1,67.1,11.1z"/>
<path class="st0" d="M42.9,5.6c1.1,0,2.2,0,3.3,0c0,0.2,0,0.5,0,0.8c-0.8,0-1.6,0-2.4,0c0,0.5,0,1,0,1.5c0.7,0,1.4,0,2.1,0
	c0,0.3,0,0.5,0,0.8c-0.7,0-1.4,0-2.1,0c0,0.5,0,1,0,1.5c0.8,0,1.6,0,2.4,0c0,0.3,0,0.5,0,0.8c-1.1,0-2.1,0-3.3,0
	C42.9,9.3,42.9,7.5,42.9,5.6z"/>
<path class="st0" d="M49.1,11.1c-0.3,0-0.6,0-0.9,0c0-1.5,0-3,0-4.6c-0.5,0-1,0-1.5,0c0-0.3,0-0.6,0-0.8c1.3,0,2.6,0,3.9,0
	c0,0.3,0,0.5,0,0.8c-0.5,0-0.9,0-1.5,0c0,0.8,0,1.6,0,2.3S49.1,10.3,49.1,11.1z"/>
<path class="st0" d="M56.1,11.1c0-1.5,0-3,0-4.6c-0.5,0-1,0-1.5,0c0-0.3,0-0.5,0-0.8c0.6-0.1,1.3,0,1.9,0c0.6,0,1.3,0,2,0
	c0,0.3,0,0.5,0,0.8c-0.5,0-0.9,0-1.5,0c0,1.6,0,3.1,0,4.6C56.7,11.1,56.4,11.1,56.1,11.1z"/>
<path class="st0" d="M53.1,5.6c0.3,0,0.5,0,0.8,0c0,1.8,0,3.6,0,5.4c-0.3,0-0.5,0-0.8,0C53.1,9.3,53.1,7.5,53.1,5.6z"/>
<path class="st1" d="M116.2,34.4H3.9c-1.8,0-3.4-1.5-3.4-3.4V3.9c0-1.8,1.5-3.4,3.4-3.4h112.3c1.8,0,3.4,1.5,3.4,3.4v27.2
	C119.5,32.9,118,34.4,116.2,34.4z"/>
<g>
	<path class="st2" d="M20.3,17.5c-0.9,1.1-1.8,2.2-2.7,3.3c-2.1,2.6-4.2,5.2-6.3,7.8c-0.2,0.3-0.4,0.3-0.7,0.2
		c-0.7-0.2-1.2-0.6-1.5-1.2c-0.3-0.5-0.3-1.1-0.3-1.7c0-3.4,0-6.8,0-10.2c0-2.2,0-4.4,0-6.6c0-0.6,0.1-1.1,0.3-1.7
		c0.4-0.7,0.9-1.1,1.7-1.2c0.2,0,0.4,0,0.5,0.2c1.7,2.1,3.3,4.1,5,6.2c1.3,1.6,2.5,3.1,3.8,4.7C20.2,17.3,20.3,17.4,20.3,17.5z"/>
	<path class="st3" d="M25,21.3c-1-1.3-2.1-2.5-3.1-3.8c1-1.3,2-2.5,3.1-3.7c0.9,0.6,1.9,1.1,2.8,1.7c0.8,0.5,1.3,1.2,1.3,2.2
		c0,0.9-0.5,1.5-1.2,2C26.9,20.2,26,20.7,25,21.3z"/>
	<path class="st4" d="M21.1,18.4c1,1.2,1.9,2.3,2.8,3.5c-3.5,2-7,4.1-10.5,6.1c0,0,0,0,0,0C16,24.8,18.5,21.6,21.1,18.4z"/>
	<path class="st2" d="M13.6,7.2c3.4,2,6.8,3.9,10.2,5.9c-0.9,1.1-1.8,2.3-2.8,3.4C18.6,13.4,16.1,10.3,13.6,7.2
		C13.6,7.2,13.6,7.2,13.6,7.2z"/>
</g>
</svg>
