<?xml version="1.0" encoding="utf-8"?>
<!-- Generator: Adobe Illustrator 23.0.3, SVG Export Plug-In . SVG Version: 6.00 Build 0)  -->
<svg version="1.1" id="Слой_1" xmlns="http://www.w3.org/2000/svg" xmlns:xlink="http://www.w3.org/1999/xlink" x="0px" y="0px"
	 viewBox="0 0 100 100" style="enable-background:new 0 0 100 100;" xml:space="preserve">
<style type="text/css">
	.st0{fill:none;stroke:#2D3547;stroke-width:3;stroke-linecap:round;stroke-linejoin:round;stroke-miterlimit:10;}
	.st1{fill:none;stroke:#2D3547;stroke-width:2;stroke-linecap:round;stroke-linejoin:round;stroke-miterlimit:10;}
	.st2{fill:none;stroke:#06ADEF;stroke-width:4;stroke-linecap:round;stroke-linejoin:round;stroke-miterlimit:10;}
	.st3{fill:none;stroke:#2D3547;stroke-width:4;stroke-linecap:round;stroke-linejoin:round;stroke-miterlimit:10;}
</style>
<path class="st0" d="M48.8,78.9H15.6c-2.1,0-3.8-1.7-3.8-3.8V39.5h34.3"/>
<path class="st0" d="M41.7,27.6H15.8c-2.2,0-4,1.8-4,4v7.9"/>
<path class="st1" d="M12.1,65.9c1.2-2.2,3.2-3.9,5.8-4.8c5.5-1.9,11.5,1,13.4,6.6c1.4,4.1,0.2,8.4-2.8,11.1"/>
<path class="st1" d="M11.1,49.2"/>
<polyline class="st1" points="43.7,78.9 45.1,76.1 39,73.1 39.1,69.3 45.6,67.1 42.5,58 36,60.2 33.4,57.4 36.4,51.3 27.8,47.1 
	24.8,53.2 21,53.1 18.8,46.6 12,48.9 "/>
<circle class="st1" cx="18.3" cy="33.9" r="1.7"/>
<circle class="st1" cx="23.8" cy="33.9" r="1.7"/>
<circle class="st1" cx="29.9" cy="33.9" r="1.7"/>
<g>
	<path class="st1" d="M74.7,71.1c-0.9,3.6,1.5,5.4,8.9,6.1c7,0.6,5,10.5,5,10.5H70.2h0.2H52c0,0-2-9.8,5-10.5
		c7.4-0.7,9.8-2.5,8.9-6.1"/>
	<path class="st1" d="M64.3,75.4c2.6,2.2,6.7,4,12.4,0.2"/>
	<path class="st1" d="M61.6,56.6c0,3.6,0,5.5,0,7.5s1.1,8.3,8.6,8.1s8.6-6.1,8.6-8.2c0-2.1,0-7.4,0-7.4c-3.5,1.7-11.4,2.6-17.6-6.1"
		/>
	<path class="st1" d="M81.2,55.8c-1.1-4.6-3.5-9.4-10.8-10.2c-4.1-0.4-7.4,2-9.2,4.9c-1.4,2.2-1.9,4.8-1.2,6.5
		c2.5-0.7,4.8-2.7,4.8-2.7"/>
</g>
<g>
	<line class="st1" x1="66.5" y1="22.9" x2="81.9" y2="22.9"/>
	<line class="st1" x1="66.5" y1="27.7" x2="81.9" y2="27.7"/>
	<line class="st1" x1="66.5" y1="32.9" x2="74.7" y2="32.9"/>
	<line class="st1" x1="52.4" y1="22.9" x2="60.1" y2="22.9"/>
	<line class="st1" x1="52.4" y1="27.7" x2="60.1" y2="27.7"/>
	<line class="st1" x1="52.4" y1="32.9" x2="61.6" y2="32.9"/>
	<path class="st2" d="M88.7,26.5c0,3.8-1.2,7.5-3.8,9.7c-3.7,3.1,1.6,7.1,0,7.9c-1,0.5-6.3-3.9-7.4-3.7c-0.9,0.2-1.9,0.3-2.9,0.3
		c-7.8,0-14.2-6.3-14.2-14.2s6.3-14.2,14.2-14.2S88.7,18.7,88.7,26.5z"/>
	<path class="st3" d="M63.7,40.4"/>
	<path class="st2" d="M61.6,12.3c-0.2,0-0.4,0-0.6,0c-7.8,0-14.2,6.3-14.2,14.2c0,3.8,1.2,7.5,3.8,9.7c3.7,3.1-1.6,7.1,0,7.9
		c1,0.5,6.3-3.9,7.4-3.7c0.9,0.2,1.9,0.3,2.9,0.3c0.2,0,0.4,0,0.6,0"/>
</g>
</svg>
