<?xml version="1.0" encoding="utf-8"?>
<!-- Generator: Adobe Illustrator 25.0.1, SVG Export Plug-In . SVG Version: 6.00 Build 0)  -->
<svg version="1.1" id="Слой_1" xmlns="http://www.w3.org/2000/svg" xmlns:xlink="http://www.w3.org/1999/xlink" x="0px" y="0px"
	 viewBox="0 0 100 100" style="enable-background:new 0 0 100 100;" xml:space="preserve">
<style type="text/css">
	.st0{fill:none;stroke:#223248;stroke-width:3;stroke-linecap:round;stroke-linejoin:round;stroke-miterlimit:10;}
	.st1{fill:none;stroke:#223248;stroke-width:2;stroke-linecap:round;stroke-miterlimit:10;}
	.st2{fill:none;stroke:#06ADEF;stroke-width:4;stroke-linecap:round;stroke-linejoin:round;stroke-miterlimit:10;}
	.st3{fill:none;stroke:#253246;stroke-width:2;stroke-linecap:round;stroke-linejoin:round;stroke-miterlimit:10;}
</style>
<g>
	<path class="st0" d="M40,21.8v-4.7c0-2.5,2-4.5,4.5-4.5h27.3"/>
	<path class="st0" d="M61.5,88.1h-17c-2.5,0-4.5-2-4.5-4.5V20.9"/>
	<line class="st1" x1="57.2" y1="82.9" x2="67" y2="82.9"/>
	<line class="st1" x1="57.2" y1="17.4" x2="67" y2="17.4"/>
	<path class="st0" d="M85.2,36.6V17.2c0-2.5-2-4.5-4.5-4.5H53.4"/>
	<path class="st0" d="M85.2,38.6"/>
	<path class="st0" d="M47.6,88.1h33.2c2.5,0,4.5-2,4.5-4.5v-3.2"/>
	<line class="st1" x1="68" y1="82.9" x2="58.3" y2="82.9"/>
	<line class="st1" x1="68" y1="17.4" x2="58.3" y2="17.4"/>
	<g>
		<g>
			<line class="st2" x1="66" y1="57" x2="81.1" y2="57"/>
			<line class="st2" x1="73.6" y1="49.5" x2="73.6" y2="64.5"/>
		</g>
		<circle class="st2" cx="73.6" cy="57" r="14.4"/>
	</g>
	<path class="st3" d="M77.8,32.2H48.5c-1.3,0-2.4-1.1-2.4-2.4v-1c0-1.3,1.1-2.4,2.4-2.4h29.3c1.3,0,2.4,1.1,2.4,2.4v1
		C80.3,31.1,79.2,32.2,77.8,32.2z"/>
	<path class="st3" d="M59.6,42.6H48.5c-1.3,0-2.4-1.1-2.4-2.4v-1c0-1.3,1.1-2.4,2.4-2.4h26.3"/>
	<path class="st3" d="M53.4,53.1h-4.9c-1.3,0-2.4-1.1-2.4-2.4v-1c0-1.3,1.1-2.4,2.4-2.4h8.7"/>
</g>
<polyline class="st2" points="20.2,57.2 26.1,63.1 34.3,54.5 "/>
<g>
	<path class="st0" d="M12.6,24.8V21c0-2,1.7-3.7,3.7-3.7h19.3"/>
	<path class="st0" d="M34.5,79H16.3c-2,0-3.7-1.7-3.7-3.7V24"/>
	<line class="st1" x1="32.5" y1="21.1" x2="27.6" y2="21.1"/>
</g>
<circle class="st3" cx="22.4" cy="32.9" r="3.2"/>
<line class="st3" x1="29.7" y1="32.9" x2="35.9" y2="32.9"/>
<circle class="st3" cx="22.4" cy="44.1" r="3.2"/>
<line class="st3" x1="29.7" y1="44.1" x2="35.9" y2="44.1"/>
</svg>
