<svg version="1.1" id="Layer_1" xmlns="http://www.w3.org/2000/svg" x="0" y="0" viewBox="0 0 128 128" xml:space="preserve"><style>.st1{fill:#050505}</style><switch><g><ellipse cx="89.8" cy="31.6" rx="27.8" ry="27.6" fill="#d6b2f5"/><path class="st1" d="M92.2 109.3H21.7l-.5-.2c-5.1-1.7-8.4-4.6-9.9-8.6-2.5-6.8 1.7-14.1 1.9-14.4l.4-.6.6-.4c13.1-9 11-19.5 10.9-19.9-.4-1.7.7-3.5 2.5-3.8 1.7-.4 3.4.7 3.8 2.4.1.6 3.2 14.7-12.9 26.2-.9 1.7-2.2 5.4-1.1 8.3.7 1.9 2.5 3.5 5.4 4.5h68.9c1.7-.3 5.8-1.6 6.9-4.3 1.1-2.7-.9-6.3-2.7-9l-2.2-3.1c-9.2-12.9-9.9-13.9-8.5-27.4.2-1.8 1.8-3.1 3.6-2.9 1.8.2 3.1 1.8 2.9 3.6-1.2 11.1-1.2 11.1 7.3 23l2.2 3.1c4.1 5.8 5.2 10.9 3.4 15.2-2.8 6.6-11.1 8.1-12.1 8.2l-.3.1zM28.4 60h-.3c-1.8-.1-3.1-1.7-3-3.5 0-.3 3-32.1 34.7-32.1h.6c1.8 0 3.2 1.5 3.2 3.3 0 1.8-1.5 3.2-3.3 3.2h-.5c-25.7 0-28.2 25-28.3 26.1 0 1.7-1.4 3-3.1 3z"/><path class="st1" d="M50.8 28.3c-1.7 0-3.1-1.3-3.2-3-.1-.8-.5-8.2 4.5-11.6 3.3-2.3 7.7-2.1 13.2.5 1.6.8 2.3 2.7 1.6 4.3-.8 1.6-2.7 2.3-4.3 1.6-3.1-1.5-5.6-1.8-6.8-1-1.5 1.1-1.8 4.4-1.7 5.8.1 1.8-1.2 3.3-3 3.5-.2-.1-.2-.1-.3-.1z"/><path class="st1" d="M85.6 60C70 60 57.2 47.3 57.2 31.6 57.2 16 70 3.3 85.6 3.3 101.3 3.3 114 16 114 31.6c0 1.8-1.4 3.2-3.2 3.2s-3.2-1.4-3.2-3.2c0-12.1-9.8-21.9-21.9-21.9-12.1 0-21.9 9.8-21.9 21.9 0 12.1 9.8 21.9 21.9 21.9 8 0 15.4-4.4 19.2-11.4.9-1.6 2.8-2.1 4.4-1.3 1.6.9 2.1 2.8 1.3 4.4C105.5 54.4 96 60 85.6 60zM57 124.7c-12.5 0-16.6-10.4-17-16.1-.1-1.8 1.2-3.3 3-3.5 1.8-.1 3.3 1.2 3.5 3 .1 1.1 1.1 10.5 11.3 10.1 10.4-.5 11.5-9.1 11.6-10.1.2-1.8 1.7-3.1 3.5-2.9 1.8.2 3.1 1.7 2.9 3.5-.4 5.3-4.7 15.5-17.7 16H57z"/><path d="M90.7 20v24.6h-6.9V26.1c-1.8.9-3.5 1.4-5.1 1.5v-3.2c3.6-.4 6.2-1.8 7.6-4.3h4.4z"/></g></switch></svg>