<svg version="1.1" id="Layer_1" xmlns="http://www.w3.org/2000/svg" xmlns:xlink="http://www.w3.org/1999/xlink" x="0" y="0" viewBox="0 0 967.2 359.5" xml:space="preserve"><style>@keyframes G_hand{0%,to{transform:rotate(0deg)}50%{transform:rotate(-4deg)}75%{transform:rotate(4deg)}}@keyframes handR{0%,to{transform:rotateX(0deg)}50%{transform:rotateX(50deg)}}@keyframes hairdryer{0%,to{transform:rotate(0deg)}50%{transform:rotate(4deg)}}@keyframes stethascope{0%,to{transform:rotate(0deg)}50%{transform:rotate(4deg)}}@keyframes file{0%,to{transform:rotate(0deg)}50%{transform:rotate(22deg)}}@keyframes hairs{0%,to{transform:rotateX(0deg)}50%{transform:rotateX(25deg)}}.st1{fill:#5f96cf}.st2{fill:#eaaa7e}.st3{opacity:.1;enable-background:new}.st4{fill:#c8e5f7}.st5{fill:#fff}.st6{fill:#97b7d2}.st9{fill:#e2a372}.st12{fill:none;stroke:#808184;stroke-miterlimit:10}.st13{fill:#2d4856}.st15{fill:#40739e}.st16{fill:#0b0b0b}.st17{fill:#f0846c}.st18{fill:none;stroke:#b97343;stroke-width:.75;stroke-miterlimit:10}.st19{fill:#b97343}.st20{fill:none;stroke:#b97343;stroke-linecap:round;stroke-miterlimit:10}.st21{fill:#f1a06c}.st24{fill:#466eb5}.st26{fill:#764e9e}.st27{fill:#a587be}.st28{fill:#5a3c80}.st31,.st32,.st34{opacity:.31;fill:#0086be;enable-background:new}.st32,.st34{opacity:.51;fill:#fff}.st34{opacity:.97;fill:none;stroke:#f6b54c;stroke-width:4;stroke-linecap:square;stroke-linejoin:round}.st35{fill:#c57d56}.st37{fill:#431613}.st39{fill:#234f8c}.st40,.st41{fill:none;stroke:#d0d2d3;stroke-miterlimit:10}.st41{stroke:#683d1e;stroke-width:.75}.st42{fill:#683f24}.st43{fill:#f39f72}.st53{fill:#d24052}.st54{fill:#f3a785}.st56{fill:#f7961d}.st57{fill:#bf6e29}.st58{opacity:.21;enable-background:new}.st59{fill:#343435}.st60{fill:#696a71}.st61{fill:#e18f70}</style><switch><g><defs><path id="SVGID_1_" d="M0 0h967.2v359.5H0z"/></defs><clipPath id="SVGID_2_"><use xlink:href="#SVGID_1_" overflow="visible"/></clipPath><g clip-path="url(#SVGID_2_)"><path class="st1" d="M734 355.8H623l.4-5.5.6-8.3 3.1-43 49 1.1 6.1.1 47.7 1.1L733 342l.5 6.8.5 7z"/><path class="st1" d="M622.2 267l110.6 1.4 5 80.3-120.4 1.7 4.8-83.4z"/><path class="st2" d="M667.3 115l23.6 1.5s-.4 10.5 1.3 11.4l4 8.2V155l-19.8 9.1-14.8-4.8-2.5-13.2 1.5-10.3 1-4.9 5.3-4.7c-.1-3.7 0-7.5.4-11.2z"/><path class="st3" d="M671.6 124.5c3.6.5 7.1.6 10.7.4 6.1-.5 8-2.5 8-2.5-.6-2.1 2.4 8.5 2.7 11 .3 2.1-21.4-8.9-21.4-8.9z"/><path class="st1" d="M667.3 155.2s10.1 11.3 20.7 2.5v16l-13.5 3.9-4.5-6.2-2.7-9.9v-6.3z"/><path class="st4" d="M691.8 126.2l39.7 9.6c6.2 2.1 8.7 10.8 9.6 17.6 1 7.6 2.6 11.4 4.1 22.1 0 0 6 49.4 4.5 57 0 0 .6 11.4-7.6 11.6l-10.3 1.9 17.2 96h-63l-8.2-88.6-3.2 88.6h-65.7l13.2-88.4s-8.4.2-10.1-10.1c0 0-5.3-22.6-2.1-42.4 0 0 .6-37 3.4-48.4 0 0-1.5-12.2 12.7-14.1l38.5-10.8 7.3 43.9 13.2.1 6.8-45.6z"/><path class="st5" d="M641.5 134.2l22.1-6.3 13.6 68.4-24.9-27.3 6.1-4.7h-7.7l-9.2-30.1z"/><path class="st6" d="M643.2 133.8l21.2-6.4 13.1 68.3-24-27.3 5.9-4.7H652l-8.8-29.9zM635.4 262.8h22.8s7.6 27-11.4 27.8c0 0-17.4 2.2-11.4-27.8zM696.9 262.8h22.8s7.6 27-11.4 27.8c0 0-17.5 2.2-11.4-27.8z"/><path class="st5" d="M716.5 132.2l-23.2-5.8-12.2 69.9 25-28.1-6-4.5 7.4-.2 9-31.3z"/><path class="st6" d="M714.4 131.7l-22.9-5.7-10.8 70.3 23.7-28.5-6-4.5 7.4-.2 8.6-31.4z"/><path d="M653.4 248.1l52.2 12.8 18.2-77.2-51.9-10.5-18.5 74.9z" fill="#f8e6db"/><path d="M659 244.6l42.8 11 16.9-69.6-42.7-10.5-17 69.1z" fill="#fcfdff"/><path class="st9" d="M709.9 185l-26.3-6.9.5-2 26.3 6.9-.5 2z"/><path class="st9" d="M693.2 179.2l1-5.5c.2-1.1.8-2 1.7-2.6 1.8-1.1 4.9-2.1 6.8 2.4.3.8.4 1.6.2 2.4l-1.3 5.4-8.4-2.1z"/><circle cx="698.5" cy="174.4" fill="#f9f0d9" r="1.8"/><g opacity=".4"><path class="st12" d="M677.6 184.7l34.2 8.7M676.4 188.8l34.1 8.6M675.6 192.8l34.1 8.6M674.3 196.8l34.2 8.6M674 200.8l34.2 8.6M672.3 204.8l34.1 8.7M671 208.9l34.2 8.6M670.2 212.9l34.2 8.6M669 216.9l34.1 8.6M668.2 220.9l34.1 8.6"/></g><path id="doctor-hand2" class="st2" d="M643.4 208.4s-11.7-6.2-19.4-5.7c0 0-11.2-1.7-4.5 2.4l16 6.3s-12.5-1.4-13.2-1.1-7 .3-3.4 2.9l12.8 2.4h-9.3s-5.8 2.4 0 3.9l12.4 1.1-8.6 1.9s-5.1 1.6.6 2.8c5.6 1.1.7 0 .7 0l21-2.9c0-.1 1.4-11.1-5.1-14z"/><path class="st4" d="M656.4 243.4l80.1 1.8s13.4.4 13.1-10.3l-3.7-31.7-27.9 7.4-61.6 32.8z"/><g style="animation:stethascope 3s ease infinite;transform-origin:revert;transform-box:fill-box"><ellipse class="st13" cx="699.2" cy="157.7" rx="6.6" ry="6.7"/><ellipse cx="699.2" cy="157.7" rx="4.2" ry="4.3" fill="#668791"/><path class="st13" d="M700.5 153.6l-2-2.3c-.2.2-.3.4-.3.4.6-1.9-1.5-15.4-2.6-21.8-.3-1.8-.6-3.5-.8-4.8-.3-2.1-1.3-4-2.7-5.5-2.9-3-5.8-4.9-8.7-5.7l.8-2.9c3.4 1 6.7 3.2 10 6.5 1.9 1.9 3.1 4.5 3.5 7.2.2 1.3.5 3 .8 4.8 3.3 19.4 3.3 22.9 2 24.1z"/></g><g style="animation:stethascope 3s ease infinite;transform-origin:revert;transform-box:fill-box"><path class="st13" d="M665 197.3c-.6 0-1.2-.1-1.9-.2l.5-3c1.6.3 2.8.1 3.5-.6 1-1 1-2.9.9-3.6v-21.3c0-1.9-.6-3.8-1.8-5.4-4.8-6-10.3-3.5-13.2-1.5-1.9 1.5-3 3.9-3 6.3v22.3c0 1.4.2 2.4.9 3 .9.8 2.4.7 2.4.7l.4 3c-.3 0-2.9.3-4.8-1.5-1.3-1.2-1.9-3-1.8-5.3V168c0-3.4 1.6-6.7 4.2-8.8 6.3-4.5 12.7-3.7 17.3 2.1 1.6 2.1 2.5 4.6 2.5 7.3v21c.1.7.3 4-1.8 6.1-1.2 1.1-2.6 1.6-4.3 1.6z"/><circle class="st13" cx="654.7" cy="195.8" r="1.9"/><circle class="st13" cx="662.7" cy="195.8" r="1.9"/><path class="st13" d="M660.5 159l-3-.1c.5-10.5 2-34.8 6-38.5.8-1.2 5.2-7.4 12-9.4l.9 2.9c-6.3 1.9-10.5 8.3-10.5 8.4l-.2.3-.3.2c-2.1 1.6-4.2 20.1-4.9 36.2z"/></g><path class="st6" d="M637.8 166.4c.2 3.3.3 6.5.4 9.8s.1 6.5.1 9.8c0 3.3 0 6.5-.1 9.8l-.1 4.9c-.1 1.6-.1 3.3-.2 4.9-.1-1.6-.2-3.2-.2-4.9l-.1-4.9c-.1-3.2-.1-6.5-.1-9.8 0-3.2 0-6.5.1-9.8s0-6.6.2-9.8z"/><path class="st15" d="M683.6 311.4c.2 3.2.3 6.5.4 9.8s.1 6.5.1 9.8c0 3.2 0 6.5-.1 9.8l-.1 4.9c-.1 1.6-.1 3.3-.2 4.9-.1-1.6-.2-3.3-.2-4.9l-.1-4.9c-.1-3.2-.1-6.5-.1-9.8 0-3.2 0-6.5.1-9.8s0-6.6.2-9.8z"/><path class="st6" d="M728 219.5c-3.1 1.2-6.2 2.3-9.5 3.2-3.2.9-6.4 1.7-9.7 2.2 3.1-1.2 6.2-2.3 9.5-3.2 3.2-.9 6.4-1.7 9.7-2.2zM663.5 205.1c-6 2-12.2 3.4-18.5 4 3-1 6.1-1.9 9.2-2.5 3-.6 6.2-1.1 9.3-1.5z"/><path class="st6" d="M654.5 221.9c-2-4.5-3.3-9.3-4-14.2 1 2.2 1.9 4.6 2.5 7 .7 2.4 1.2 4.8 1.5 7.2zM736 223.6c-5.6-2.5-10.9-5.7-15.9-9.3 2.8 1.2 5.5 2.7 8.2 4.2 2.7 1.5 5.2 3.2 7.7 5.1z"/><path id="Doctor-hand1" class="st2" d="M704.6 212l3.8 13.2 12.8-6.1c5.6-1.6 9.5-6.7 9.7-12.6l12.1.6h.7c.8-.2 2.8-1.2-.4-2.5l-10.7-2.8s12.8 2 13.4 1.3 4.4-.3.8-3.8l-14.9-2.3h13.9s4.8-2.9 0-4.9l-14.6.3s-3-.2 1.8-2.2l11.7-1.3s5.1-1.7.1-3.4l-17.7.9-15 22.1-7.5 3.5z"/><path class="st4" d="M627.5 225.2l77.1-13.2 3.8 13.2-79.7 27.9s-14.4 6.1-17.6-12l-1.4-8.6 17.8-7.3z"/><path class="st6" d="M702.6 227.3c-1-2.3-1.8-4.6-2.5-7-.7-2.4-1.2-4.8-1.5-7.2 1 2.2 1.9 4.6 2.5 7 .6 2.3 1.2 4.7 1.5 7.2z"/><path class="st15" d="M683.4 349.7c.2 1 .2 2.1.1 3.2s-.4 2.1-.9 3c-.2-1-.2-2.1-.1-3.2s.4-2.1.9-3z"/><path class="st15" d="M683.8 349c.9 2.2 1.1 4.5.6 6.8-.5-1.1-.7-2.2-.8-3.4-.1-1.1 0-2.2.2-3.4z"/><path class="st2" d="M704.9 82.7c-1.1-.2-2.2-.1-3.1.4-2.4-16-11.4-27.8-22.1-27.8s-19.9 12.1-22.2 28.2c-1.1-.8-2.6-1.1-3.9-.8-3.4.8-5.2 5.3-4.1 10.1 1.1 4.8 4.7 8 8.1 7.3 2.4 15.8 11.4 27.5 22.1 27.5s19.6-11.6 22-27.3c3.1.1 6.2-3 7.3-7.4 1-4.9-.8-9.4-4.1-10.2z"/><path class="st16" d="M656.6 87.7s3.3-2.2 1.2-6.3c2.5-1.3 4.1-3.9 4.3-6.7 0 0 9.5 2.1 18.6-6.5 0 0 3.6 9.7 16.3 0 0 0-.5 4.8 1.8 7.7 0 0 3 5.9 2.2 11.8 0 0 7.2-8 4.7-21.9 0 0 5.6-3.2.5-10.9 0 0-4.2-4.2-8.7 1.6 0 0-8.6-16.9-31.8-16.2 0 0-31.1 5.3-13.6 30.1.1.1 1.8 14.5 4.5 17.3z"/><g style="animation:hairs 4s ease infinite;transform-box:fill-box;transform-origin:bottom"><path class="st16" d="M685.5 41.7c1.9-.2 3.9.1 5.6 1 1.8.9 3.3 2.1 4.5 3.7 2.4 3.1 3.3 7.3 2.2 11.1-.2-1.8-.7-3.6-1.3-5.3-.6-1.6-1.5-3.2-2.5-4.6-1-1.4-2.3-2.6-3.7-3.6-1.4-1-3-1.8-4.8-2.3z"/><path class="st16" d="M703.2 49.6c-.6.4-1.3.9-1.8 1.4-.5.4-.9.9-1.3 1.5-.4.5-.8 1.1-1.1 1.7-.3.6-.6 1.3-1 2.1-.9-1.6-.7-3.6.5-5.1.6-.7 1.3-1.3 2.2-1.6.8-.4 1.7-.4 2.5 0z"/></g><circle class="st17" cx="670.5" cy="98.5" r="2.3"/><ellipse class="st17" cx="690.6" cy="98.2" rx="2.5" ry="2.6"/><path class="st18" d="M682.1 91.9l-2.9 6.5c-.2.7 0 1.5.6 2l2 .9M674.8 107.3c0 2.7 2 5 4.7 5.3 4.9 1.2 7-4.7 7-4.7"/><ellipse class="st19" cx="672" cy="85.5" rx="1.7" ry="1.8"/><ellipse class="st19" cx="690.5" cy="85.5" rx="1.7" ry="1.8"/><path class="st20" d="M653.9 89.1c-.7 1.9-.2 3.9 1.1 4.4M702.9 88.2c1.5 1.2 1.6 3.5.4 4.9"/><g><path class="st21" d="M364.2 252.2l-31.4 34.6-18.8-13.3v16.8l16.8 10.3s6.6 3.8 9.8-2.7c0 0 43.4-35.2 43.4-41l-9.9-8.1-9.9 3.4zM269.7 85.4s-5.7 30.8 9.6 56.4c0 0 .7 1.8 10.3 2.2l-4.3 10.5s-20.6 11.6-2.8 17.7c0 0 14.9 8.7 27.3-10.5l5.3-9 .4-26.6 8.9-17.5-37.2-26.1-17.5 2.9z"/><path d="M271 93.6c7.6.9 30.6 4.7 32.7 20.1l6-4s10.3-4.7 7.8 8.7l-4.2 15.5s-1.3 8.3 4.7 2.9c0 0 20.2-26.8 12.4-47.4 0 0 26.6-17.7 3.5-39.4 0 0-28.4-20.6-41.9 14.8 0 0-23.1-5.8-35.8 15.6 0 0-15.8 25.3 14.3 38.3l-1.9-22.9c0-1.2.9-2.2 2.1-2.2h.3z" fill="#282a2a"/><path d="M256.2 248.8l65.6 1.6s-5.5 45-1.5 49.9c0 0-41.1 32.8-75.5 1.4.1 0 10.9-32.5 11.4-52.9z" opacity=".97" fill="#f6b54c"/><path class="st24" d="M333.8 353.2h-44.6c-.4-1.9-1.1-4.2-1.9-5.1-.7-.8-1.6.1-2.3 5.1h-42.4c-.9-5.1-1.8-10.3-2.4-15.6 0 0-2.9-30.9 5.1-43.7 0 0 16.3 23.8 70.2 1.5 1.1-.5 2.3-1 3.5-1.5 0 0 18.5 16.5 14.8 59.3z"/><path d="M246.9 303.5c2.5 2 5.3 3.6 8.2 4.9 2.9 1.3 5.9 2.4 9 3.2 3.1.8 6.2 1.3 9.4 1.5 3.2.2 6.3.2 9.5-.1 3.2-.3 6.3-.8 9.4-1.5 1.5-.4 3.1-.7 4.6-1.2l2.3-.7 2.2-.8c6-2.2 11.8-4.9 17.3-8.2l-4.1 2.6-4.2 2.3c-1.4.7-2.9 1.5-4.3 2.1-1.5.6-2.9 1.3-4.4 1.9-6 2.4-12.3 3.9-18.7 4.5-6.4.6-12.9 0-19.1-1.7-6.4-1.6-12.2-4.6-17.1-8.8z" fill="#2e4f80"/><path class="st3" d="M333.8 353.2h-6.3c-1-17.6-6-37.4-10.2-51.6-.6-2.2-1.3-4.2-1.9-6.1 1.1-.5 2.3-1 3.5-1.5.1-.1 18.6 16.4 14.9 59.2zM287.3 345.4v2.7c-.8-.8-1.6.1-2.3 5.1h-3.2c2.5-9.5 5.5-7.8 5.5-7.8z"/><path class="st26" d="M388.3 252.6s1.2 7.2-11.2 7.6l-16.2-2.5s-6.8-7.4-4.4-12.3l2.1-.5-18-29.6-5.4-8.9-.1.2c-1.2 2.7-13.4 28.6-13 36.5l2.1 10.3s-.5 4.5-5.9 6.9c0 0-2.1.3-5.2.6-6.2.7-16.2 1.8-19.8 1.6l-23.4-2.1s5.9 21.4-12.8 26.5c0 0-.2-22.2-2.1-23.1 0 0-6.7 10.7-19.3 7.1 0 0 0-11.9 11.5-20.6 0 0-4.4-3.8-.4-9.4 0 0-1.8-19.5-3.6-19.5 0 0-4.4 10.7-9.2 13.4 0 0-6.4 7.6-17.9.9 0 0-11-7.4-1.1-20.6l41.3-62.2h20.8l8 1.8s-18.8 12.3-2.3 18c0 0 17.1 8 29.7-15.5l29.3 12.7s33.2 44.9 43 73.9c.2-.1 6.2-.5 3.5 8.8z"/><path class="st27" d="M315.1 152.7s5.9 3.3 5.3 9.6c0 0-.2 17.4-10.1 20.2 0 0-3.4-8.7-10.5-6.5 0 0-22.5 19.9-28.9 42 0 0 7.2-38.3 20.5-44.2 0 0 12.6-.7 23.7-21.1z"/><path class="st27" d="M286.8 150.7s-7-.6-12.7 1.6c0 0-12.2 8.3-8.3 18 0 0 5.9-4.2 9.8.9-.9 14.5-3.8 28.9-8.8 42.5 0 0 22.1-35.6 13.4-42.9 0 0-3.2-4.1-1.7-9 1.1-3.7 8.7-6.9 8.3-11.1z"/><path class="st28" d="M247 240.8c2.5 2.1 5.2 3.8 8.2 5 2.9 1.3 6 2.3 9.1 3 6.2 1.6 12.6 2.5 19 2.6l2.4.1h7.3c3.2-.1 6.4-.3 9.6-.5 3.2-.3 6.4-.6 9.6-1s6.4-.9 9.6-1.3c-3.2.6-6.3 1.2-9.5 1.8s-6.4.9-9.6 1.3c-1.6.2-3.2.3-4.8.4l-4.8.3h-7.3l-2.4-.1-4.8-.3-4.8-.6c-3.2-.5-6.4-1.1-9.5-2-3.1-.9-6.2-2-9.1-3.4L253 245c-.7-.4-1.4-.9-2.1-1.3-1.5-.8-2.7-1.8-3.9-2.9zM360.9 244c1.7.9 3.7 1.4 5.6 1.5 1.9.2 3.9.2 5.8 0 1 0 1.9-.2 2.9-.3l2.9-.5 2.9-.6c1-.2 1.9-.4 2.9-.6-.9.4-1.9.7-2.8 1.1-.9.3-1.9.6-2.9.8-1 .3-2 .4-2.9.6-1 .2-2 .3-3 .4-2 .2-4 .1-6-.3-2-.1-3.8-.9-5.4-2.1zM326.2 189.2c1.8 2.7 3.5 5.4 5 8.3 1.5 2.8 2.9 5.8 4.1 8.8-1.8-2.7-3.5-5.4-5-8.3-1.5-2.9-2.9-5.8-4.1-8.8zM260.4 187.3c-1.2 2.8-2.5 5.5-3.8 8.2-1.3 2.7-2.7 5.4-4.1 8.1-1.4 2.7-2.8 5.4-4.2 8l-2.2 4c-.8 1.3-1.5 2.6-2.3 3.9.6-1.4 1.2-2.8 1.9-4.1l1.9-4c1.3-2.7 2.7-5.4 4-8.1 1.3-2.7 2.8-5.4 4.3-8 1.5-2.7 3-5.4 4.5-8z"/><path class="st28" d="M270.5 212.9c-.3 2.8-.8 5.5-1.2 8.2-.5 2.7-1 5.5-1.5 8.2s-1.1 5.4-1.7 8.1l-.9 4c-.4 1.3-.7 2.7-1 4 .2-1.4.4-2.8.6-4.1l.7-4.1c.5-2.7 1-5.5 1.5-8.2s1.1-5.4 1.7-8.1c.5-2.6 1.1-5.3 1.8-8zM267.3 260.8c.4 4 .1 8.1-.8 12-.4 2-1.1 3.9-2.1 5.7-.5.9-1.1 1.8-1.8 2.5-.7.8-1.7 1.2-2.7 1.2 1-.2 1.8-.7 2.4-1.5.6-.8 1.1-1.6 1.5-2.5.8-1.8 1.4-3.7 1.8-5.6.8-3.9 1.4-7.9 1.7-11.8zM252.4 256.9c.2 1.7-.1 3.4-.9 4.9-.8 1.5-1.9 2.9-3.2 3.9-2.7 2-6.1 2.9-9.4 2.6 3.2-.3 6.2-1.5 8.8-3.4 2.6-1.9 4.3-4.8 4.7-8z"/><path class="st3" d="M322.2 243l2.1 10.3s-.5 4.5-5.9 6.9c0 0-2.1.3-5.2.6-.2-2.9-.4-6.5-.4-10.4-.2-18.1 2.1-44.4 16.8-52.6l5.6 8.8c-1.2 2.5-13.3 28.5-13 36.4z"/><g style="animation:G_hand 4s ease infinite;transform-box:fill-box;transform-origin:bottom"><path d="M257.8 133.5v11.7l-23.4 21.2c-1.2 1.1-12.6-13.7-12.6-13.7l9.4-8.6-12.1-9.5-1.7-1.3-7.7-5.8-1.8-1.3-7.4-7.3-1.6-1.6-9.1-8.4-.1-.1-16.4-17.6c5-26.5 30.3-22.9 30.3-22.9l13 19.1 1.4 2 4.3 8.1c.8 1 1.4 2 2.1 2.9 5 7.2 5.7 10.4 5.7 10.4l.5.9 4.5 7.3c.5.7 1 1.3 1.5 1.9 3.6 4.9 3.8 7.3 3.8 7.3l8.8-6.2 8.6 11.5z" fill="#434343"/><path class="st5" d="M236.4 121.1c-2.4 4.5-7.7 10.3-19.1 12.3l-7.7-5.8c5.9-1.5 16.2-5.4 20.9-15.7l4.5 7.3c.5.6 1 1.3 1.4 1.9z"/><path d="M185.4 109.5c-.2.1-.2.1 0 0z" opacity=".31" fill="#fff"/><path class="st5" d="M224.2 100.6c-1.9 6-7.6 15.7-23.9 18.4l-1.6-1.6-9.1-8.4c7.1-1.5 20.9-6.5 26.9-21.3l1.4 2 4.3 8.1c.7 1 1.4 1.9 2 2.8z"/><ellipse transform="rotate(-36.65 192.039 82.418)" class="st31" cx="192" cy="82.4" rx="16.6" ry="4.7"/><ellipse transform="rotate(-36.65 193.36 83.955)" class="st31" cx="193.4" cy="84" rx="11.5" ry="3.3"/><circle class="st32" cx="188.6" cy="78.6" r="2.1"/><ellipse class="st32" cx="192" cy="80.7" rx="3" ry="3.1"/><path class="st21" d="M246.9 155v2.2c0 2.3-.7 4.5-2.1 6.3l-3.8 5.1-3.5 45.3s1.1 18.4-14.9 19.2c0 0-10.4.5-6.4-22.8l13.6-42.1-12-10s-2.5-10 3.9-15.5c0 0 7.1-2.4 9.3 1.4l-5 4.6c-1.4 1.4-2.7 2.9-3.8 4.5l12.1 13.1 12.6-11.3z"/><path d="M229.9 168.3s-14.1 10.7-6.7 17.1c0 0 13.4 7.3 16.9-4.1l-.4 13.1s-8.2 7.9-20.7-.6c-1.5-1-2.4-2.8-2.3-4.7l.8-16.2c.1-1.7 1-3.3 2.4-4.2l5.8-3.9 4.2 3.5z" fill="#444"/></g><path class="st34" d="M292 64.8s13.5 20.1 38.3 24.6 7.9 72.6 7.9 72.6"/><path class="st34" d="M292 64.8s13.5 20.1 38.3 24.6 39.2 27.9 39.2 27.9"/><circle class="st17" cx="275.7" cy="121.9" r="2"/><circle class="st17" cx="291" cy="122.6" r="2"/><path class="st18" d="M284.3 117.6l-2.3 5.1c-.2.6 0 1.2.5 1.6l1.6.7M278.6 129.8c0 2.1 1.6 3.9 3.7 4.2 3.9.9 5.5-3.7 5.5-3.7"/><circle class="st19" cx="276.4" cy="112.5" r="1.4"/><circle class="st19" cx="290.9" cy="112.5" r="1.4"/><path class="st3" d="M295.7 143.1s3.6 1.5 9.3.2c3.6-.9 7.1-2.5 10.2-4.6 0 0-.2 11.7-.2 14.1.1 2.3-19.3-9.7-19.3-9.7z"/></g><g><ellipse transform="rotate(-18.223 799.582 121.005)" class="st35" cx="799.6" cy="121" rx="31.5" ry="36.3"/><g id="hand-pen"><path d="M910.1 188.2c-.5 0-1-.2-1.4-.6-.8-.8-.8-2.1-.1-2.9l37.7-40.2c.8-.8 2-.8 2.8-.1.8.8.8 2.1.1 2.9l-37.7 40.2c-.3.5-.9.7-1.4.7z" fill="#231f20"/><path class="st35" d="M912.5 209l6.4-8c3-1.9 6.3-3.5 9.6-4.8 4.4-1.6 7.3-5.8 7.1-10.5 0-.8-.2-1.6-.5-2.4 0 0 4.9-2.3.5-6.5 0 0 5.8-10.3-4.8-10.3l-7.4 7.3s-3 .5-3-1.4c0 0 4.8-3.7 3.8-4.3s-11.6-3-12.9 1.7l-.4 6.9-1 13.8-9 10.7 11.6 7.8z"/></g><path class="st5" d="M911.6 212l7.2-7.1-13-11.9-6.1 8 11.9 11z"/><path class="st24" d="M917.2 210.5c-16.2 25.7-39.1 45.2-45.9 50.7-1.3 1-2 1.6-2 1.6l-.1 54c.1.9.1 1.9.1 2.9 0 10.9-2.7 24.7-5.6 36.1h-75.9c-9.6-44.2-3.2-58.7-3.2-58.7 1.2-2.2 2-4.5 2.5-6.9.8-4.3.5-8.8-.9-13-.4-1.2-.9-2.4-1.6-3.6-5.3-6.4-9.9-14.8-13.8-23.1-4.5-9.7-9.2-19.8-12.3-30.1-10.7-22.4 1-31.4 1-31.4l26-20.1 6.1-4.7 18.4 17.2 3.7-20.4v-.1l9.8 3.5 12.8 4.6c14.4 1.7 19.7 23 19.7 23 7.4 19.2 9.5 42.7 9.5 42.7l35.3-37.7 1.2 1 .9.8 10.8 8.7 1.3 1.1 2.2 1.9z"/><path class="st37" d="M804.2 67.1s18.8 27.6-29.9 42.7c0 0-4.9 43.5 15.4 41.5l1.5 7s-31.7-3.3-39-30.9c0 0-5.5-21.4 11.1-47.7 0-.1 9.8-24 40.9-12.6z"/><path class="st37" d="M800.5 68.3S802 89.8 826 107c0 0 7.7 39.2-18.3 44.7l1 7.6s31.8-.9 34.5-6.8c0 0-11-13.7-7-45.2.1-.1 7.6-46.4-35.7-39z"/><ellipse transform="rotate(-19.678 770.362 118.968)" class="st35" cx="770.4" cy="118.9" rx="7.6" ry="10.5"/><path class="st35" d="M810 147.1h-20.3l2.5 23.2 17.9 11.3 8.6-2.5-8.7-32z"/><path class="st5" d="M823.5 164.3l-9.8-3.3-3.8 20.6-18.5-17.3-6.1 4.7 46.7 72.4-8.5-77.1z"/><g style="animation:file 5s ease infinite;transform-box:fill-box;transform-origin:revert"><path d="M880 257.4l-92.6 8.4 5.3 60.2 91.6-10.9-4.3-57.7z" fill="#e7954d"/><path class="st35" d="M822.4 299.1l7.6 10 9 1.4s13.8 4.5 8.3 9l-5.3.6-.1 7.5s-5.3 4.6-8.3 3.9c0 0-5.7.3-8.1-3.4 0 0-7.2.1-6.8-3.9l-.1-8-10.1-10.1 13.9-7z"/><path class="st5" d="M822.8 299.9l5.3 6.6-12.6 8.4-4-8.3 11.3-6.7z"/><path class="st24" d="M778.4 201.3l48 100.2-14.9 9.5-37.2-58.5c-1-1.5-1.8-3.2-2.5-4.9l-14.2-35.5c-.3-.7-.5-1.5-.6-2.3l-.6-6.2c-.2-2.2.4-4.4 1.7-6.1 2.4-3.1 6.5-4.2 10-2.7l5.7 2.3c2.1.7 3.7 2.2 4.6 4.2z"/><path class="st39" d="M797.5 244.7c1.8 4.2 3.7 8.4 5.4 12.7-2.1-4-4.1-8.2-6.1-12.4s-3.9-8.3-5.9-12.5c-2-4.2-3.8-8.4-5.7-12.6l-2.8-6.3c-.9-2.1-1.8-4.2-2.7-6.4 1.1 2 2.1 4.1 3.1 6.2l3 6.2c2 4.1 3.9 8.3 5.9 12.5"/></g><path class="st40" d="M826.4 189.5l-16.4-7.9M814.9 184l-4.5-2.4-6.7 15.6"/><path class="st39" d="M808.6 185.8l9.1 33.1 14.5 22.5-3-26.9-14-30-5.2-2.9-1.4 4.2zM846.1 257.8c-.7-4.6-1.2-9.1-1.8-13.7s-1-9.2-1.5-13.8c-.5-4.6-.9-9.2-1.3-13.8l-.5-6.9c-.2-2.3-.3-4.6-.5-6.9l.9 6.9.8 6.9 1.5 13.8c.5 4.6.9 9.2 1.3 13.8s.8 9.1 1.1 13.7z"/><ellipse class="st17" cx="795" cy="125" rx="2.4" ry="2.6"/><ellipse class="st17" cx="813.4" cy="125.9" rx="2.4" ry="2.6"/><path class="st41" d="M802.4 119.5l2.8 6.6c.2.8 0 1.6-.5 2.1l-1.9.9M798.4 135.1c-.1 2.7 1.8 5 4.4 5.4 4.7 1.2 6.6-4.8 6.6-4.8"/><ellipse class="st42" cx="793" cy="113.9" rx="1.6" ry="1.8"/><ellipse class="st42" cx="813.3" cy="113" rx="1.6" ry="1.8"/><path class="st3" d="M793 152.3c3.4.5 6.9.6 10.4.4 5.9-.4 7.8-2.4 7.8-2.4-.5-2 2.2 8.2 2.6 10.7.2 2-20.8-8.7-20.8-8.7z"/></g><g><path class="st39" d="M551 357.4h-41.4L499.3 312l-3.5 45.4h-51.2c-.3-23.7 1.1-58.9 10-80.5h3.3l82.9-.4 10.2 80.9z"/><path class="st43" d="M553.6 206.6l19.5-33 20.4 39s16.2 15.6-5.3 43.3l-45.8 33-1.5-26.4 29.9-30c-.1 0-13.1-18.9-17.2-25.9z"/><path d="M540.9 250.2l-1.1 4.4s7.9 86 18.8 102.8H449l8.9-80.2.1-.3c.6-2.3 4-16.3 3.4-29.4-.1-2.8-.4-5.5-1-8.2 0-.1 0-.2-.1-.3-.4-1.6-.9-3.2-1.5-4.7l-12.4-33.7-9.7 9.8s-2.7 10.3-9.4 11.3c0 0 5.5-34.9-9.1-59l.3-.6c1.7-3.8 11.5-24.2 31.8-31.4l2.1-.6 13.2-3.5 4.1-1.1s20.3 16 46.5 1.7c2.9.2 5.7.6 8.5 1.2 3.4.7 6.7 1.7 9.9 3h.1c6.3 2.5 11.9 6.4 16.5 11.4l36.9 47.2-25.7 34-12.2-10-9.3 36.2z" fill="#ef515d"/><path d="M558.6 357.4H447.2c2-13 11.2-74.7 7.9-80.5 0 0 6.1-16.4 6.2-29.4.1-2.8-.2-5.5-1-8.2l-.1-.3c.6-.8 16-22.5-7.9-108.8l13.2-3.5s7.5 48.9 37.6 48c0 0 29.5 4.8 26.9-20.3l-5.3-25.8 9.9 3h.1c.4.9 20.8 43.9 18 61.7l-11.8 56.9c0 1.1 4.6 79.5 17.7 107.2z" fill="#3e1c34"/><ellipse class="st43" cx="522.9" cy="82.6" rx="6" ry="10.6"/><path d="M468.7 52.7s-14.9-8.2-1.9-19.8l21.6-4s15.9.6 9.4 17.2c0 0 24.3 4.5 23.1 28.1 0 0 7.8 18.4-1 32.1l-.7 10.1s4.9 7.4 8.6 5.4c0 0-3.4 19.7-31.3 18.9 0 0-27-2.2-31.4-18.4 0 0-7.4-15-5.6-19.9l-.8-34.2c-.2.1.4-10.4 10-15.5z" fill="#3a3939"/><ellipse transform="rotate(-5.902 457.36 86.196)" class="st43" cx="457.3" cy="86.1" rx="6" ry="10.6"/><path class="st43" d="M473.8 98.1l-3.3-3.2c-1-.9-1.6-2.2-1.7-3.5-.2-2.8-.2-8.4 1.8-18.9 1-5.2 5.8-11.3 10.7-13.3 17.1-6.9 33.4-.7 35 15.5 0 0 6.2 12.1 0 21.9 0 0-9.7-5.4-19.7-1.5-7.5-3.8-16.5-2.6-22.8 3z"/><g style="animation:hairdryer 2s ease infinite;transform-origin:initial;transform-box:fill-box"><path class="st43" d="M427.3 221.7s-10.6 15.7-24 9.2c0 0-10.5-7.2-10.7-22.9 0 0 .5-45.9 2.4-60.8 0 0-5-4.4-7-8.8 0 0-6.5-13.9-5.5-16.9 0 0-1.3-6.2 2.1-8.5l14.7-7.7s9.9-1.8 9.4 13.2c0 0 5.2-7.5 8.4-7.9 0 0 3.6.2-.3 7.9 0 0-4.7 13.3-3.1 17 0 0 .2 20.5 4.4 26.4 3.5 4.7 16.9 37.3 9.2 59.8z"/><path d="M405.6 163.7l-7.2-19.8-12.8-32.3c-1.1-2.8-3.2-5.1-5.8-6.5l-13 1.4s-14.4-12-8.9-21.8c0 0 50.1-19.6 70.9-20.7 0 0 7.1 2.6 6.1 15.4l-30.1 15.4s2.1 66.2 4.4 67.8c-.1.1-1.2 3.2-3.6 1.1z" fill="#433c4c"/><path class="st43" d="M383.2 117.7c-.2-3.2 1.5-6.3 4.2-8 4.6-2.7 11.6-6.3 14.8-5.1 0 0 4.5-.6 4.7 4.8 0 0 2.9 7.9 1.8 14 0 0 2.6 11.1-4.5 15.1 0 0-4.9 4.1-10.4 3.8 0 0-6.7-3.9-9-14.2-.8-3.4-1.4-6.9-1.6-10.4z"/><path d="M407.7 161.9s.3.7.8 1.9c3.1 8.1 14.7 40.6 8.2 67.1h0c-1.7 7.3-5.1 14.1-10 19.8-26.2 29.8-45.6 70.6-39 82.7 0 0 0 10.6 24.1 16.1 0 0 9.8.9 15.5 7.9" fill="none" stroke="#433c4c" stroke-width="2" stroke-linecap="round" stroke-miterlimit="10"/><ellipse transform="rotate(-15.592 429.606 71.645)" cx="429.6" cy="71.7" rx="2.9" ry="5.6" fill="#5e5e5e"/></g><ellipse class="st43" cx="496.6" cy="104.4" rx="10" ry="5.2"/><path d="M489.6 101.6c-.4 2.6.6 5.2 2.5 6.9 1.8 1 7.2 1 8.9-.4 2.3-1.6 1.7-3.7 3.3-6.2-4.7.7-10.1.1-14.7-.3z" fill="#934848"/><defs><path id="SVGID_3_" d="M490.6 102.3c0 2.5 1.1 4.8 3.1 6.3 1.8.9 4 .7 5.6-.5 2.1-1.4 3.5-3.8 4.8-6.1-4.4.6-9 .7-13.5.3z"/></defs><clipPath id="SVGID_4_"><use xlink:href="#SVGID_3_" overflow="visible"/></clipPath><g clip-path="url(#SVGID_4_)"><path d="M506.3 110.7c-.1-1.6-1.2-3-2.6-3.7-1.6-.7-3.3-1.2-5.1-1.3-1.1-.2-2.3-.1-3.4.1-1.2.3-2.3.9-3.1 1.9-.4.6-.6 1.3-.7 2-.4 2.8 1.3 5.5 4 6.3 3.3.8 6.7.2 9.5-1.7" fill="#e95d5d"/></g><path class="st53" d="M558.8 217.3c1.7-2.6 3.5-5.1 5.3-7.6s3.7-5 5.5-7.4 3.8-4.9 5.7-7.3l2.9-3.6c1-1.2 2-2.4 3-3.5-.8 1.3-1.8 2.6-2.6 3.8l-2.7 3.8c-1.8 2.5-3.7 5-5.5 7.4-1.9 2.5-3.8 4.9-5.7 7.3s-3.9 4.7-5.9 7.1zM436.1 207.4c-1-3-1.8-5.9-2.7-8.9s-1.6-6-2.4-9c-.8-3-1.5-6.1-2.2-9l-1-4.6c-.3-1.5-.6-3-.9-4.6.5 1.5.9 3 1.4 4.4l1.3 4.5c.9 3 1.6 6 2.4 9s1.5 6 2.2 9.1 1.4 6 1.9 9.1zM446.2 200.1c-.5-3.1-.9-6.2-1-9.3-.2-3.1-.2-6.2 0-9.3.5 3.1.9 6.2 1 9.3.2 3.1.2 6.2 0 9.3zM468.7 136.2c2.1 1.6 4.3 3.1 6.5 4.4 2.2 1.4 4.6 2.6 7 3.6 4.7 2.2 9.8 3.6 15 4.1 7.8.8 15.6-1.6 21.7-6.7 2-1.7 3.9-3.5 5.7-5.5-3.1 4.4-7.2 7.9-11.9 10.3-2.4 1.2-4.9 2-7.6 2.5-2.6.5-5.3.6-8 .4-5.3-.6-10.4-2-15.2-4.4-4.8-2.3-9.3-5.2-13.2-8.7z"/><path d="M474.5 249.2c2.5.4 5 .8 7.5 1l7.5.9c5 .5 10 .9 15 1 5 .2 10 .1 15-.3 1.2-.1 2.5-.2 3.7-.4 1.2-.1 2.5-.3 3.7-.6 1.2-.3 2.5-.4 3.7-.7l3.6-1c-4.7 1.8-9.7 3-14.7 3.5-1.3.1-2.5.3-3.8.4l-3.8.2c-1.3.1-2.5 0-3.8.1s-2.5 0-3.8-.1c-5-.2-10.1-.6-15.1-1.3-4.8-.7-9.8-1.6-14.7-2.7zM500.3 256.2h4.7c1.6 0 3.1 0 4.7-.1 3.1-.1 6.3-.1 9.4-.4s6.3-.5 9.4-.9c.8-.1 1.6-.2 2.3-.4.8-.1 1.5-.3 2.3-.5.8-.2 1.5-.3 2.3-.5s1.5-.4 2.3-.7c-2.9 1.3-6 2.2-9.1 2.8-3.1.6-6.3 1-9.4 1.1-3.2.2-6.3.2-9.5.1-3.2.2-6.3-.1-9.4-.5z"/><ellipse class="st17" cx="507.5" cy="89.8" rx="2.8" ry="2.9"/><ellipse class="st17" cx="485" cy="89.7" rx="2.8" ry="2.9"/><path class="st18" d="M495.5 81.7l3.2 7.2c.3.8 0 1.7-.6 2.3l-2.3 1"/><ellipse class="st19" cx="505.6" cy="75.6" rx="1.9" ry="2"/><ellipse class="st19" cx="485.1" cy="75.6" rx="1.9" ry="2"/></g><g><path class="st54" d="M111.5 106.6h26s-.4 18.7 4.5 23.1c3.7 2.3 7.7 3.8 12 4.4l2 23.1-22.3 16.8-17.5-6.8-11.8-8-3.4-10.8-3-10.8v-4.4s7.9-1.2 9.9-1.6c0 .1 9.3-23.6 3.6-25zM92.2 135.2l-2.5 44.6c-3.5-.5-4.6.8-7 2.4-2.7 1.9-4.4 4.9-4.8 8.1l-4.5 23.4c-6.1 20-16.2 19.1-19.2 18.9l-.7-35.6c.6-5.4 1.4-24.4 2.1-30.6.9-7.7 5.8-18.4 5.8-18.4 6.6-13.8 30.8-12.8 30.8-12.8z"/><path d="M133.6 355.9l-4.6-27.7-.6-3.4-5.8 31H75.9l7.6-72.3c.6-7.6 1.6-12.1 2.8-14.9 2.1-5 4.4-4.2 4.4-4.2h5.4l63.8-.1h3.9c.5.7 1 1.5 1.5 2.3.4.6.7 1.3 1.1 1.9 4.5 8.5 7.9 21.2 10.4 34.8.6 3 1.1 6.1 1.6 9.2 2.4 15.7 3.8 31.6 4.6 43.2h-49.4z" fill="#3c8f7c"/><path class="st56" d="M161.9 236.9l5.5 31.5-.2.1c-3.6.9-55.8 13.8-81.3-.1 0 0 6.7-34.7 4.3-41 0 0-3.9-40.7-8.7-43.4l4.7-49 14.8-2s1 21.6 26 22.8c0 0 24.7 1.2 20.1-23.4 0 0 18.3.3 18.7 1.4.2.8 2.3 23.7 3.7 40 .8 9.1 1.4 16.2 1.4 16.2s-9.8 36.6-9 46.9z"/><path class="st57" d="M98.1 141.7c1.8 2.4 3.7 4.6 5.8 6.7 2.1 2.1 4.3 4 6.7 5.8 2.4 1.7 4.9 3.1 7.7 4.2 2.7 1.1 5.6 1.6 8.5 1.6 2.9 0 5.8-.6 8.4-1.8 2.7-1.2 5.2-2.7 7.4-4.6 4.5-3.9 8.3-8.4 11.5-13.4l-2.4 3.8c-.8 1.2-1.7 2.4-2.6 3.6-.9 1.2-1.9 2.3-2.9 3.4l-1.6 1.6-.8.8-.9.7c-.6.5-1.1 1-1.7 1.5l-1.9 1.3c-.6.4-1.3.8-1.9 1.1-.6.4-1.3.7-2 1-2.8 1.3-5.7 1.9-8.8 1.9-6.1 0-11.8-2.7-16.6-6.2-4.6-3.5-8.7-8-11.9-13z"/><path class="st58" d="M128.9 292.7v35.4l-.6-3.4-5.8 31h-6.4l5.2-28.7 7.6-34.3zM178.4 315.3c2.4 14.7 3.8 29.6 4.6 40.5h-4.5c-.2-9.7-2-21.7-4.6-33.8-.5-2.2-1-4.5-1.5-6.7-.6-2.9-1.3-5.8-2-8.6-1-3.8-1.9-7.6-2.9-11.2-2.1-7.8-4.2-14.8-5.9-20.3-.6-1.8-1.1-3.5-1.6-5l6.4-1.5c.5.7 10.1 23.6 10.5 38.1.5 2.8 1 5.7 1.5 8.5z"/><g style="animation:handR 2s ease infinite;transform-origin:revert;transform-box:fill-box"><path class="st59" d="M170.1 303.4h47.7v9.2h-47.7z"/><ellipse class="st59" cx="166.8" cy="308.6" rx="9.3" ry="17.1"/><ellipse class="st59" cx="222.8" cy="308.6" rx="9.1" ry="16.8"/><ellipse class="st60" cx="162.6" cy="308" rx="5" ry="11"/><ellipse class="st60" cx="226" cy="308" rx="4.9" ry="10.8"/><path class="st54" d="M162.3 134.7c5.8-1.3 11.9-.2 16.9 3 0 0 13.4 2.6 13.8 30.1 0 0 10.6 24.3 11 50.6V229s3.1 8.5-.1 36.6l.1 33.9s5.3 10.3 2.1 14.8c0 0-23.1 10.2-19.6-2.1.6-2.1-1.2-7 3.2-11.8l-3.4-57.7-.9-14s-11.5-14.2-14.6-45.4l-5.8-10.1-2.7-38.5z"/><path class="st61" d="M193.9 220.9c-2.3 3.5-5.1 6.6-8.4 9.3 1.1-1.8 2.4-3.4 3.8-5 1.5-1.6 3-3 4.6-4.3z"/></g><ellipse transform="rotate(-15.254 101.377 87.036)" class="st54" cx="101.4" cy="87" rx="4.2" ry="6.8"/><ellipse transform="rotate(-80.514 146.615 86.93)" class="st54" cx="146.6" cy="86.9" rx="6.8" ry="4.3"/><ellipse class="st54" cx="124.2" cy="85.5" rx="21.4" ry="31.8"/><path d="M105.1 83.5l1.1-15.3s12.8 2.5 28.2-6.4c0 0 9.3 9 7.4 22.2l3.3.4s11.5-25.5-4.6-40.3c0 0-17.8-10.1-32.4 3.4 0 0-12 5.9-7.4 33.4l4.4 2.6z" fill="#4d1a10"/><path class="st3" d="M115.5 115.9s3.9 1.6 10.2.2c4.2-1.1 8.2-3.1 11.8-5.7 0 0 0 11.8 2 15 1.4 2.1-24-9.5-24-9.5z"/><ellipse class="st17" cx="130.7" cy="91.1" rx="1.9" ry="2.1"/><ellipse class="st17" cx="116.3" cy="91.8" rx="1.9" ry="2.1"/><path class="st41" d="M124.8 86.8l-2.2 5.2c-.2.6 0 1.2.4 1.6l1.5.7M128 99c0 2.1-1.4 3.9-3.5 4.3-3.7.9-5.2-3.8-5.2-3.8"/><ellipse class="st42" cx="132.2" cy="82.3" rx="1.3" ry="1.4"/><ellipse class="st42" cx="116.3" cy="81.6" rx="1.3" ry="1.4"/><path class="st61" d="M59.1 197.7c-1-4-1.7-8.2-2.4-12.3-.6-4.1-1.1-8.3-1.4-12.5 1 4 1.7 8.2 2.4 12.3"/><g style="animation:handR 2s ease infinite;transform-origin:bottom;transform-box:fill-box"><path class="st59" d="M25 131.1h42.3v8.2H25z"/><ellipse class="st59" cx="19.8" cy="135.7" rx="9.1" ry="16.7"/><ellipse class="st60" cx="15.7" cy="135.2" rx="4.9" ry="10.7"/><ellipse class="st59" cx="74.8" cy="136" rx="8.9" ry="16.4"/><ellipse class="st60" cx="78" cy="135.2" rx="4.8" ry="10.6"/><path class="st54" d="M38 144.8s-5.5-15.9 1.1-20.8 9.5-1.8 9.5-1.8 8.7 7.2 7.6 12.3c-1.1 5.1-5.4 15.4-5.4 15.4l1.5 19.7c.7 8.3 3 16.3 7.1 23.6 5.3 9.6 11.7 23.3 8.1 28.4 0 0-5.6 11-11.4 11.4-4.2.2-10.2 3.2-16.1-13.6s-4.9-30.9-4.2-33.7c.7-2.8 2.2-40.9 2.2-40.9z"/></g><path class="st57" d="M96.1 264.4c2.6.8 5.2 1.5 7.9 2 1.3.3 2.6.5 4 .8l4 .6c5.3.8 10.7 1.2 16.1 1.3 2.7.1 5.4-.1 8.1-.2 1.3-.1 2.7-.3 4-.4l2-.2 2-.3c1.3-.2 2.7-.4 4-.6l4-.9c.6-.2 1.3-.3 2-.4l1.9-.6 3.9-1.1c-5 2-10.3 3.5-15.6 4.5l-2 .4-2 .2c-1.4.1-2.7.3-4.1.4-2.7.1-5.4.3-8.1.3-5.4-.1-10.9-.6-16.2-1.5-5.5-.9-10.8-2.3-15.9-4.3z"/><path d="M90.7 279.4c2.8 1.2 5.7 2.3 8.7 3.1 1.5.4 3 .9 4.4 1.2s3 .7 4.5 1c1.5.3 3 .6 4.5.8l4.6.6 4.6.3c.8.1 1.5.1 2.3.1h4.6l2.3-.1c1.5-.1 3.1-.1 4.6-.3l4.6-.6 1.1-.1c.4-.1.8-.2 1.1-.2l2.2-.4c6-1.2 12-3 17.7-5.3l-4.2 1.9c-1.4.7-2.8 1.2-4.3 1.7l-4.4 1.4c-.4.1-.7.2-1.1.3l-1.1.3-2.3.5c-3 .7-6.1 1.2-9.2 1.6-1.5.2-3.1.2-4.6.3l-2.3.2h-2.3c-6.2 0-12.4-.7-18.5-2-6.1-1.4-12-3.5-17.5-6.3z" opacity=".21"/><path class="st56" d="M158.9 132.7l12 1.5 1.7 53s-.7 2.3-3.7 7.3c-2.9 5-14.3-47.9-10-61.8z"/></g><path class="st26" d="M39 353.2h884.4v5.7H39z"/></g><path d="M161.9 236.9l5.5 31.5-.2.1-5-4.8a27.7 27.7 0 01-8.2-15.4c-6.1-34.3 6-51.2 6-51.2l11.6-24.3c.8 9.1 1.4 15.2 1.4 15.2s-10.4 19.1-11.1 48.9z" opacity=".08"/></g></switch></svg>