<svg xmlns="http://www.w3.org/2000/svg" width="468.999" height="350.598"><defs><clipPath id="a"><path d="M430.835 407.09a7.165 7.165 0 00-1.451 6.231 4.4 4.4 0 004.268 2.471c2.253 0 4.643-1.053 6.9-2.091a51.316 51.316 0 01-9.712-6.611z" transform="translate(-429.188 -407.09)" fill="none"/></clipPath><style>.as,.bf,.e,.n,.x,.z{fill:none}.d{fill:#e9a97e}.e{stroke:#d0806b;stroke-width:.54px}.as,.bf,.e,.n,.x,.z{stroke-miterlimit:10}.f{fill:#eaaa7e}.g{fill:#ee9d20}.w{isolation:isolate}.j{fill:#885723}.k{fill:#faa819}.l{fill:#721c37}.n{stroke:#834f28}.o{fill:#75411d}.p{fill:#f0846c}.q{fill:#8a5d3b}.s{fill:#284570}.t{fill:#020202}.v{fill:#fab98c}.w{opacity:.1}.x{stroke:#b97343}.as,.x{stroke-width:.75px}.y{fill:#b97343}.z{stroke:#ba7343}.ab{fill:#311548}.ac{fill:#4c5e7e}.ag{fill:#de846b}.ap{fill:#734422}.aq{fill:#c97060}.ar{fill:#040605}.as{stroke:#734422}.at{fill:#603b23}.av{fill:#2a5b9e}.az{fill:#f27257}.ba{fill:#50bea4}.bc{fill:#7f7f7f}.be{fill:#9f9d9e}.bf{stroke:#58595b;stroke-width:3px}</style></defs><g transform="translate(0 -6.807)"><path fill="#1a1b39" d="M160.936 6.807h186.747v136.981H160.936z"/><path fill="#fff" d="M167.31 11.483h174v127.63h-174z"/><path class="d" d="M203.479 86.397a3.794 3.794 0 013.4 3.192 3.68 3.68 0 013.353 3.642v.066a5.691 5.691 0 011.755 3.525c-.341 4.268-9.57 12.064-12.629 12.738-3.794.849-5.174 6.639-7.664 14.44s-16.252-6.326-16.252-6.326l7-11.818s-1.446-6.819-.948-10.324c.621-4.534 5.1-12.529 7.483-12.98a10.367 10.367 0 016.075 1.859c.892-1.4 5.477-8.479 8.233-10.727 3.064-2.494 7.588-7.384 8.835-6.929s1.987 2.21-.166 5.16a53.642 53.642 0 00-4.823 6.573c-.844 1.801-3.899 6.278-3.652 7.909z"/><path class="e" d="M190.205 94.899a6.4 6.4 0 001.959-4.932c.645-.356 5.477 1.186 6.407.318a2.371 2.371 0 00.768-1.949 13.7 13.7 0 00-4.491-4.031"/><path class="e" d="M195.763 91.575a4.078 4.078 0 00-3.177 2.608 1.859 1.859 0 001.385 2.717c1.84.341 8.309-1.133 8.309-1.133a11.68 11.68 0 004.368-5.392M198.371 99.789c2.371.621 7.317-.7 7.317-.7a11.7 11.7 0 004.368-5.392M202.336 103.038a11.277 11.277 0 005.273-.266"/><path class="f" d="M14.926 233.015c-.816-.261-1.005-4.652-.536-8.972.692-4.8 2.011-9.2 1.532-9.418-1.148-.294-3.936 6.8-3.936 6.8a27.774 27.774 0 01-1.394 5.06c-.071 2.181-1.133 5.762-2.76 5.25a31.47 31.47 0 01-.242-5.572s.882-3.438 1.062-5.1c.474-2.807 2.091-6.838 2.641-8.792.327-1.48-.228-1.034-.375-1.219a45.076 45.076 0 00-1.873 4.842 27.031 27.031 0 00-2.02 4.652c-.512 1.627-1.029 3.253-1.726 5.027-1.396 3.55-3.429 2.15-2.514-1.616.156-1.333.669-2.964 1.01-4.434 1.65-5.876 4.225-10.974 3.6-11.382-.792-.588-4.87 9.058-4.87 9.058s-3.5 4.325-2.257-.92a46.607 46.607 0 013.855-10.68 65.618 65.618 0 015.69-10.641c3.462-4 9.01-10.286 9.01-10.286 2.314-5.8 6.246-11.7 9.807-19.719 5.733 4.5 10.836 7.066 11.946 9.21l-1.612 3.12s-8.356 16.745-8.166 18.1c.038 1.181 1.627.512 2.641 9.7a13.027 13.027 0 01-1.19 6.1s-1.982 4.325-2.978 4.216a2.153 2.153 0 01-1.764-2.21c-.076-.849.768-2.437.877-3.433a5.33 5.33 0 00-2.475-3.471c-.948-.441-6.065 12.453-6.065 12.453s-1.285 4.064-1.579 5.217a29.771 29.771 0 00-.986 4.429s-1.026 4.773-2.353 4.631z"/><path class="g" d="M175.068 100.69l-8.209 7.659 27.392 24.181 8.143-9.622z"/><path class="f" d="M107.538 58.312v22.213l-5.283 8.882-14.654-8.882V50.459l1.077.422z"/><path d="M107.538 59.925v16.6a10.685 10.685 0 01-1.944.332c-9.129.707-17.428-10.172-18.6-24.347z" style="isolation:isolate" opacity=".19"/><path d="M87.155 77.951l-8.882 3.211-22.7 8.389s-9.622 4.439-18.495 28.871l-19.012 52.3-4.444-1.48-3.7 9.869 30.825 13.819 4.937-11.106 21.468-46.387 1.726 7.649 53.825-.36 3.671-11.979 27.638 25.665s7.156 8.636 17.271 1.973l20.235-27.145 2.713.745 8.162-9.632-27.145-22.455-8.389 7.9 2.717 4.69-8.143 5.923s-26.652-27.354-36.52-33.044l-9.134-.247-8.005-6.165-8.772 8.111z" style="isolation:isolate" fill="#ffba08"/><path class="j" d="M19.008 168.751l-3.068 9.855 25.57 13.8 3.595-9.75z"/><path class="g" d="M13.626 169.79l-3.7 9.873 30.844 13.814 4.339-9.764z"/><path class="j" d="M175.938 105.869l-6.763 7.038 21.094 20.653 6.772-8.783z"/><path class="g" d="M175.068 100.69l-8.346 8.128 27.169 24.935 8.309-10.186z"/><circle class="j" cx="2.338" cy="2.338" r="2.338" transform="translate(13.602 173.143)"/><circle class="g" cx="1.973" cy="1.973" r="1.973" transform="translate(13.967 173.508)"/><circle class="j" cx="2.338" cy="2.338" r="2.338" transform="translate(172.17 104.607)"/><circle class="g" cx="1.973" cy="1.973" r="1.973" transform="translate(172.536 104.972)"/><path class="j" d="M85.452 78.268l13.075 12.6-7.573 8.787-11.77-19.017z"/><path class="k" d="M85.993 77.192l13.07 12.6-7.825 8.228-11.514-18.452z"/><path class="j" d="M110.231 80.853l-12.24 10.21 7.977 9.926 9.812-15.877z"/><path class="k" d="M109.311 80.146l-11.32 10.912 7.825 8.223 9.964-14.175z"/><g transform="translate(65.648 18.646)"><path class="l" d="M62.235 50.406a12.837 12.837 0 01-1.233-7.355 17.229 17.229 0 00-3.143-12.456l-1.129-1.48a15.868 15.868 0 01-3.068-8.266 23.956 23.956 0 00-.085-.816c-1-8.327-6.962-14.492-13.269-14.08l-4.742.322-.6.033a21.34 21.34 0 00-13.753 6.089 6.718 6.718 0 00.711.427c2.637 1.423 6.6 1.731 6.853 5.126l.147 2.034c.194 2.613 1.423 5.217 3.353 6.217a11.856 11.856 0 012.575 1.423 7.588 7.588 0 012.077 4.126c.7 3.443.128 6.668-.071 10.039a14.929 14.929 0 00.346 4.206 14.257 14.257 0 00.659 2.12 12.88 12.88 0 002.153 3.661 8.636 8.636 0 012.466 6.236v1.794a10.737 10.737 0 00.422 3.078c1.318 4.567 5.492 7.2 8.911 4.828l8.536-5.933c3.064-2.113 3.942-7.344 1.884-11.373z"/><ellipse cx="5.99" cy="3.851" rx="5.99" ry="3.851" transform="rotate(-68.05 49.107 -13.92)" fill="#c8875c"/><ellipse class="f" cx="5.814" cy="3.737" rx="5.814" ry="3.737" transform="rotate(-68.05 49.734 -13.015)"/><ellipse class="f" cx="16.655" cy="25.912" rx="16.655" ry="25.912" transform="rotate(-20.58 36.314 -16.544)"/><path class="n" d="M29.399 34.09s0-4.633 5.548-3.837M49.502 29.021s-2.732-3.742-6.739.175"/><circle class="o" cx="1.271" cy="1.271" r="1.271" transform="translate(32.737 34.854)"/><circle class="o" cx="1.271" cy="1.271" r="1.271" transform="translate(44.873 32.003)"/><path class="n" d="M36.313 43.65s1.129 4.107 4.557 3.49c3.154-.574 3.661-4.4 3.443-5.122"/><circle class="p" cx="1.418" cy="1.418" r="1.418" transform="translate(46.926 37.832)"/><circle class="p" cx="1.418" cy="1.418" r="1.418" transform="translate(31.12 41.189)"/><path class="n" d="M39.457 32.914l3.182 6.682-2.637 1.84"/><path class="l" d="M2.989 59.443l8.56 5.933c3.419 2.371 7.588-.261 8.911-4.828a10.737 10.737 0 00.422-3.078v-1.788a8.636 8.636 0 012.452-6.236 12.88 12.88 0 002.153-3.661 13.88 13.88 0 00.659-2.12 15.124 15.124 0 00.351-4.206c-.2-3.372-.778-6.6-.076-10.039a7.559 7.559 0 012.082-4.126 11.723 11.723 0 012.57-1.426c1.9-1 3.158-3.6 3.353-6.217l.147-2.032c.251-3.4 4.216-3.727 6.853-5.131a5.971 5.971 0 00.711-.422 21.3 21.3 0 00-13.753-6.089l-.607-.033-4.742-.3c-6.307-.427-12.268 5.729-13.278 14.08-.033.266-.062.541-.085.816a15.868 15.868 0 01-3.068 8.266L5.49 28.262a17.229 17.229 0 00-3.144 12.453 12.8 12.8 0 01-1.233 7.351c-2.046 4.036-1.182 9.262 1.876 11.377z"/></g><path class="q" d="M77.391 114.49q-1.423 3.595-3 7.113c-1.043 2.347-2.139 4.671-3.244 6.99s-2.248 4.619-3.429 6.9-2.371 4.548-3.671 6.786q1.423-3.59 3-7.113c1.048-2.347 2.139-4.671 3.244-6.99s2.253-4.619 3.433-6.9 2.391-4.548 3.667-6.786zM125.496 92.704a12.182 12.182 0 012.637 2.12 14.431 14.431 0 011.982 2.779 19.919 19.919 0 012.077 6.492 38.73 38.73 0 01-.673 13.568 64.1 64.1 0 01-4.3 12.866q-1.423 3.087-3.078 6.037a63.52 63.52 0 01-3.623 5.691c1.114-1.959 2.215-3.922 3.211-5.933s1.94-4.05 2.812-6.113 1.636-4.168 2.314-6.3a62.244 62.244 0 001.74-6.469 48.719 48.719 0 00.948-6.611 33.581 33.581 0 00-.1-6.639c-.081-.545-.133-1.1-.256-1.641l-.161-.816-.209-.806c-.119-.545-.323-1.058-.474-1.589-.09-.261-.2-.512-.308-.773a7.709 7.709 0 00-.337-.759 12.776 12.776 0 00-4.206-5.107zM98.167 93.282a41.3 41.3 0 016.4 11.453 32.1 32.1 0 011.745 13.065 49.875 49.875 0 01-2.793 12.88 91.051 91.051 0 01-5.354 12c1.693-4.031 3.32-8.086 4.628-12.23l.906-3.13c.27-1.048.474-2.11.74-3.163s.375-2.134.569-3.2c.1-.531.128-1.072.185-1.608l.152-1.612a33.784 33.784 0 00-1.489-12.771 49.672 49.672 0 00-5.689-11.684z"/><path d="M69.423 142.745h53.3l10.737 85.93H44.256l12.24-34.363a26.154 26.154 0 001.518-8.4l.194-12.6a48.57 48.57 0 012.632-15.033c2.347-6.822 5.876-15.534 8.583-15.534z" fill="#3970b8"/><path class="s" d="M69.348 142.446a134.292 134.292 0 00-4.24 10.476 101.16 101.16 0 00-3.286 10.779 51.53 51.53 0 00-1.57 11.083 21.535 21.535 0 00.56 5.5 11.259 11.259 0 002.414 4.809l.123.137v.194a95.518 95.518 0 01-.948 11.533q-.4 2.845-.982 5.691c-.379 1.9-.82 3.77-1.361 5.62a60.175 60.175 0 01-4.131 10.794 41.863 41.863 0 01-2.983 4.946 32.034 32.034 0 01-3.746 4.377 36.477 36.477 0 003.538-4.519 42.309 42.309 0 002.751-5.027 60.578 60.578 0 003.841-10.775 97.271 97.271 0 002.2-11.258 98.126 98.126 0 00.873-11.382l.119.318a12.235 12.235 0 01-2.58-5.217 22.5 22.5 0 01-.55-5.729 48.3 48.3 0 011.731-11.249 100.009 100.009 0 013.561-10.765 111.49 111.49 0 014.666-10.336zM77.253 142.745c-1.551 3.438-2.983 6.928-4.24 10.476a101.585 101.585 0 00-3.299 10.774 51.528 51.528 0 00-1.57 11.083 21.577 21.577 0 00.56 5.5 11.286 11.286 0 002.433 4.809l.123.138v.175a95.352 95.352 0 01-.948 11.529q-.408 2.845-.982 5.691c-.379 1.9-.82 3.765-1.361 5.62a60.127 60.127 0 01-4.131 10.789 41.928 41.928 0 01-3.007 4.984 32.031 32.031 0 01-3.746 4.377 36.17 36.17 0 003.538-4.524 41.877 41.877 0 002.774-5.008 60.622 60.622 0 003.841-10.779 97.271 97.271 0 002.2-11.244 98.049 98.049 0 00.873-11.41l.119.313a12.207 12.207 0 01-2.58-5.217 22.439 22.439 0 01-.55-5.724 48.3 48.3 0 011.731-11.249 100.1 100.1 0 013.561-10.77 106.316 106.316 0 014.661-10.333z"/><path class="s" d="M68.452 143.693a10.845 10.845 0 011.968 5.326 9.879 9.879 0 01.062 1.451c0 .474-.081.948-.119 1.451a11.445 11.445 0 01-.294 1.423 4.522 4.522 0 01-.209.7l-.237.688a10.008 10.008 0 01-.6 1.318l-.322.65a6.638 6.638 0 01-.379.612c-.27.4-.526.806-.806 1.2s-.612.74-.92 1.1c-.157.18-.308.365-.474.541l-.512.5-1.039.977c-.735.6-1.5 1.157-2.272 1.7.635-.707 1.314-1.352 1.944-2.039l.906-1.062.474-.522c.147-.185.275-.375.413-.56.27-.379.541-.749.816-1.119s.474-.782.711-1.176c.114-.2.251-.384.351-.593l.294-.617a9.146 9.146 0 00.541-1.252 13.345 13.345 0 00.948-5.326 14.023 14.023 0 00-1.245-5.371zM75.134 148.497q5.985-.36 11.965-.541c3.988-.133 7.977-.213 11.965-.28s7.981-.085 11.974-.066 7.981.071 11.974.194q-5.985.36-11.965.545c-3.988.133-7.977.209-11.97.275s-7.977.085-11.97.066-7.98-.065-11.973-.193zM98.513 180.683q-.161 5.99-.5 11.965t-.768 11.946c-.294 3.983-.607 7.958-.972 11.932s-.768 7.943-1.242 11.908q.166-5.99.5-11.965.32-5.975.768-11.946c.294-3.979.607-7.958.977-11.932s.762-7.939 1.237-11.908z"/><path class="s" d="M103.639 171.156c-.375 1-.792 1.982-1.219 2.959s-.877 1.94-1.333 2.9-.948 1.9-1.423 2.845l-.749 1.423c-.266.474-.517.948-.8 1.389.18-.5.389-1 .588-1.489l.631-1.47c.422-.982.877-1.944 1.333-2.907s.948-1.9 1.423-2.845.999-1.89 1.549-2.805z"/><path class="t" d="M37.693 228.395h123.195v2.272H37.693z"/><g transform="translate(324.371 97.929)"><path d="M112.188 33.908c-7.227-15.114-23.432-23.655-38.982-19.5A34.69 34.69 0 0049.969.401C32.233-2.008 9.456 6.533 11.647 24.928c-5.691 12.923-4.164 30.882 7 39.423-1.968 16.864 15.114 31.973 35.264 30 8.1 11.168 22.336 17.736 35.477 15.327a61.4 61.4 0 018.778-1.527c-1.1-.218 23 15.55 39.641-12.482 16.87-28.688.222-60.884-25.619-61.761z" fill="#431613"/><path class="v" d="M36.747 44.535q-.3 8.37 0 16.75c29.284 19.918 1.9 22.682-10.8 23.18-21.815.858-41.068-10.262-8.759-23.138 4.543-1.812 5.4-23.152 5.4-23.152z"/><path class="w" d="M18.461 60.634l14.047-9.907-10.983-3.04z"/><path class="v" d="M38.602 8.509a18.438 18.438 0 0110.073 8.536c3.723 6.568 5.259 25.182-8.759 32.632-8.977 5.036-16.427 1.314-20.15-5.041a21.373 21.373 0 01-2.845-12.045c.658-11.601 4.158-27.369 21.681-24.082z"/><path class="v" d="M14.074 28.872c.873 2.845 3.064 4.818 4.818 4.382s2.409-3.286 1.314-6.35-3.068-4.818-4.818-4.382-2.191 3.283-1.314 6.35zM47.797 33.471c-1.1 3.068-.441 6.132 1.532 7.009s4.6-.877 5.914-3.941.436-6.132-1.532-7.009-4.596.881-5.914 3.941z"/><circle class="p" cx="2.106" cy="2.106" r="2.106" transform="translate(37.108 32.922)"/><circle class="p" cx="1.916" cy="1.916" r="1.916" transform="translate(21.918 29.962)"/><path class="x" d="M33.167 33.377l-1.389-.631a1.024 1.024 0 01-.474-1.266l1.541-4.344M33.935 37.73a3.661 3.661 0 01-2.779 3.827c-3.253.948-4.942-2.746-4.942-2.746"/><circle class="y" cx="1.148" cy="1.148" r="1.148" transform="translate(39.744 24.556)"/><circle class="y" cx="1.148" cy="1.148" r="1.148" transform="translate(25.067 21.697)"/><path class="z" d="M23.35 18.69s2.969-3.561 6.72.6M45.345 24.38s-.081-4.633-5.61-3.737"/></g><path d="M328.287 166.665s13.335 13.425 41.386.138c0 0 16.351-2.917 31.332 12.107 0 0 14.023 24.85 15.256 27.8 0 0 8.612 17.964-7.384 23.868l-6.165 1.233H271.32s-9.594-18.969 0-25.841c0 0 10.623.474 27.173-23.237a17.248 17.248 0 014.538-4.425c4.746-3.169 14.652-9.168 25.256-11.643z" fill="#b98389"/><path class="ab" d="M329.842 208.212c4.671-.7 9.347-1.337 14.028-1.973l14.037-1.845 14.056-1.74 7.033-.83 7.028-.782-7.009 1.015-7.014.948-14.032 1.864-14.057 1.736c-4.685.555-9.375 1.107-14.07 1.607z"/><path class="ab" d="M336.387 207.121c.1 2.11.142 4.221.18 6.331s.038 4.221.057 6.331 0 4.225-.052 6.336l-.066 3.163c-.043 1.058-.062 2.11-.119 3.168-.052-1.058-.076-2.11-.114-3.168l-.066-3.163c-.038-2.11-.038-4.221-.057-6.336s0-4.221.057-6.331.085-4.221.18-6.331zM376.815 185.805c.095 1.385.142 2.769.18 4.154s.047 2.77.057 4.154 0 2.769-.057 4.159l-.066 2.077c-.038.692-.062 1.385-.114 2.077-.057-.692-.076-1.385-.119-2.077l-.066-2.077c-.043-1.389-.047-2.774-.052-4.159s0-2.77.052-4.154.085-2.769.185-4.154zM317.603 189.006c.095 1.034.142 2.063.18 3.092s.047 2.058.057 3.092 0 2.058-.057 3.087l-.066 1.546c-.038.517-.062 1.029-.114 1.546-.057-.517-.076-1.029-.119-1.546l-.066-1.546c-.043-1.029-.047-2.058-.052-3.087s0-2.063.052-3.092.085-2.058.185-3.092z"/><path class="ac" d="M282.045 191.391h30.041a2.964 2.964 0 012.954 2.755l2.566 36.373h-34.371l-4.131-35.828a2.964 2.964 0 012.94-3.3z"/><path d="M280.774 192.667h30.033a2.959 2.959 0 012.954 2.75l2.551 36.378h-34.348l-4.135-35.828a2.959 2.959 0 012.945-3.3z" fill="#9db4c6"/><path class="v" d="M329.34 230.842s-8.626-.37-14.051-.655a67.074 67.074 0 01-11.951-3.381 47.629 47.629 0 01-10.661-4.766c-4.771-2.822.948-2.324.948-2.324s10.054 3.865 10.172 2.869c.147-.754-5.463-2.49-10.993-5.463-1.328-.811-2.9-1.589-3.984-2.433-3.443-2.011-3.03-4.515.593-3.016 1.812.749 3.381 1.532 4.951 2.31a27.505 27.505 0 004.875 1.826 44.889 44.889 0 004.922 2.072c-.033-.242.692-.337-.635-1.148-1.845-.991-5.98-2.665-8.394-4.32-1.361-1.053-4.534-2.845-4.534-2.845a32.251 32.251 0 01-3.96-4.15c.782-1.57 4.192.2 5.857 1.7a28.9 28.9 0 014.742 2.585s7.246 3 7.849 1.94c.18-.512-4.017-2.675-8.062-5.591-3.533-2.732-6.639-6.013-6.26-6.8.844-1.091 5.1 1.551 5.1 1.551a30.657 30.657 0 003.984 2.433c1.057.6 4.984 2.551 4.984 2.551s13.193 5.425 13.549 4.4a5.511 5.511 0 00-.792-4.311c-.816-.631-2.6-1.138-3.173-1.8a2.219 2.219 0 01-.37-2.893c.631-.816 5.25.8 5.25.8a13.311 13.311 0 015.345 3.486c6.084 7.313 4.458 8.01 5.3 8.882"/><path class="t" d="M267.059 229.353h151.516v2.898H267.059z"/><path class="d" d="M52.641 247.075a42.066 42.066 0 003.794 4.785c1.034 1.214 4.989 5.378 4.989 5.378s13.8 12.605 14.7 11.5a7.2 7.2 0 00.948-5.662c-.721-1.148-2.684-2.57-3.092-3.642a2.912 2.912 0 01.844-3.732c1.143-.721 6.1 3.348 6.1 3.348a17.574 17.574 0 015.017 6.691c4.2 11.732 1.9 11.856 2.532 13.316.579 1.764 20.624 17.072 20.624 17.072l3.794 2.845c-.081 3.248-4.036 5.857-8.327 14.7-9.053-7.588-18.021-8.906-24.233-14.568 0 0-10.433-4.33-17.006-7.113a88.15 88.15 0 01-13.2-9.527 62.461 62.461 0 01-10.978-10.656c-4.6-5.62 2.191-2.447 2.191-2.447s10.68 9.238 11.3 8.057c.522-.863-5.61-5.52-11.078-11.661a59.589 59.589 0 01-3.794-4.785c-3.32-4.026-1.7-6.919 2.087-3.448 1.9 1.736 3.476 3.4 5.06 5.07a36.037 36.037 0 005.217 4.443 60.148 60.148 0 005.126 4.742c.071-.308 1.005-.1-.266-1.693-1.826-2.049-6.165-5.971-8.394-9.091-1.2-1.9-4.3-5.548-4.3-5.548a42.078 42.078 0 01-3.011-6.891c1.665-1.584 5.07 2.129 6.44 4.742a37.625 37.625 0 014.681 5.306s7.588 6.948 8.783 5.914c.474-.55-3.742-5.1-7.417-10.5-3.125-4.956-5.487-10.39-4.652-11.182 1.471-.946 5.521 4.237 5.521 4.237z"/><g transform="translate(199.728 147.184)"><path class="d" d="M19.088 61.479c-.626 4.178-.759 7.55-1.2 11.538a31.094 31.094 0 01-1.247 5.914c-.844 2.694-.65 1.764-3.837 2.845-3.481.237-9.911 0-9.911 0s-2.627 5.605-2.807 6.2a3.215 3.215 0 00-.033 1.361c.745 5.691 4.268 10.609 8.318 14.649a25.873 25.873 0 007.588 5.586c4.742 2.1 10.148 1.9 15.237 1.048a62.488 62.488 0 0012.268-3.391 16.711 16.711 0 005.041-2.765c3.258-2.845 4.23-7.422 5.022-11.671a6.639 6.639 0 00-.3-4.742c-.531-.844-2.347-1.513-3.253-1.93-3.206-1.484-5.985-1.423-9.233-2.788-4.235-10.205-6.45-12.3-5.567-22.915"/><path class="d" d="M53.883 44.563L38.039 13.496c-19.026-1.048-30.63 23.593-35.3 32.613C.994 49.476-.472 53.583 1.288 56.94c1.423 2.694 4.477 4.021 7.336 5.065 8.179 2.988 39.924 10.855 45.259-17.442z"/><path d="M18.291 30.473c-3.59 2.665-12.8 3.234-13.563 5.112s.36 3.993 4.064 5.549" stroke="#b97343" stroke-miterlimit="10" fill="#e9a97e"/><path d="M58.383 14.558C53.119 4.689 27.966.269 23.655.023S14.706 1.541 12.487 5.24a6.767 6.767 0 00-.873 5.373 6.4 6.4 0 002.154 3.025 9.378 9.378 0 00-2.072 1.821 5.51 5.51 0 00-1.285 4.145c.4 2.722 3.192 4.4 5.824 5.193a23.892 23.892 0 0013 .062c-1.385 3.609-1.347 9.39 10.959 11.287a4.4 4.4 0 001.361 8.413l-2.751 9.959a9.912 9.912 0 00-.474 5.24 7.374 7.374 0 005.169 4.562c3.4 1.067 12.221-3.685 13.5-9.622.014-.015 11.689-20.777 1.384-40.14z" fill="#75342d"/><path class="ag" d="M18.894 64.665c4.159.308 15.607.261 16.1.474a14.664 14.664 0 01-5.359 1.584c-3.13.507-7.54.726-10.817 1.005"/><circle class="p" cx="3.429" cy="3.429" r="3.429" transform="translate(20.212 41.821)"/><circle class="y" cx="1.209" cy="1.209" r="1.209" transform="translate(25.708 33.124)"/><circle class="y" cx="1.209" cy="1.209" r="1.209" transform="translate(14.317 27.76)"/><path d="M5.454 45.871a7.165 7.165 0 00-1.451 6.231 4.4 4.4 0 004.268 2.471c2.253 0 4.643-1.053 6.9-2.091a51.316 51.316 0 01-9.712-6.611z" fill="#934848"/><g transform="translate(3.807 45.871)" clip-path="url(#a)"><path d="M9.717 10.057a3.41 3.41 0 00-1.423-3.073A9.641 9.641 0 004.837 5.49a6.767 6.767 0 00-2.4-.285A3.86 3.86 0 00.014 6.334a3.343 3.343 0 00-.716 1.423 4.4 4.4 0 002.091 5.16 7.967 7.967 0 006.943-.3" fill="#e95d5d"/></g><path class="d" d="M39.191 47.403a2.779 2.779 0 013.191-.218 3.675 3.675 0 011.684 2.845 5.44 5.44 0 01-.854 3.253 6.521 6.521 0 01-5.544 3.163 5.4 5.4 0 01-5-3.727"/><path d="M41.344 49.044c.062-.526-.474-.948-1.005-1.01a2.983 2.983 0 00-1.508.441.948.948 0 00-.512.427.986.986 0 00-.038.474 3.281 3.281 0 01-.322 2.011 3.385 3.385 0 01-1.072.948 2.907 2.907 0 01-1.674.626c-.607-.038-1.214-.6-1.058-1.186" stroke="#de846b" stroke-width="1.62" stroke-miterlimit="10" fill="none"/><path class="ag" d="M38.37 56.265c-1.9.138-5.164.156-5.942-1.9a3.827 3.827 0 00.74 2.537 5.954 5.954 0 001.684 1.1 3.661 3.661 0 003.32.185"/></g><path d="M208.966 228.106s10.518 27.349 39.973 4.557c0 0 15.076 7.014 19.282 10.869 0 0 16.83 26.3 12.975 52.6 0 0 2.807 14.725-11.922 18.585s-1.75 0-1.75 0l-164.8-.726-22.441-9.821 11.244-29.8 44.53 10.518 36.089-46.987s4.563-6.314 36.82-9.795z" style="isolation:isolate" fill="#fe5f55"/><path class="ab" d="M184.515 285.488c5.449-.792 10.907-1.537 16.366-2.272l16.385-2.143 16.4-2.034 8.2-.982 8.209-.949-8.181 1.162-8.185 1.11-16.385 2.144-16.4 2.034c-5.464.659-10.932 1.313-16.409 1.93z"/><path class="ab" d="M190.485 284.293c.375 2.438.7 4.88 1.015 7.322s.588 4.889.882 7.336.541 4.894.778 7.346l.351 3.68c.1 1.228.218 2.452.3 3.685-.194-1.219-.356-2.442-.536-3.661l-.474-3.661c-.313-2.442-.588-4.889-.887-7.336s-.536-4.9-.773-7.351-.476-4.903-.656-7.36zM239.322 259.325c.095 1.612.142 3.229.18 4.847s.052 3.234.057 4.851 0 3.23-.057 4.847l-.066 2.425c-.038.806-.062 1.612-.114 2.423-.052-.811-.076-1.617-.119-2.423l-.066-2.428c-.043-1.617-.047-3.23-.052-4.847s0-3.234.057-4.851.08-3.232.18-4.844zM176.358 262.492c.095 1.617.142 3.23.18 4.847s.052 3.234.057 4.851 0 3.234-.057 4.851l-.066 2.423c-.038.806-.062 1.617-.114 2.423-.052-.806-.076-1.617-.119-2.423l-.066-2.423c-.043-1.617-.047-3.234-.052-4.851s0-3.234.057-4.851.08-3.23.18-4.847z"/><path class="ac" d="M112.916 312.728l-7.071-37.791a1.423 1.423 0 011.423-1.712h67.853a1.423 1.423 0 011.423 1.219l6.037 38.285z"/><path d="M112.773 313.747l-6.938-37.793a1.446 1.446 0 011.423-1.707h66.453a1.446 1.446 0 011.423 1.224l5.89 38.28z" fill="#9ab6c6"/><circle cx="7.426" cy="7.426" r="7.426" transform="translate(137.381 286.569)" fill="#6a8099" opacity=".35"/><path class="d" d="M190.747 287.931l-13.227-7.28 1.143 7.279s2.371 2.106-16.669 0c0 0-3.974-1.987-3.386 3.623 0 0-4.794.232-1.171 5.378 0 0-3.125 1.518-1.389 4.088a22.285 22.285 0 004.4 4.5 7.053 7.053 0 012 3.23c.365 3.5.365 3.5 6.791 4.9 0 0 22.91.237 22.91 0s-1.402-25.718-1.402-25.718z"/><circle cx="6.777" cy="6.777" r="6.777" transform="translate(138.031 287.219)" fill="#c2ceda"/><path class="ab" d="M198.988 283.591c.384 2.547.721 5.107 1.048 7.664s.616 5.117.925 7.678.564 5.126.816 7.692l.37 3.846c.109 1.285.228 2.57.322 3.856-.2-1.271-.37-2.551-.55-3.827l-.5-3.837c-.327-2.556-.616-5.117-.948-7.678s-.564-5.126-.816-7.692-.477-5.155-.667-7.702zM98.84 276.677c-.749 2.471-1.546 4.922-2.371 7.37l-2.471 7.332c-.825 2.447-1.7 4.866-2.575 7.289l-1.318 3.637c-.474 1.2-.9 2.414-1.371 3.614.37-1.233.768-2.461 1.148-3.689l1.2-3.68c.806-2.447 1.65-4.885 2.475-7.327s1.7-4.87 2.575-7.294 1.774-4.848 2.708-7.252z"/><path class="t" d="M286.664 316.403H53.822v-2.751h232.842z"/><path class="ap" d="M159.404 291.681c1.143.27 2.272.578 3.4.892s2.248.659 3.372.986 2.234.693 3.348 1.058 2.219.745 3.32 1.152c-1.143-.27-2.272-.579-3.4-.892s-2.248-.654-3.372-.982-2.234-.693-3.348-1.062-2.22-.744-3.32-1.152zM157.521 297.87c1.138.27 2.272.579 3.4.9s2.248.654 3.372.982 2.234.692 3.348 1.062 2.219.74 3.32 1.152c-1.143-.27-2.272-.578-3.4-.891s-2.248-.659-3.372-.986-2.238-.692-3.348-1.062-2.22-.735-3.32-1.157zM161.282 306.605c1.162.152 2.319.346 3.471.541s2.3.422 3.457.635 2.3.474 3.438.711 2.286.512 3.419.806c-1.162-.152-2.319-.341-3.471-.541s-2.3-.422-3.457-.631-2.3-.474-3.438-.716-2.286-.511-3.419-.805z"/><path class="ab" d="M205.447 229.5a27.785 27.785 0 003.253 5.971 24.768 24.768 0 004.581 4.937 20.167 20.167 0 005.786 3.32 20.546 20.546 0 006.549 1.233 26.2 26.2 0 006.677-.616l.83-.161c.275-.057.541-.142.816-.213l1.631-.446c.541-.156 1.067-.36 1.6-.541s1.081-.346 1.6-.564a79.827 79.827 0 0012.145-6.165 61.123 61.123 0 01-11.856 6.853 59.62 59.62 0 01-3.229 1.209l-1.66.474c-.28.081-.555.171-.835.237l-.844.185a26.973 26.973 0 01-6.9.683 21.285 21.285 0 01-6.824-1.342 20.081 20.081 0 01-5.947-3.595 24.992 24.992 0 01-7.374-11.457z"/><g transform="translate(341.591 207.567)"><path class="aq" d="M31.353 20.966c5.8 4.87 4.173 14.146 2.784 21.34-3.249 16.47-16.93 20.179-22.73 19.481S-1.117 50.192.974 38.597a90.7 90.7 0 014.173-15.541 11.255 11.255 0 0110.205-7.654 25.343 25.343 0 0116.001 5.564z"/><path class="ar" d="M33.896 42.766c1.39-5.1 3.248-4.173-.474-6.957-3.941-2.784 2.551-10.433-1.39-13.686-4.628-3.955-28.055 6.478-31.536-5.8C-2.046 7.256 5.366 2.172 16.501.782a66.712 66.712 0 0113.7-.7c11.135.474 24.356 7.886 23.427 22.265s-21.34 32.471-21.34 32.471a111.316 111.316 0 011.608-12.052z"/><path class="aq" d="M37.381 31.631c-2.091-.474-4.178 2.091-4.643 5.567s.7 6.265 2.784 6.729 4.178-2.091 4.638-5.567-.692-6.264-2.779-6.729z"/><circle class="p" cx="2.551" cy="2.551" r="2.551" transform="translate(5.75 36.886)"/><circle class="p" cx="2.319" cy="2.319" r="2.319" transform="translate(19.987 40.196)"/><path class="as" d="M15.349 45.532l-1.627-.692a1.546 1.546 0 01-.474-1.627l2.319-5.1M19.062 50.639s-1.627 4.638-5.567 3.708a4.268 4.268 0 01-3.713-4.173"/><circle class="at" cx="1.394" cy="1.394" r="1.394" transform="translate(10.241 29.521)"/><circle class="at" cx="1.394" cy="1.394" r="1.394" transform="translate(21.609 31.845)"/><path class="aq" d="M39.165 76.025s-.384.346-1.1.9c-3 2.276-11.77 8.062-22.332 6.355-4.709-.7-8.887-11.595-8.887-11.595l5.482-11.14 20.933-16.237 1.555 8.346z"/><path class="w" d="M8.634 69.219l12.98 1.9-9.2-10.566M39.163 76.024s-.384.346-1.1.9l-3.946-23.863.692-.4z"/></g><path d="M350.225 274.106s3.727 17.879 30.531 2.779l28.031 12.121s16.6 27.183 17.741 45.682c0 0 5.662 15.65-2.641 20.1H269.094s-5.283-13.682 2.641-25.011l38.128-46.437a233.51 233.51 0 0140.362-9.234z" fill="#6c81c0"/><path class="av" d="M341.888 275.358a29.4 29.4 0 003.49 6.435 26.446 26.446 0 004.927 5.33 21.758 21.758 0 006.236 3.581 22.233 22.233 0 007.057 1.333 28.522 28.522 0 007.2-.664l.9-.175c.294-.066.583-.157.877-.232l1.759-.474c.583-.171 1.152-.394 1.731-.588s1.157-.37 1.722-.612a84.538 84.538 0 0013.07-6.639 66.079 66.079 0 01-12.8 7.351c-.564.261-1.152.446-1.731.673s-1.157.446-1.745.631l-1.788.522c-.3.085-.593.185-.9.256l-.911.194a28.673 28.673 0 01-7.422.73 22.643 22.643 0 01-7.341-1.423 21.583 21.583 0 01-6.393-3.855 25.37 25.37 0 01-4.837-5.634 29.254 29.254 0 01-1.783-3.248 23.174 23.174 0 01-1.318-3.492zM341.618 329.634q7.114-1.181 14.227-2.181 7.113-1.024 14.227-1.9c4.742-.588 9.485-1.186 14.265-1.717s9.523-1.029 14.3-1.451q-7.116 1.193-14.229 2.193-7.114 1.017-14.227 1.9c-4.742.593-9.485 1.181-14.265 1.712s-9.522 1.022-14.298 1.444z"/><path d="M348.257 328.529c.2 2.144.3 4.268.37 6.426s.095 4.268.1 6.426-.028 4.268-.1 6.421-.171 4.268-.37 6.426c-.194-2.143-.3-4.268-.37-6.426s-.095-4.268-.1-6.421.033-4.268.1-6.426.199-4.286.37-6.426z" fill="#3c8f7c"/><path class="av" d="M389.268 306.904c.2 1.423.3 2.807.37 4.216s.095 2.807.1 4.216-.028 2.807-.1 4.216-.171 2.812-.37 4.216c-.194-1.423-.3-2.812-.37-4.216s-.095-2.812-.1-4.216.028-2.812.1-4.216.176-2.812.37-4.216zM323.246 305.88c.194 1.423.3 2.812.365 4.216s.1 2.812.109 4.216-.029 2.812-.1 4.216-.175 2.812-.37 4.216c-.2-1.423-.3-2.812-.37-4.216s-.1-2.812-.1-4.216.028-2.812.1-4.216.167-2.793.366-4.216zM355.717 327.893c.194 2.243.3 4.481.37 6.724s.095 4.482.1 6.725-.028 4.482-.1 6.725-.171 4.482-.37 6.725c-.2-2.243-.3-4.486-.37-6.725s-.095-4.482-.1-6.725.029-4.482.1-6.725.175-4.481.37-6.724z"/><path class="ac" d="M309.403 322.668h24.043a1.058 1.058 0 011.043.887l5.06 30.64h-25.958l-5.217-30.284a1.058 1.058 0 011.029-1.242z"/><path d="M309.399 323.768h23.266a1.058 1.058 0 011.043.891l4.894 30.635H313.43L308.351 325a1.062 1.062 0 011.048-1.233z" fill="#7792b0"/><path class="aq" d="M348.56 330.938l-13.843-6.122.564 6.122s2.139 1.93-19.671 0c0 0-4.548-1.826-3.879 3.32 0 0-5.482.213-1.337 4.937 0 0-3.58 1.423-1.589 3.761a23.648 23.648 0 005.036 4.126 6.443 6.443 0 012.291 2.964c.417 3.215.417 3.215 7.777 4.5 0 0 26.22.218 26.22 0s-1.569-23.608-1.569-23.608z"/><path class="t" d="M434.742 357.405H257.171v-2.746h177.571z"/><path class="ap" d="M312.121 334.229c.986.228 1.963.474 2.94.754s1.94.564 2.912.844 1.93.6 2.893.92 1.9.65 2.845 1.015c-.987-.223-1.963-.474-2.94-.754s-1.944-.56-2.912-.844-1.93-.6-2.893-.92-1.905-.65-2.845-1.015zM310.494 339.578c.986.223 1.963.474 2.94.749s1.94.564 2.912.844 1.93.6 2.893.948 1.9.645 2.845 1.01c-.986-.223-1.963-.474-2.94-.749s-1.944-.564-2.912-.844-1.935-.6-2.893-.925-1.901-.673-2.845-1.033zM315.203 348.243c1.005.123 2 .28 3 .446s1.987.365 2.983.545 1.982.4 2.969.621 1.973.446 2.95.711c-1.005-.119-2.006-.28-3-.446s-1.987-.36-2.983-.541-1.982-.4-2.969-.626-1.973-.44-2.95-.71z"/><path class="aq" d="M339.005 326.779s13.089-11.329 27.183-10.068l10.827-2.015s4.031.754 0 4.026l-3.016 2.016s7.3 5.79 8.3 8.811c0 0-.991 5.032-5.273 2.011 0 0 2.253 9.314-5.3 4.268l-4.529-3.794 2.926 6.369s-1.2 5.567-6.355-.6c0 0-.1 4.3-6.388 0l-8.826-6.241-6.8.251z"/><path class="ap" d="M368.345 322.881c.778.669 1.522 1.37 2.267 2.072s1.465 1.423 2.2 2.144 1.423 1.451 2.139 2.2 1.423 1.489 2.072 2.267c-.773-.673-1.522-1.371-2.262-2.072s-1.465-1.423-2.2-2.144-1.423-1.456-2.139-2.2-1.404-1.494-2.077-2.267zM361.123 326.044c.579.474 1.133.986 1.688 1.494s1.086 1.039 1.622 1.565 1.053 1.067 1.56 1.622 1.02 1.1 1.5 1.688c-.583-.474-1.138-.986-1.688-1.494s-1.086-1.039-1.622-1.565-1.057-1.067-1.565-1.622-1.016-1.108-1.495-1.688zM356.3 329.9c.673.612 1.323 1.252 1.963 1.9s1.271 1.295 1.9 1.954 1.238 1.328 1.84 2.011 1.2 1.361 1.769 2.072c-.678-.607-1.323-1.247-1.968-1.9s-1.271-1.295-1.9-1.954-1.238-1.328-1.835-2.011-1.2-1.361-1.769-2.072z"/><path fill="#603392" d="M190.205 29.48h47.262v6.312h-47.262z"/><path class="az" d="M190.205 38.974h33.163v6.165h-33.163z"/><path class="ba" d="M190.205 48.809h19.315v5.33h-19.315z"/><path class="ar" d="M326.124 53.646h-47.262v-6.312h47.262z"/><path class="k" d="M326.124 44.152h-33.163v-7.346h33.163z"/><path fill="#3970b7" d="M326.125 34.317H306.81v-5.33h19.315z"/><path class="az" d="M247.843 69.931a13.108 13.108 0 01-12.724 13.108h-.394a13.116 13.116 0 110-26.232h.394a13.108 13.108 0 0112.724 13.124z"/><path class="ba" d="M247.844 69.931a13.108 13.108 0 01-12.724 13.108V56.828a13.108 13.108 0 0112.724 13.103z"/><path class="bc" d="M301.441 66.707h-47.262v-3.154h47.262zM301.441 71.511h-47.262v-3.154h47.262zM301.441 76.319h-47.262v-3.154h47.262zM301.441 96.427h-47.262v-3.154h47.262zM301.441 101.235h-47.262v-3.154h47.262zM301.441 106.044h-47.262v-3.154h47.262z"/><g><path d="M236.097 99.845v13.212a3.61 3.61 0 01-.394 0 13.117 13.117 0 01-13.112-13.117v-.109z" fill="#fba919"/><path class="az" d="M248.821 99.845h-26.23a13.108 13.108 0 0113.1-13h.394a13.112 13.112 0 0112.736 13z"/><path class="ba" d="M248.821 99.845h-12.724V86.851a13.113 13.113 0 0112.724 12.994z"/><path class="k" d="M248.821 99.845v.109a13.108 13.108 0 01-12.724 13.1V99.845z"/></g><circle class="be" cx="3.154" cy="3.154" r="3.154" transform="translate(181.029 28.972)"/><circle class="be" cx="3.154" cy="3.154" r="3.154" transform="translate(181.029 38.348)"/><circle class="be" cx="3.154" cy="3.154" r="3.154" transform="translate(181.029 47.718)"/><circle class="be" cx="3.154" cy="3.154" r="3.154" transform="translate(328.633 27.44)"/><circle class="be" cx="3.154" cy="3.154" r="3.154" transform="translate(328.633 36.811)"/><circle class="be" cx="3.154" cy="3.154" r="3.154" transform="translate(328.633 46.187)"/><path class="bf" d="M210.057 124.781h106.412M209.16 129.808h106.412"/></g></svg>