<svg xmlns="http://www.w3.org/2000/svg" width="647.787" height="415.62"><defs><clipPath id="a"><path d="M465.928 266.73a8.881 8.881 0 002.159 7.637 5.465 5.465 0 006.087.13c2.452-1.366 4.413-3.921 6.237-6.394a63.641 63.641 0 01-14.483-1.373z" transform="translate(-465.771 -266.73)" fill="none"/></clipPath><style>.ac,.au,.c,.z{fill:none}.c{stroke:#a2a5aa;stroke-width:3px}.ac,.au,.c,.z{stroke-miterlimit:10}.f{fill:#e9a97e}.g{opacity:.1;isolation:isolate}.ac,.z{stroke:#b97343}.j{fill:#f0846c}.k{fill:#b97343}.r{fill:#4c4c4c}.s{fill:#f6a11c}.au{stroke-width:2px}.u{fill:#514d45}.v{fill:#6c81bf}.x{fill:#204983}.y{fill:#721c37}.z{stroke-width:1.03px}.ac{stroke-width:.75px}.ag{fill:#452b77}.ai{fill:#4b3180}.am{fill:#534e5a}.ao{fill:#fff}.au{stroke:#fff}</style></defs><g transform="translate(1.5)"><path d="M40.647 414.099s-58.7-125.222-1.366-188.868a22.065 22.065 0 004.42-21.621c-8.2-25.132-14.455-84.46 77.322-139.451 0 0 153.154-133.46 270.391-15.4a68.36 68.36 0 0036.034 19.038c58.488 10.862 210.55 48 179.509 136.521a48.646 48.646 0 00-1.8 24.941c8.047 43.651 27.6 174-23.718 184.844z" fill="#d5c4e3"/><path class="c" d="M44.199 415.115s-.2-.553-.546-1.612"/><path d="M42.607 410.244c-8.238-26.334-42.435-151.836 40.181-190a92.9 92.9 0 0017.372-10.452c10.718-8.2 32.3-18.82 54.56 3.846" stroke-dasharray="5.02 5.02" stroke-miterlimit="10" stroke="#a2a5aa" stroke-width="3" fill="none"/><path class="c" d="M155.909 214.873c.383.417.765.833 1.148 1.264 0 0-.328.519-.97 1.4"/><path d="M154.002 220.249c-6.3 7.733-21.757 23.1-40.925 16.449a179.658 179.658 0 00-29.149-7.712c-33.193-5.574-85.492-11.982-83.893-73.66 0 0 44.122-234.5 318.093-92.221 0 0 47.2 40.8 109.333 20.924l.622-.164c21.381-6.059 19.428-37-2.514-40.55-22.386-3.648-61.125-5.205-91.121 18.389a20.049 20.049 0 001.687 32.639c28.486 18.137 89.187 44.45 183.075 24.182 0 0 149.677 2.582 90.362 137.306 0 0-18.2 43.624-58.283 39.983a18.869 18.869 0 01-14.619-28.09c8.546-15.1 26.894-31.847 66-28.2q2.172.191 4.427.485c72.13 9.2 35.993 175.506-72.246 166.68" stroke-dasharray="5.01 5.01" stroke-miterlimit="10" stroke="#a2a5aa" stroke-width="3" fill="none"/><path class="c" d="M533.132 406.487q-.854-.082-1.7-.184"/><path class="f" d="M232.48 237.914c-.43-1.3 1.428-1.277-1.216-11.613a15.165 15.165 0 00-3.607-6.059s-3.723-3.791-4.679-3.231a2.637 2.637 0 00-.9 3.17c.26.95 1.742 2.288 2.254 3.32a6.64 6.64 0 01-1.113 4.83c-.792.9-11.066-10.759-11.066-10.759s-2.91-3.812-3.661-4.918a35 35 0 01-2.767-4.345s-2.924-4.686-4.208-3.948c-.683.635.847 5.465 3.04 9.912 2.616 4.877 5.7 9.038 5.3 9.482-1.038.827-6.674-5.595-6.674-5.595a31.488 31.488 0 00-3.416-4.843c-.943-2.323-3.416-5.718-4.871-4.447a37.881 37.881 0 001.995 6.114s2.254 3.32 3.095 5.035c1.6 2.814 4.83 6.449 6.148 8.314.922 1.448.191 1.216.116 1.482a47.821 47.821 0 01-3.812-4.4 29.858 29.858 0 01-3.894-4.1c-1.161-1.53-2.329-3.054-3.737-4.659-2.821-3.211-4.3-.806-1.879 2.855.683 1.366 1.838 2.9 2.732 4.345 4 5.608 8.621 9.973 8.15 10.684-.546.984-8.491-7.624-8.491-7.624s-5.24-3.122-1.9 1.988a52.059 52.059 0 008.136 9.816 71.208 71.208 0 009.973 8.962c5.076 2.78 13.177 7.111 13.177 7.111s15.863-3.9 7.775-16.879z"/><path class="f" d="M286.24 284.653l.874 9.461a3.58 3.58 0 00.253.963c1.68 4.16-1.858 9.133-4.269 11.763-1.025 1.127-1.53 2.534-2.644 1.53l-61.835-55.974a3.176 3.176 0 01-.389-4.222l7.514-10.1a2.678 2.678 0 013.682-.683c.779.519 1.749 1.175 2.876 1.947 12.364 8.423 39.621 30.378 48.009 36.888a2.731 2.731 0 01.519.526l4.782 6.292a3.162 3.162 0 01.628 1.605zM335.569 189.672c.041 5.253.594 9.406.861 14.345a34.419 34.419 0 01-.437 7.514c-.587 3.5-.519 2.316-4.72 4.427-4.782 1.161-13.806 2.48-13.806 2.48s-2.432 7.514-2.555 8.272a3.552 3.552 0 00.253 1.667c2.282 6.736 8.279 11.879 14.8 15.8a36.751 36.751 0 0011.791 4.912c7.043 1.366 14.55-.2 21.457-2.528a98.731 98.731 0 0016.34-7.207 24.893 24.893 0 006.421-4.638c3.914-4.276 4.263-10.117 4.433-15.493a7.316 7.316 0 00-1.453-5.72c-.922-.9-3.6-1.257-4.953-1.544-4.782-1-8.648-.219-13.478-1.086-8.136-11.4-11.674-13.4-12.774-26.573"/><path class="g" d="M336.013 196.333c5.916-1.3 21.382-7.842 22.16-7.719-1.783 2.179-3.682 6.148-6.244 7.33-4.1 2.254-11.107 6.148-15.5 8.109"/><g transform="translate(300.6 113.783)"><path class="f" d="M68.509 38.004L32.7 13.76C11.414 24.007 13.573 57.718 13.907 70.308c.123 4.7.984 10.035 4.912 12.624 3.149 2.049 7.268 1.687 11 1.107 10.669-1.653 49.832-12.146 38.69-46.035z"/><path d="M21.429 44.015c-2.3 5.041-11.975 11.189-11.668 13.662s2.787 4.1 7.74 3.586" stroke="#b97343" fill="#e9a97e" stroke-miterlimit="10"/><path d="M55.421 2.733c-11.613-7.569-41.574 2.732-46.4 5.014s-8.812 7.009-9 12.364a8.4 8.4 0 002.275 6.353 7.924 7.924 0 004.147 1.995 11.492 11.492 0 00-1.161 3.217 6.872 6.872 0 001.086 5.274c2.049 2.732 6.1 2.855 9.434 2.145a29.626 29.626 0 0014.154-7.719c.683 4.748 4.16 11 18.656 5.69a5.465 5.465 0 006.517 8.313l2.965 12.433a12.344 12.344 0 002.623 5.977 9.133 9.133 0 008.348 1.851c4.331-.874 11.06-11.312 8.881-18.533.014.003.278-29.542-22.525-44.374z" fill="#252839"/><circle class="j" cx="3.108" cy="3.108" r="3.108" transform="translate(32.981 53.75)"/><circle class="k" cx="1.496" cy="1.496" r="1.496" transform="translate(31.607 41.549)"/><circle class="k" cx="1.496" cy="1.496" r="1.496" transform="translate(16.032 42.54)"/><path d="M16.709 68.423a8.881 8.881 0 002.159 7.637 5.465 5.465 0 006.087.13c2.452-1.366 4.413-3.921 6.237-6.394a63.641 63.641 0 01-14.483-1.373z" fill="#934848"/><g transform="translate(16.553 68.423)" clip-path="url(#a)"><path d="M14.945 6.08a4.235 4.235 0 00-3.381-2.48 11.77 11.77 0 00-4.652.444 8.238 8.238 0 00-2.78 1.134 4.782 4.782 0 00-1.954 2.671 4.052 4.052 0 00.068 1.961 5.465 5.465 0 005.356 4.351 9.891 9.891 0 007.357-4.488" fill="#e95d5d"/></g><path class="f" d="M54.28 49.884a3.463 3.463 0 013.34-2.152 4.563 4.563 0 013.525 2.049 6.762 6.762 0 011.018 4.051 8.067 8.067 0 01-4.1 6.749 6.708 6.708 0 01-7.664-1.052"/><path d="M57.573 50.375a1.271 1.271 0 00-1.694-.5 3.7 3.7 0 00-1.366 1.366 1.258 1.258 0 00-.3.779 1.313 1.313 0 00.246.533 4.1 4.1 0 01.847 2.37 4.159 4.159 0 01-.588 1.674 3.621 3.621 0 01-1.441 1.687 1.366 1.366 0 01-1.865-.683" stroke="#de846b" stroke-width="1.62" stroke-miterlimit="10" fill="none"/><path d="M59.254 60.274c-2.159.929-5.984 2.282-7.719.212a4.734 4.734 0 001.892 2.671 7.419 7.419 0 002.425.615 4.536 4.536 0 003.942-1.127" fill="#de846b"/></g><path d="M364.061 204.537s28.52 4.686 33.773 7.7c3.19 1.831 35.782 19.127 26.088 84.508l-35.774 111.62H286.029s23.854-115.1 18.635-119.046c-4.037-3.047-14.68 10.021-19.3 16.108a.622.622 0 01-1.114-.478c1.052-5.759.608-18.724-15.363-38.938l38.015-53.761 27.577-3.648 12.761 25.357z" fill="#faa819"/><path class="r" d="M318.682 210.438l14.55-1.851 13.874 26.551-28.424 8.027zM378.68 206.983l-13.423-2.35-17.31 30.064 27.693 10.213z"/><path class="s" d="M321.094 210.357l13.382-1.769 12.761 25.357-26.143 7.665zM376.399 206.75l-12.337-2.213-16.026 28.957 25.446 9.728z"/><path d="M348.049 233.494s17.843 163.654-1.544 170.1" stroke-width="2" stroke="#514d45" stroke-miterlimit="10" fill="none"/><path class="u" d="M367.429 260.58h29.49v3.716h-29.49zM310.635 260.58h25.275v3.716h-25.275z"/><path class="f" d="M428.731 277.16s.13 8.655-3.566 12.3-12.685 5.943-12.685 5.943 9.1 21.409 29.729 20.61c20.4-.8 25.384-22.2 25.384-22.2s-9.516-2.575-13.478-4.556-4.576-14.645-4.576-14.645z"/><path class="g" d="M436.082 289.394s11.463-1.646 15.2-4.194c.2-.137 1.653 3.675 3.846 5.731s-19.046-1.537-19.046-1.537z"/><path class="v" d="M409.03 369.899l-15.814 34.01 103.656.082-24.954-30.082z"/><path d="M518.377 355.356l-9.652 44.4-37.715-13.97 8.634-18.118-2.357 10.452-71.112-1.038-7.412-15.841 7.412 15.841s-7.009 17.843-4.3 17.174l-21.706-38.258c-3.559-11.579-3.716-10.247-1.517-22.761 2.336-13.273 13.7-29.155 22.126-34.005l12.467-.342 10.93-8.382 12 11.107 16.169-12.467 12.139 4.386 31 11.456s9.878 4.556 20.411 27.509a36.348 36.348 0 012.487 22.857z" fill="#6c81c0"/><path class="x" d="M454.67 289.579l-17.85 17.214 10.336 12 16.074-25.965z"/><path class="v" d="M453.932 288.11l-17.85 17.208 10.684 11.232 15.732-25.2z"/><path class="x" d="M420.828 293.11l16.723 13.936-10.9 13.553-13.4-21.675z"/><path class="v" d="M422.091 292.147l15.459 14.9-10.691 11.237-13.607-19.361z"/><path class="x" d="M474.862 377.331c.751-2.589 1.626-5.117 2.548-7.637s1.9-5.007 2.9-7.514 2.049-4.939 3.177-7.378 2.261-4.864 3.539-7.234c-.751 2.589-1.626 5.123-2.548 7.637s-1.9 5.007-2.9 7.514-2.049 4.939-3.177 7.378-2.268 4.864-3.539 7.234zM399.228 307.012a17.078 17.078 0 00-5.335 7.514c-.307.683-.546 1.441-.806 2.172a17.108 17.108 0 00-.622 2.227 39.681 39.681 0 00-.868 4.556 51.1 51.1 0 00-.335 9.256 63.353 63.353 0 001.113 9.208 92.742 92.742 0 005.465 17.8 149.374 149.374 0 008.382 16.729 103.3 103.3 0 01-9.359-16.306 93.611 93.611 0 01-3.416-8.805 80.707 80.707 0 01-2.37-9.154 54.788 54.788 0 01-.486-18.884 33.95 33.95 0 012.732-9.072 21.659 21.659 0 012.473-4.044 12.582 12.582 0 013.436-3.2zM437.318 310.086a67.723 67.723 0 00-7.767 15.971 46.191 46.191 0 00-2.049 17.426l.212 2.2a21.556 21.556 0 00.253 2.193c.26 1.455.451 2.917.772 4.365s.642 2.883 1.011 4.317l1.23 4.276c1.8 5.656 4 11.2 6.292 16.709a124.141 124.141 0 01-7.3-16.395 68.063 68.063 0 01-3.825-17.6 43.923 43.923 0 012.391-17.857 56.234 56.234 0 018.785-15.609z"/><g transform="translate(390.855 200.804)"><path class="y" d="M42.201.031c-4.153.137-12.446 4.782-15.268 10.356s1.476 14.81 12.979 19.066 2.869 6.756.745 9.973 9.12 6.046 16.962 33.2c6.831 23.622 2.971 28.8 4.522 35.344s2.261 25.59 31.526 14.523 11.025-39.867 7.774-41.417-10.465-16.183-6.647-31.061-12.979-18.806-16.115-26.771C76.186 16.883 69.163-.837 42.201.031z"/><path class="y" d="M39.926.434c4.1-.642 13.4 2.179 17.659 6.913s2.555 14.188-7.514 20.309-.97 6.879 1.967 9.509 4.645 10.691-7.569 34.333c-11.886 23-10.09 27.448-9.837 33.883s1.947 16.039-11.818 19.633c-30.843 8.04-20.309-34.443-18.738-37.5 1.961-3.812 5.82-17.139-1.906-30.419s7.589-20.07 8.471-28.138c.731-6.383 2.787-24.363 29.285-28.523z"/><path class="f" d="M68.542 47.022s6.216-5.151 6.428 3.532-3.545 9.741-6.2 9.564c0 0-3.832 30.918-23.3 30.433-25.057-.628-26.047-34.518-25.48-50.127 0 0 3.614-9.215 10.711-13.471 0 0 13.915 13.061 18.738 14.2s5.39-5.11 5.39-5.11 4.634 9.565 13.713 10.979z"/><circle class="j" cx="3.142" cy="3.142" r="3.142" transform="translate(26.858 58.867)"/><circle class="j" cx="2.958" cy="2.958" r="2.958" transform="translate(46.976 58.867)"/><path class="z" d="M39.612 57.412l-1.127 6.954a1.448 1.448 0 001.189 1.633l2.316.41M36.606 73.738s.813 4.024 5.95 3.928 5.649-6.216 5.649-6.216"/><circle class="k" cx="1.687" cy="1.687" r="1.687" transform="translate(31.025 48.149)"/><circle class="k" cx="1.687" cy="1.687" r="1.687" transform="translate(45.473 47.35)"/></g><path class="x" d="M395.491 403.912s-17.57-23.492-18.567-43.446c0 0-2.049-25.35 2.425-22.666l17.331 44.669z"/><path class="f" d="M380.907 404.629l14.666-22.543 17.611 2.978s9.529 5.4 27.133 0l41.813-7.514 26.409 27.086z"/><path class="x" d="M461.255 378.212s26.409-5.561 41.588 8.771c0 0 16.5 13.662 15.848 18.294H490z"/><path class="x" d="M412.262 377.205q6.6-.225 13.2-.178c4.392 0 8.785.1 13.184.2s8.785.273 13.17.5 8.778.506 13.17.888q-6.612.219-13.2.178c-4.392 0-8.792-.1-13.184-.2s-8.785-.28-13.17-.506-8.77-.496-13.17-.882z"/><g><path d="M166.681 277.426l2.978 12.467s.813 10.841-4.338 11.92c-6.23 1.086-15.172-8.129-15.172-8.129l-5.416-35.522z" fill="#f7a490"/><path class="f" d="M173.806 280.384l4.058 14.912s-2.213 15.876-8.88 16.846c-18.444 2.917-18.806-12.3-18.806-12.3l-5.9-42.128z"/><path class="g" d="M145.847 263.067l4.338 30.89 18.157-14.632z"/><g transform="translate(121.917 207.957)"><path class="f" d="M44.764 17.99a13.143 13.143 0 0111.955 8.942 106.045 106.045 0 014.877 18.157c2.439 13.546-5.417 26.279-12.194 27.092S26.641 68.656 22.849 49.42c-1.626-8.4-3.525-19.237 3.252-24.927a29.6 29.6 0 0118.663-6.503z"/><path d="M24.981 64.052S1.14 42.916.054 26.119 14.399.646 27.42.106a77.922 77.922 0 0115.985.813c12.979 1.626 21.675 7.589 18.7 18.157-4.065 14.345-31.423 2.165-36.847 6.77-4.611 3.8 2.978 12.74-1.626 15.992-4.338 3.252-2.172 2.165-.546 8.129a134.943 134.943 0 011.9 14.086z" fill="#75342d"/><path class="f" d="M15.771 44.795c.546 4.1 2.985 7.043 5.424 6.5s3.791-3.791 3.252-7.856-2.985-7.05-5.424-6.5-3.796 3.812-3.252 7.856z"/><ellipse class="j" cx="2.937" cy="2.719" rx="2.937" ry="2.719" transform="translate(52.866 39.262)"/><ellipse class="j" cx="2.671" cy="2.473" rx="2.671" ry="2.473" transform="translate(37.646 43.955)"/><path class="ac" d="M48.064 41.735l2.664 5.465a1.558 1.558 0 01-.533 1.735l-1.865.738M54.738 54.584a4.673 4.673 0 01-4.276 4.447c-4.536.991-6.408-3.955-6.408-3.955"/><ellipse class="k" cx="1.605" cy="1.482" rx="1.605" ry="1.482" transform="translate(50.994 32.588)"/><ellipse class="k" cx="1.605" cy="1.482" rx="1.605" ry="1.482" transform="translate(37.913 35.061)"/></g><path d="M147.896 288.185l-14.55 4.276-20.085 6.06s-16.818 4.1-24.093 31.02l-1.557 76.318h59.25v-15.193h54.916l1.366-61.993 15.712-.212s2.787-40.3-42.879-38.808c0 0-4.782 19.749-6.729 20.493z" fill="#764ea0"/><path class="f" d="M103.241 405.708s6.148-23.1 45.045-22.352 49.082-5.076 49.082-5.076l1.872 34.156z"/><path d="M169.271 310.134s11.558 58.748 4.645 72.26" stroke="#432d80" stroke-width="2" stroke-miterlimit="10" fill="none"/><path d="M135.607 292.196l11.5-3.252 22.932 22.679-19.312 13.089z" opacity=".47" fill="#452b77"/><path class="ag" d="M137.13 291.334l10.732-3.149 21.409 21.983-18.027 12.685z"/><path d="M176.662 290.412l14.318.9 1.646 29.285-23.356-8.751z" opacity=".38" fill="#452b77"/><path class="ag" d="M176.758 289.654l13.027.861 1.5 28.028-21.252-8.375z"/><path class="ai" d="M135.6 347.268l23.957-.977v17.433s-8.088 16.039-20.876 1.161zM189.764 342.705l23.957-.977v17.433s-8.095 16.039-20.876 1.168z"/><path d="M120.68 330.757q.4 7.18.533 14.345c.109 4.782.137 9.564.15 14.345s-.041 9.564-.15 14.345-.266 9.564-.533 14.345q-.4-7.173-.533-14.345c-.109-4.782-.137-9.564-.15-14.345s.041-9.564.15-14.345.274-9.556.533-14.345z" fill="#432d80"/><path d="M138.811 363.997s21.545-9.345 20.493-16.989v16.06s-9.208 15.575-20.493.929z" fill="#020202" opacity=".28"/></g><path fill="#7e7a83" d="M44.199 404.656h493.735v10.458H44.199z"/><path class="am" d="M142.267 397.818h100.725v8.313h-93.259a7.473 7.473 0 01-7.473-7.473v-.847z"/><rect class="am" width="126.048" height="79.501" rx="13.07" transform="translate(195.885 326.808)"/><rect width="126.048" height="79.501" rx="13.07" transform="translate(199.683 326.808)" fill="#bfbfbf"/><circle class="ao" cx="10.588" cy="10.588" r="10.588" transform="translate(252.119 355.971)"/><g transform="translate(494.919 142.429)" opacity=".91"><path d="M73.879 0h-61.72A12.173 12.173 0 000 12.173v27.96A12.166 12.166 0 0010.677 52.2l.164 2.288 1.421 20.172 16.764-11.319L45.372 52.3h28.52a12.166 12.166 0 0012.18-12.166v-27.96A12.173 12.173 0 0073.879 0z" fill="#fe5f55"/><circle class="ao" cx="5.26" cy="5.26" r="5.26" transform="translate(11.784 21.395)"/><circle class="ao" cx="5.26" cy="5.26" r="5.26" transform="translate(37.933 21.395)"/><circle class="ao" cx="5.26" cy="5.26" r="5.26" transform="translate(64.083 21.395)"/></g><g transform="translate(47.486 112.843)" opacity=".84"><path d="M9.249 15.261L69.138.361a12.173 12.173 0 0114.748 8.88l6.749 27.133a12.166 12.166 0 01-7.453 14.291l.4 2.261 3.491 19.92-19-6.934-18.533-6.777-27.687 6.879a12.166 12.166 0 01-14.742-8.88L.362 30.001a12.166 12.166 0 018.887-14.742z" fill="#79b473"/><circle class="ao" cx="5.26" cy="5.26" r="5.26" transform="translate(65.571 22.153)"/><circle class="ao" cx="5.26" cy="5.26" r="5.26" transform="translate(40.194 28.465)"/><circle class="ao" cx="5.26" cy="5.26" r="5.26" transform="translate(14.816 34.777)"/></g><g><path d="M360.392 43.842c-22.8 0-41.287 10.021-41.287 22.379 0 5.287 3.416 10.144 9.038 13.97l3.88 6.729 7.883 13.662 7.555-13.088a73.36 73.36 0 0012.931 1.127c22.8 0 41.288-10.021 41.288-22.386s-18.485-22.393-41.288-22.393z" fill="#07a0c3"/><path class="au" d="M336.688 65.77h45.489M329.543 57.805h60.968M344.353 73.728h32.079"/></g></g></svg>