<svg version="1.1" id="Layer_1" xmlns="http://www.w3.org/2000/svg" x="0" y="0" viewBox="0 0 100 100" xml:space="preserve"><style>.st0{fill:#020202}</style><switch><g><path class="st0" d="M87.6 83.4h-4.8c-1.1 0-2-.9-2-2s.9-2 2-2h4.8c3.3 0 6-2.7 6-6V42.1c0-3.3-2.7-6-6-6H14.1c-3.3 0-6 2.7-6 6v31.3c0 3.3 2.7 6 6 6H19c1.1 0 2 .9 2 2s-.9 2-2 2h-4.9c-5.5 0-10-4.5-10-10V42.1c0-5.5 4.5-10 10-10h73.5c5.5 0 10 4.5 10 10v31.3c0 5.5-4.5 10-10 10z"/><path class="st0" d="M75.2 98.5H26.6c-5.3 0-9.5-4.3-9.5-9.5V58.5c0-1.1.9-2 2-2h63.7c1.1 0 2 .9 2 2V89c0 5.2-4.3 9.5-9.6 9.5zM21 60.5V89c0 3.1 2.5 5.5 5.5 5.5h48.6c3.1 0 5.5-2.5 5.5-5.5V60.5H21zM76.8 35.1c-1 0-1.9-.8-2-1.9l-.9-13.3L62.8 7.5H25.2l-.6 24.6c0 1.1-1 2-2 2-1.1 0-2-.9-2-2l.6-26.6c0-1.1.9-2 2-2h40.4c.6 0 1.1.2 1.5.7l12.2 13.5c.3.3.5.8.5 1.2l.9 14c.1 1.1-.8 2.1-1.9 2.1.1.1 0 .1 0 .1zM83.4 50.4h-9.7c-1.1 0-2-.9-2-2s.9-2 2-2h9.7c1.1 0 2 .9 2 2s-.9 2-2 2z"/><path class="st0" d="M71 73.4H29.4c-1.1 0-2-.9-2-2s.9-2 2-2H71c1.1 0 2 .9 2 2s-.9 2-2 2zM71.1 87.9H29.6c-1.1 0-2-.9-2-2s.9-2 2-2h41.6c1.1 0 2 .9 2 2s-1 2-2.1 2zM63.3 21c-.5 0-1-.2-1.4-.6-.4-.4-.6-.9-.6-1.5l.4-13.5c0-1.1 1-2 2.1-1.9 1.1 0 2 .9 1.9 2.1l-.3 11.3 9.3-.5c1.1-.1 2 .8 2.1 1.9.1 1.1-.8 2-1.9 2.1l-11.5.6h-.1z"/><circle cx="37.8" cy="19.3" r="10.3" fill="#d6b2f5"/></g></switch></svg>