<svg version="1.1" id="Layer_1" xmlns="http://www.w3.org/2000/svg" x="0" y="0" viewBox="0 0 128 128" xml:space="preserve"><style>.st1{fill:#050505}</style><switch><g><ellipse cx="62.9" cy="62" rx="19" ry="18.9" fill="#d6b2f5"/><path class="st1" d="M125.1 119.2H3.7c-1.4 0-2.5-1.1-2.5-2.5V33.2c0-1.4 1.1-2.5 2.5-2.5h121.4c1.4 0 2.5 1.1 2.5 2.5v83.5c0 1.3-1.1 2.5-2.5 2.5zm-118.9-5h116.4V35.7H6.2v78.5z"/><path class="st1" d="M39.6 76.9H13c-1.4 0-2.5-1.1-2.5-2.5V56.1c0-1.4 1.1-2.5 2.5-2.5h26.7c1.4 0 2.5 1.1 2.5 2.5v18.3c-.1 1.4-1.2 2.5-2.6 2.5zm-24.1-5h21.7V58.6H15.5v13.3zM76.7 76.9H50.1c-1.4 0-2.5-1.1-2.5-2.5V56.1c0-1.4 1.1-2.5 2.5-2.5h26.7c1.4 0 2.5 1.1 2.5 2.5v18.3c-.1 1.4-1.2 2.5-2.6 2.5zm-24.1-5h21.7V58.6H52.6v13.3zM113.1 76.9H86.4c-1.4 0-2.5-1.1-2.5-2.5V56.1c0-1.4 1.1-2.5 2.5-2.5h26.7c1.4 0 2.5 1.1 2.5 2.5v18.3c0 1.4-1.1 2.5-2.5 2.5zm-24.2-5h21.7V58.6H88.9v13.3zM40 106.4H13.4c-1.4 0-2.5-1.1-2.5-2.5V85.6c0-1.4 1.1-2.5 2.5-2.5H40c1.4 0 2.5 1.1 2.5 2.5v18.3c0 1.4-1.1 2.5-2.5 2.5zm-24.1-5h21.7V88.1H15.9v13.3zM77.1 106.4H50.5c-1.4 0-2.5-1.1-2.5-2.5V85.6c0-1.4 1.1-2.5 2.5-2.5h26.7c1.4 0 2.5 1.1 2.5 2.5v18.3c-.1 1.4-1.2 2.5-2.6 2.5zm-24.1-5h21.7V88.1H53v13.3zM113.5 106.4H86.8c-1.4 0-2.5-1.1-2.5-2.5V85.6c0-1.4 1.1-2.5 2.5-2.5h26.7c1.4 0 2.5 1.1 2.5 2.5v18.3c0 1.4-1.2 2.5-2.5 2.5zm-24.2-5H111V88.1H89.3v13.3z"/><path class="st1" d="M22.7 70.6h-.5c-.7-.1-1.3-.5-1.6-1.1L16.5 63c-.7-1.2-.4-2.7.8-3.5 1.2-.7 2.7-.4 3.5.8l2.7 4.3L33.7 57c1.1-.8 2.7-.6 3.5.5.8 1.1.6 2.7-.5 3.5l-12.4 9.1c-.5.4-1 .5-1.6.5zM22.7 101.5h-.5c-.7-.1-1.3-.5-1.6-1.1l-4.2-6.5c-.7-1.2-.4-2.7.8-3.5 1.2-.7 2.7-.4 3.5.8l2.7 4.3 10.3-7.6c1.1-.8 2.7-.6 3.5.5.8 1.1.6 2.7-.5 3.5L24.2 101c-.4.3-.9.5-1.5.5zM95.6 102.5h-.5c-.7-.1-1.3-.5-1.6-1.1l-4.2-6.5c-.7-1.2-.4-2.7.8-3.5 1.2-.7 2.7-.4 3.5.8l2.7 4.3 10.3-7.6c1.1-.8 2.7-.6 3.5.5.8 1.1.6 2.7-.5 3.5L97.1 102c-.4.3-.9.5-1.5.5zM60.3 71.5h-.5c-.7-.1-1.3-.5-1.6-1.1L54 63.9c-.7-1.2-.4-2.7.8-3.5 1.2-.7 2.7-.4 3.5.8l2.7 4.3 10.3-7.6c1.1-.8 2.7-.6 3.5.5.8 1.1.6 2.7-.5 3.5L61.9 71c-.5.4-1.1.5-1.6.5zM70.1 102.5c-.5 0-1-.2-1.5-.5L56 92.6c-1.1-.8-1.3-2.4-.5-3.5s2.4-1.3 3.5-.5L71.6 98c1.1.8 1.3 2.4.5 3.5-.5.6-1.2 1-2 1z"/><path class="st1" d="M59 103.8c-.5 0-1.1-.2-1.5-.5-1.1-.8-1.3-2.4-.4-3.5l9.3-12c.8-1.1 2.4-1.3 3.5-.4 1.1.8 1.3 2.4.4 3.5l-9.3 12c-.6.6-1.3.9-2 .9zM106.8 72.9c-.5 0-1-.2-1.5-.5L92.8 63c-1.1-.8-1.3-2.4-.5-3.5s2.4-1.3 3.5-.5l12.6 9.4c1.1.8 1.3 2.4.5 3.5-.6.6-1.3 1-2.1 1z"/><path class="st1" d="M95.7 74.2c-.5 0-1.1-.2-1.5-.5-1.1-.8-1.3-2.4-.4-3.5l9.3-12c.8-1.1 2.4-1.3 3.5-.4 1.1.8 1.3 2.4.4 3.5l-9.3 12c-.5.6-1.3.9-2 .9zM27.8 35.7H16.4c-1.4 0-2.5-1.1-2.5-2.5V15.7c0-1.4 1.1-2.5 2.5-2.5h11.3c1.4 0 2.5 1.1 2.5 2.5v17.5c.1 1.4-1 2.5-2.4 2.5zm-8.9-5h6.3V18.2h-6.3v12.5zM109.5 35.7H98.1c-1.4 0-2.5-1.1-2.5-2.5V15.7c0-1.4 1.1-2.5 2.5-2.5h11.3c1.4 0 2.5 1.1 2.5 2.5v17.5c.1 1.4-1 2.5-2.4 2.5zm-8.9-5h6.3V18.2h-6.3v12.5z"/></g></switch></svg>