<svg xmlns="http://www.w3.org/2000/svg" width="72.2" height="72.2" viewBox="0 0 72.2 72.2"><defs><style>.a{fill:#d6b3f5;}</style></defs><circle class="a" cx="18.5" cy="18.5" r="18.5"/><g transform="translate(-2 -2)"><path d="M17.471,22.629a5.157,5.157,0,1,1,5.157-5.157A5.162,5.162,0,0,1,17.471,22.629ZM74.2,38.1A36.1,36.1,0,1,1,4.357,25.328C2.964,22.43,2,19.656,2,17.471A15.442,15.442,0,0,1,25.537,4.292,36.018,36.018,0,0,1,74.2,38.1ZM7.157,17.471c0,3.922,5.693,12.821,10.314,18.991,4.621-6.171,10.314-15.069,10.314-18.991a10.314,10.314,0,0,0-20.629,0ZM27.786,67.238V50.993a7.518,7.518,0,0,1,7.736-7.736H48.414V25.207a7.518,7.518,0,0,1,7.736-7.736H61.1A30.681,30.681,0,0,0,29.9,8.289a15.37,15.37,0,0,1,3.048,9.182c0,7.8-12.083,23.1-13.46,24.819a2.575,2.575,0,0,1-4.023,0A123.46,123.46,0,0,1,7.864,31.6,30.812,30.812,0,0,0,27.786,67.238ZM69.043,38.1a30.693,30.693,0,0,0-4.188-15.471H56.15a2.368,2.368,0,0,0-2.579,2.61v20.6a2.576,2.576,0,0,1-2.579,2.579H35.521a2.369,2.369,0,0,0-2.579,2.61V68.579A30.773,30.773,0,0,0,69.043,38.1Z"/></g></svg>