<svg version="1.1" id="Layer_1" xmlns="http://www.w3.org/2000/svg" x="0" y="0" viewBox="0 0 128 128" xml:space="preserve"><style>.st0{fill:#d6b2f5}.st1{fill:#070707}</style><switch><g><circle class="st0" cx="87.4" cy="69.9" r="8.6"/><circle class="st0" cx="41.9" cy="70.5" r="8.6"/><path class="st1" d="M122.4 104.6H3.8V25.8c0-6.1 5-11.1 11.1-11.1h96.5c6.1 0 11.1 5 11.1 11.1v78.8zm-113.6-5h108.6V25.8c0-3.3-2.7-6.1-6.1-6.1H14.9c-3.3 0-6.1 2.7-6.1 6.1v73.8z"/><path class="st1" d="M113.6 121.9H14.8c-8.6 0-15.5-7-15.5-15.5v-6.8h129.9v6.8c-.1 8.5-7.1 15.5-15.6 15.5zM4.3 104.5v1.8c0 5.8 4.7 10.5 10.5 10.5h98.8c5.8 0 10.5-4.7 10.5-10.5v-1.8H4.3zM114.1 96.7H12.6V23.2h101.5v73.5zm-96.5-5h91.5V28.2H17.6v63.5z"/><path transform="matrix(.9999 -.01579 .01579 .9999 -.93 1.012)" class="st1" d="M61.2 25.7h5v67.4h-5z"/><path class="st1" d="M16.6 56.9h92.9v5H16.6z"/><path d="M55.2 59.8l-4.9-1c.1-.5.1-.9.1-1.4 0-4.2-3.4-7.5-7.5-7.5-4.2 0-7.5 3.4-7.5 7.5 0 .5 0 1 .1 1.4l-4.9.9c-.1-.8-.2-1.6-.2-2.4 0-6.9 5.6-12.5 12.5-12.5s12.5 5.6 12.5 12.5c0 1-.1 1.8-.2 2.5zM98.4 59.9l-4.9-1c.1-.5.1-.9.1-1.4 0-4.2-3.4-7.5-7.5-7.5s-7.5 3.4-7.5 7.5c0 .5 0 1 .1 1.4l-4.9.9c-.1-.8-.2-1.6-.2-2.4 0-6.9 5.6-12.5 12.5-12.5s12.5 5.6 12.5 12.5c0 1-.1 1.8-.2 2.5zM100.1 93.3l-4.9-1c.1-.5.1-.9.1-1.4 0-4.2-3.4-7.5-7.5-7.5-4.2 0-7.5 3.4-7.5 7.5 0 .5 0 1 .1 1.4l-4.9 1c-.1-.8-.2-1.6-.2-2.4 0-6.9 5.6-12.5 12.5-12.5s12.5 5.6 12.5 12.5c0 .8-.1 1.6-.2 2.4zM87.8 77.8c-3.8 0-6.4-3-6.4-7.4S84 63 87.8 63s6.4 3 6.4 7.4c-.1 4.5-2.6 7.4-6.4 7.4zm0-9.7c-.4 0-1.4 0-1.4 2.4s1 2.4 1.4 2.4 1.4 0 1.4-2.4c-.1-2.4-1.1-2.4-1.4-2.4zM29.4 94.1c-.1-.8-.2-1.6-.2-2.4 0-6.9 5.6-12.5 12.5-12.5s12.5 5.6 12.5 12.5c0 .8-.1 1.6-.2 2.4l-4.9-.9c.1-.5.1-.9.1-1.4 0-4.2-3.4-7.5-7.5-7.5-4.2 0-7.5 3.4-7.5 7.5 0 .5 0 1 .1 1.4l-4.9.9zM41.7 78.7c-3.8 0-6.4-3-6.4-7.4s2.6-7.4 6.4-7.4c3.8 0 6.4 3 6.4 7.4s-2.6 7.4-6.4 7.4zm0-9.7c-.4 0-1.4 0-1.4 2.4s1 2.4 1.4 2.4 1.4 0 1.4-2.4-1-2.4-1.4-2.4z"/><circle class="st0" cx="43.1" cy="36.8" r="8.6"/><circle class="st0" cx="86.4" cy="36.8" r="8.6"/><path d="M42.8 44.4c-3.8 0-6.4-3-6.4-7.4s2.6-7.4 6.4-7.4 6.4 3 6.4 7.4-2.6 7.4-6.4 7.4zm0-9.7c-.4 0-1.4 0-1.4 2.4s1 2.4 1.4 2.4 1.4 0 1.4-2.4-1-2.4-1.4-2.4zM86 44.5c-3.8 0-6.4-3-6.4-7.4s2.6-7.4 6.4-7.4 6.4 3 6.4 7.4c0 4.5-2.6 7.4-6.4 7.4zm0-9.7c-.4 0-1.4 0-1.4 2.4s1 2.4 1.4 2.4 1.4 0 1.4-2.4-1-2.4-1.4-2.4z"/></g></switch></svg>