<svg version="1.1" id="Layer_1" xmlns="http://www.w3.org/2000/svg" x="0" y="0" viewBox="0 0 128 128" xml:space="preserve"><style>.st0{fill:#0a0a0a}</style><switch><g><path class="st0" d="M119 81.3c-1.5-.1-2.5-1.2-2.5-2.6 0-.3 1.2-32.6.3-42.9-.2-2-.7-3.8-1.7-5.3-1.7-2.7-4.6-4.5-7.7-4.9-2.6-.4-5.1.3-6.9 1.9-4.8 4.2-3 12.3-3 12.4.3 1.3-.5 2.7-1.9 3-1.3.3-2.7-.5-3-1.9-.1-.5-2.4-11.1 4.6-17.3 3-2.6 6.9-3.7 10.9-3.1 4.5.6 8.7 3.3 11.2 7.2 1.4 2.2 2.2 4.8 2.5 7.6.9 10.6-.3 42.2-.3 43.5 0 1.3-1.1 2.4-2.5 2.4z"/><circle cx="98.2" cy="98.3" r="28.3" fill="#d6b2f5"/><path class="st0" d="M13.2 74.8c-1.4 0-2.5-1.1-2.5-2.5V21.5c0-1.4 1.1-2.5 2.5-2.5s2.5 1.1 2.5 2.5v50.8c0 1.4-1.2 2.5-2.5 2.5zM71.2 106.2H21.1c-.2 0-.3 0-.5-.1-9.5-2-10-7.1-10-8.6l-.2-18.2c0-1.4 1.1-2.5 2.5-2.5s2.5 1.1 2.5 2.5l.2 18.2v.4c.1.7 1.3 2.2 5.7 3.2h49.8c1.4 0 .5 1.1.5 2.5s1 2.6-.4 2.6z"/><path class="st0" d="M58.6 24H1.4C.1 24-1 23-1.1 21.7-1.6 15.5.4 3.5 11.7 2.4h59.5c1.4 0 2.5 1.1 2.5 2.5s-1.1 2.5-2.4 2.5c-4.3.1-7.3 1.3-9 3.6-2.9 3.9-1.3 9.8-1.2 9.9.2.8.1 1.6-.4 2.2-.6.5-1.3.9-2.1.9zM3.9 19h51.7c-.3-2.9-.1-7.4 2.6-11 .2-.2.3-.4.5-.6H12c-6.7.7-7.9 7.8-8.1 11.6z"/><path class="st0" d="M81.4 75.9c-1.4 0-2.5-1.1-2.5-2.5V24c0-.3.1-.6.2-.9 1.4-3.6 1.3-6.8 0-9.4-2.6-4.9-9.2-6.5-9.3-6.5-1.3-.3-2.2-1.7-1.8-3s1.7-2.2 3-1.9c.4.1 8.9 2.2 12.5 9 2 3.8 2.2 8.2.5 13.1v49c-.1 1.4-1.2 2.5-2.6 2.5zM95 73.4c-1.4 0-2.5-1.1-2.5-2.5l-.2-21.3c0-1.4 1.1-2.5 2.5-2.5s2.5 1.1 2.5 2.5l.2 21.3c.1 1.4-1 2.5-2.5 2.5.1 0 .1 0 0 0z"/><path class="st0" d="M99.2 26.5H81.6c-1.5 0-2.8-1.1-2.8-2.5s1.2-2.5 2.8-2.5h17.6c1.5 0 2.8 1.1 2.8 2.5s-1.3 2.5-2.8 2.5zM72.1 38.1h-27c-1.4 0-2.5-1.1-2.5-2.5s1.1-2.5 2.5-2.5H72c1.4 0 2.5 1.1 2.5 2.5s-1.1 2.5-2.4 2.5zM71.2 60.9h-26c-1.4 0-2.5-1.1-2.5-2.5s1.1-2.5 2.5-2.5h26c1.4 0 2.5 1.1 2.5 2.5s-1.1 2.5-2.5 2.5zM70.8 83.8H45.1c-1.4 0-2.5-1.1-2.5-2.5s1.1-2.5 2.5-2.5h25.7c1.4 0 2.5 1.1 2.5 2.5s-1.1 2.5-2.5 2.5zM35.7 67.5H24.3c-1.4 0-2.5-1.1-2.5-2.5V51.8c0-1.4 1.1-2.5 2.5-2.5h11.4c1.4 0 2.5 1.1 2.5 2.5V65c0 1.4-1.1 2.5-2.5 2.5zm-8.9-5h6.4v-8.2h-6.4v8.2zM34.9 89H23.4c-1.4 0-2.5-1.1-2.5-2.5V73.3c0-1.4 1.1-2.5 2.5-2.5h11.4c1.4 0 2.5 1.1 2.5 2.5v13.2c.1 1.4-1.1 2.5-2.4 2.5zm-9-5h6.4v-8.2h-6.4V84zM34.9 46H23.4c-1.4 0-2.5-1.1-2.5-2.5V30.3c0-1.4 1.1-2.5 2.5-2.5h11.4c1.4 0 2.5 1.1 2.5 2.5v13.2c.1 1.3-1.1 2.5-2.4 2.5zm-9-5h6.4v-8.2h-6.4V41z"/><path class="st0" d="M94.2 124.9c-15 0-27.3-12.2-27.3-27.3s12.2-27.3 27.3-27.3 27.3 12.2 27.3 27.3-12.3 27.3-27.3 27.3zm0-49.5c-12.3 0-22.3 10-22.3 22.3s10 22.3 22.3 22.3 22.3-10 22.3-22.3-10-22.3-22.3-22.3z"/><path class="st0" d="M94.2 115.9c-10.1 0-18.2-8.2-18.2-18.2s8.2-18.2 18.2-18.2 18.2 8.2 18.2 18.2-8.2 18.2-18.2 18.2zm0-31.5c-7.3 0-13.2 5.9-13.2 13.2s5.9 13.2 13.2 13.2 13.2-5.9 13.2-13.2-5.9-13.2-13.2-13.2z"/><path class="st0" d="M103.5 101.3H92.9c-1.4 0-2.5-1.1-2.5-2.5V88.1c0-1.4 1.1-2.5 2.5-2.5s2.5 1.1 2.5 2.5v8.3h8c1.4 0 2.5 1.1 2.5 2.5s-1 2.4-2.4 2.4z"/></g></switch></svg>